{"glyphs":{"0":{"ha":851,"x_min":0,"x_max":0,"o":"m 392 -14 b 797 472 594 -14 757 182 b 508 986 839 776 724 986 b 99 501 304 986 139 790 b 392 -14 56 197 171 -14 z m 403 44 b 251 568 247 49 214 342 b 488 924 281 744 353 926 b 640 407 643 921 678 632 b 403 44 613 229 533 42 z "},"1":{"ha":481,"x_min":0,"x_max":0,"o":"m 410 956 b 385 986 413 981 403 988 b 250 946 365 985 299 964 b 161 896 171 917 163 910 b 203 863 160 882 167 872 b 254 768 258 847 261 819 l 169 167 b 76 25 154 64 76 65 b 138 0 76 7 90 0 l 301 0 b 361 25 346 0 361 7 b 297 167 361 63 282 63 z "},"2":{"ha":807,"x_min":0,"x_max":0,"o":"m 739 718 b 501 986 764 876 664 986 b 164 779 344 986 219 881 b 200 756 144 744 176 728 b 436 881 282 847 360 881 b 593 697 546 881 608 810 b 38 74 568 513 292 281 b 14 28 22 61 14 43 b 53 -8 14 10 24 -10 b 200 78 100 -7 143 78 b 549 -1 294 78 397 -1 b 724 179 653 -1 722 88 b 703 214 724 199 718 214 b 543 128 671 214 665 128 b 256 171 407 128 360 171 b 739 718 557 396 713 553 z "},"3":{"ha":843,"x_min":0,"x_max":0,"o":"m 814 921 b 792 971 836 949 824 971 b 714 918 763 971 743 918 b 361 985 599 918 485 985 b 218 881 276 985 244 949 b 217 754 206 844 181 754 b 283 814 239 754 250 781 b 397 854 313 842 356 854 b 644 821 494 854 550 824 b 342 563 550 724 451 640 b 347 503 308 539 304 506 b 621 275 515 488 642 425 b 376 81 601 144 488 81 b 103 221 247 81 160 133 b 51 196 85 247 43 231 b 389 -17 83 90 206 -17 b 765 276 628 -17 746 135 b 467 586 793 475 632 572 b 814 921 599 685 714 803 z "},"4":{"ha":831,"x_min":0,"x_max":0,"o":"m 507 -29 b 593 -6 525 -29 571 -18 b 626 44 618 7 624 25 l 647 190 l 696 190 b 754 243 725 190 743 204 b 756 326 775 299 778 326 b 663 308 735 326 715 308 l 753 944 b 719 988 757 974 746 988 b 646 950 694 988 672 975 b 303 575 599 906 411 697 b 42 242 146 400 49 289 b 90 192 36 194 57 192 l 508 194 l 481 6 b 507 -29 478 -21 489 -29 z m 208 308 b 192 350 172 307 169 324 b 610 826 301 485 443 650 l 536 308 z "},"5":{"ha":819,"x_min":0,"x_max":0,"o":"m 372 -14 b 740 288 607 -14 719 139 b 294 663 769 493 613 621 l 379 858 b 707 858 490 851 610 851 b 788 897 754 861 772 871 b 822 982 804 926 815 951 b 807 1021 828 1007 824 1021 b 678 972 775 1021 765 978 b 394 972 579 965 486 965 b 357 946 376 974 364 964 l 204 601 b 221 564 194 581 200 567 b 592 281 475 535 615 460 b 349 85 576 174 490 85 b 76 224 226 85 136 136 b 28 199 60 251 18 233 b 372 -14 57 93 181 -14 z "},"6":{"ha":828,"x_min":0,"x_max":0,"o":"m 399 -14 b 767 343 603 -14 739 144 b 518 679 793 529 689 679 b 264 547 422 679 317 624 b 556 903 294 764 411 903 b 717 860 618 903 660 893 b 754 899 742 844 769 869 b 556 986 728 944 660 986 b 90 435 335 986 135 753 b 399 -14 53 160 175 -14 z m 408 58 b 240 357 265 63 217 213 b 460 581 260 485 344 583 b 625 289 593 576 649 435 b 408 58 604 163 529 53 z "},"7":{"ha":747,"x_min":0,"x_max":0,"o":"m 776 978 b 671 922 733 978 724 922 b 306 986 535 922 435 986 b 132 782 196 986 132 893 b 151 749 132 767 135 749 b 311 860 188 750 185 860 b 624 824 424 860 515 810 b 122 65 425 564 150 275 b 140 17 119 47 119 29 b 229 -12 165 1 200 -11 b 263 10 244 -14 261 -8 b 792 926 308 325 578 671 b 776 978 818 960 803 978 z "},"8":{"ha":808,"x_min":0,"x_max":0,"o":"m 775 778 b 524 986 793 907 678 986 b 178 747 338 986 197 886 b 293 519 164 646 219 576 b 60 247 168 454 75 351 b 357 -12 36 82 171 -12 b 725 253 561 -12 704 107 b 547 526 743 375 685 438 b 775 778 678 593 760 669 z m 653 763 b 506 553 644 696 599 626 l 500 557 b 319 785 401 618 306 688 b 500 925 332 875 415 925 b 653 763 604 925 668 863 z m 582 211 b 386 47 568 124 490 47 b 190 264 244 47 172 142 b 332 490 204 360 261 433 b 393 450 351 476 372 464 b 582 211 544 356 593 290 z "},"9":{"ha":835,"x_min":0,"x_max":0,"o":"m 344 -14 b 788 538 590 -14 743 219 b 504 986 824 813 715 986 b 110 618 314 986 139 825 b 360 293 83 440 188 293 b 614 425 456 293 560 349 b 321 69 582 208 465 69 b 161 113 258 69 217 79 b 124 74 136 128 108 103 b 344 -14 149 28 217 -14 z m 432 390 b 257 692 294 390 235 539 b 463 915 274 811 343 915 b 640 608 608 915 663 760 b 432 390 624 488 547 390 z "},"A":{"ha":953,"x_min":0,"x_max":0,"o":"m 129 0 b 185 29 160 0 181 6 b 169 164 190 71 110 51 l 215 251 b 449 293 236 293 236 293 b 658 253 649 293 649 293 l 681 165 b 617 26 707 57 624 72 b 671 0 614 7 636 0 l 833 0 b 904 31 881 0 900 7 b 821 164 910 72 850 51 l 622 947 b 590 972 618 964 607 972 l 463 972 b 421 943 432 972 422 961 b 453 832 414 899 493 908 l 97 164 b -37 26 35 47 -31 72 b 17 0 -40 6 -18 0 z m 457 353 b 286 385 269 353 269 353 l 515 819 l 624 389 b 457 353 633 353 632 353 z "},"Á":{"ha":953,"x_min":0,"x_max":0,"o":"m 467 1060 b 689 1179 531 1044 675 1118 b 649 1253 699 1215 676 1244 b 533 1185 613 1263 582 1231 b 446 1085 488 1139 449 1100 b 467 1060 443 1075 450 1064 z m 129 0 b 185 29 160 0 181 6 b 169 164 190 71 110 51 l 215 251 b 449 293 236 293 236 293 b 658 253 649 293 649 293 l 681 165 b 617 26 707 57 624 72 b 671 0 614 7 636 0 l 833 0 b 904 31 881 0 900 7 b 821 164 910 72 850 51 l 622 947 b 590 972 618 964 607 972 l 463 972 b 421 943 432 972 422 961 b 453 832 414 899 493 908 l 97 164 b -37 26 35 47 -31 72 b 17 0 -40 6 -18 0 z m 457 353 b 286 385 269 353 269 353 l 515 819 l 624 389 b 457 353 633 353 632 353 z "},"Ă":{"ha":953,"x_min":0,"x_max":0,"o":"m 524 1051 b 717 1207 628 1051 701 1124 b 704 1238 721 1226 715 1238 b 682 1222 696 1238 693 1233 b 538 1149 643 1175 600 1149 b 417 1222 476 1149 440 1176 b 397 1238 410 1233 404 1238 b 375 1207 385 1238 376 1226 b 524 1051 368 1126 413 1051 z m 129 0 b 185 29 160 0 181 6 b 169 164 190 71 110 51 l 215 251 b 449 293 236 293 236 293 b 658 253 649 293 649 293 l 681 165 b 617 26 707 57 624 72 b 671 0 614 7 636 0 l 833 0 b 904 31 881 0 900 7 b 821 164 910 72 850 51 l 622 947 b 590 972 618 964 607 972 l 463 972 b 421 943 432 972 422 961 b 453 832 414 899 493 908 l 97 164 b -37 26 35 47 -31 72 b 17 0 -40 6 -18 0 z m 457 353 b 286 385 269 353 269 353 l 515 819 l 624 389 b 457 353 633 353 632 353 z "},"Â":{"ha":953,"x_min":0,"x_max":0,"o":"m 369 1046 b 546 1110 404 1043 500 1081 b 706 1046 582 1081 668 1043 b 724 1064 721 1047 724 1056 b 661 1147 724 1078 693 1108 b 560 1225 603 1215 600 1225 b 440 1146 524 1225 511 1208 b 354 1064 396 1108 360 1078 b 369 1046 353 1056 354 1047 z m 129 0 b 185 29 160 0 181 6 b 169 164 190 71 110 51 l 215 251 b 449 293 236 293 236 293 b 658 253 649 293 649 293 l 681 165 b 617 26 707 57 624 72 b 671 0 614 7 636 0 l 833 0 b 904 31 881 0 900 7 b 821 164 910 72 850 51 l 622 947 b 590 972 618 964 607 972 l 463 972 b 421 943 432 972 422 961 b 453 832 414 899 493 908 l 97 164 b -37 26 35 47 -31 72 b 17 0 -40 6 -18 0 z m 457 353 b 286 385 269 353 269 353 l 515 819 l 624 389 b 457 353 633 353 632 353 z "},"Ä":{"ha":953,"x_min":0,"x_max":0,"o":"m 410 1078 b 497 1156 454 1078 497 1111 b 432 1219 497 1193 469 1219 b 350 1133 386 1219 350 1175 b 410 1078 350 1099 376 1078 z m 611 1078 b 699 1156 654 1078 699 1111 b 632 1219 699 1193 671 1219 b 550 1133 588 1219 550 1175 b 611 1078 550 1099 576 1078 z m 129 0 b 185 29 160 0 181 6 b 169 164 190 71 110 51 l 215 251 b 449 293 236 293 236 293 b 658 253 649 293 649 293 l 681 165 b 617 26 707 57 624 72 b 671 0 614 7 636 0 l 833 0 b 904 31 881 0 900 7 b 821 164 910 72 850 51 l 622 947 b 590 972 618 964 607 972 l 463 972 b 421 943 432 972 422 961 b 453 832 414 899 493 908 l 97 164 b -37 26 35 47 -31 72 b 17 0 -40 6 -18 0 z m 457 353 b 286 385 269 353 269 353 l 515 819 l 624 389 b 457 353 633 353 632 353 z "},"À":{"ha":953,"x_min":0,"x_max":0,"o":"m 592 1060 b 613 1085 608 1064 615 1075 b 525 1185 610 1100 571 1139 b 410 1253 476 1231 446 1263 b 369 1179 382 1244 360 1215 b 592 1060 383 1118 528 1044 z m 129 0 b 185 29 160 0 181 6 b 169 164 190 71 110 51 l 215 251 b 449 293 236 293 236 293 b 658 253 649 293 649 293 l 681 165 b 617 26 707 57 624 72 b 671 0 614 7 636 0 l 833 0 b 904 31 881 0 900 7 b 821 164 910 72 850 51 l 622 947 b 590 972 618 964 607 972 l 463 972 b 421 943 432 972 422 961 b 453 832 414 899 493 908 l 97 164 b -37 26 35 47 -31 72 b 17 0 -40 6 -18 0 z m 457 353 b 286 385 269 353 269 353 l 515 819 l 624 389 b 457 353 633 353 632 353 z "},"Ā":{"ha":953,"x_min":0,"x_max":0,"o":"m 665 1076 b 711 1113 704 1076 708 1086 b 675 1146 714 1136 713 1146 l 360 1146 b 315 1111 322 1146 318 1136 b 350 1076 313 1086 313 1076 z m 129 0 b 185 29 160 0 181 6 b 169 164 190 71 110 51 l 215 251 b 449 293 236 293 236 293 b 658 253 649 293 649 293 l 681 165 b 617 26 707 57 624 72 b 671 0 614 7 636 0 l 833 0 b 904 31 881 0 900 7 b 821 164 910 72 850 51 l 622 947 b 590 972 618 964 607 972 l 463 972 b 421 943 432 972 422 961 b 453 832 414 899 493 908 l 97 164 b -37 26 35 47 -31 72 b 17 0 -40 6 -18 0 z m 457 353 b 286 385 269 353 269 353 l 515 819 l 624 389 b 457 353 633 353 632 353 z "},"Ą":{"ha":953,"x_min":0,"x_max":0,"o":"m 833 0 b 904 31 881 0 900 7 b 821 164 910 72 850 51 l 622 947 b 590 972 618 964 607 972 l 463 972 b 421 943 432 972 422 961 b 453 832 414 899 493 908 l 97 164 b -37 26 35 47 -31 72 b 17 0 -40 6 -18 0 l 129 0 b 185 29 160 0 181 6 b 169 164 190 71 110 51 l 215 251 b 449 293 236 293 236 293 b 658 253 649 293 649 293 l 681 165 b 617 26 707 57 624 72 b 671 0 614 7 636 0 l 753 0 b 649 -144 690 -42 649 -89 b 783 -254 649 -215 711 -254 b 893 -215 818 -254 864 -243 b 874 -190 908 -201 901 -178 b 817 -203 857 -197 833 -203 b 736 -128 764 -203 736 -174 b 801 0 736 -92 754 -49 z m 457 353 b 286 385 269 353 269 353 l 515 819 l 624 389 b 457 353 633 353 632 353 z "},"Å":{"ha":953,"x_min":0,"x_max":0,"o":"m 528 1044 b 682 1174 603 1044 671 1094 b 568 1299 693 1250 643 1299 b 413 1169 492 1299 424 1247 b 528 1044 401 1094 451 1044 z m 542 1099 b 476 1171 501 1099 476 1129 b 556 1247 481 1215 511 1247 b 618 1176 594 1247 618 1217 b 542 1099 614 1135 585 1099 z m 129 0 b 185 29 160 0 181 6 b 169 164 190 71 110 51 l 215 251 b 449 293 236 293 236 293 b 658 253 649 293 649 293 l 681 165 b 617 26 707 57 624 72 b 671 0 614 7 636 0 l 833 0 b 904 31 881 0 900 7 b 821 164 910 72 850 51 l 622 947 b 590 972 618 964 607 972 l 463 972 b 421 943 432 972 422 961 b 453 832 414 899 493 908 l 97 164 b -37 26 35 47 -31 72 b 17 0 -40 6 -18 0 z m 457 353 b 286 385 269 353 269 353 l 515 819 l 624 389 b 457 353 633 353 632 353 z "},"Ã":{"ha":953,"x_min":0,"x_max":0,"o":"m 632 1057 b 740 1142 693 1057 733 1093 b 706 1178 747 1193 710 1213 b 653 1138 701 1151 685 1138 b 432 1196 604 1138 521 1196 b 325 1113 372 1196 332 1161 b 361 1075 318 1061 356 1042 b 415 1115 364 1103 382 1115 b 632 1057 483 1115 565 1057 z m 129 0 b 185 29 160 0 181 6 b 169 164 190 71 110 51 l 215 251 b 449 293 236 293 236 293 b 658 253 649 293 649 293 l 681 165 b 617 26 707 57 624 72 b 671 0 614 7 636 0 l 833 0 b 904 31 881 0 900 7 b 821 164 910 72 850 51 l 622 947 b 590 972 618 964 607 972 l 463 972 b 421 943 432 972 422 961 b 453 832 414 899 493 908 l 97 164 b -37 26 35 47 -31 72 b 17 0 -40 6 -18 0 z m 457 353 b 286 385 269 353 269 353 l 515 819 l 624 389 b 457 353 633 353 632 353 z "},"Æ":{"ha":1322,"x_min":0,"x_max":0,"o":"m 140 0 b 179 25 171 0 178 11 b 158 54 181 38 172 46 b 156 144 118 78 124 106 l 246 251 b 425 290 271 283 281 290 l 613 290 l 596 182 b 500 28 578 64 501 67 b 557 0 500 8 511 0 l 1089 0 b 1207 49 1178 0 1194 15 b 1250 197 1224 88 1236 131 b 1236 244 1254 222 1256 242 b 1174 190 1217 249 1201 238 b 968 64 1124 103 1093 64 l 865 63 b 715 131 725 61 708 82 l 765 482 b 911 550 775 549 815 550 b 1111 425 1071 549 1058 411 b 1133 494 1132 431 1138 442 l 1122 613 b 1092 657 1121 644 1110 657 b 921 613 1051 657 1069 613 b 794 681 824 613 785 614 l 817 846 b 985 910 822 890 846 910 l 1050 910 b 1246 778 1160 910 1211 865 b 1297 732 1261 742 1271 726 b 1319 783 1317 738 1321 756 b 1306 931 1319 846 1314 893 b 1211 974 1299 967 1289 974 l 650 972 b 611 947 619 972 613 961 b 631 911 608 931 615 922 b 629 808 656 890 671 857 l 78 144 b -35 54 43 103 8 78 b -65 25 -53 46 -64 38 b -32 0 -67 11 -62 0 z m 438 347 b 354 385 346 347 338 365 l 681 776 l 619 347 z "},"B":{"ha":893,"x_min":0,"x_max":0,"o":"m 353 0 b 824 307 618 0 793 89 b 571 579 844 453 740 554 b 765 758 694 600 754 674 b 461 972 785 897 676 972 l 236 972 b 164 944 189 972 167 965 b 228 839 157 901 226 917 b 222 782 228 825 226 810 l 140 190 b 128 133 136 163 133 147 b 33 28 106 57 40 71 b 100 0 31 7 53 0 z m 407 608 b 331 636 365 608 326 607 l 361 854 b 454 910 368 903 396 910 b 631 743 574 910 644 843 b 407 608 618 653 558 608 z m 358 63 b 263 160 265 63 253 92 l 311 489 b 397 543 315 525 324 543 b 678 285 599 543 700 442 b 358 63 656 126 550 63 z "},"":{"ha":893,"x_min":0,"x_max":0,"o":"m 353 0 b 824 307 618 0 793 89 b 571 579 844 453 740 554 b 765 758 694 600 754 674 b 461 972 785 897 676 972 l 236 972 b 164 944 189 972 167 965 b 228 839 157 901 226 917 b 222 782 228 825 226 810 l 140 190 b 128 133 136 163 133 147 b 33 28 106 57 40 71 b 100 0 31 7 53 0 z m 407 608 b 331 636 365 608 326 607 l 361 854 b 454 910 368 903 396 910 b 631 743 574 910 644 843 b 407 608 618 653 558 608 z m 358 63 b 263 160 265 63 253 92 l 311 489 b 397 543 315 525 324 543 b 678 285 599 543 700 442 b 358 63 656 126 550 63 z "},"C":{"ha":954,"x_min":0,"x_max":0,"o":"m 493 -14 b 874 161 689 -14 826 100 b 847 206 906 203 879 236 b 538 72 769 132 678 72 b 221 524 311 72 186 267 b 601 910 250 726 396 910 b 871 731 771 910 822 814 b 925 682 889 699 901 681 b 953 731 947 685 953 703 b 942 910 951 813 946 869 b 899 983 936 968 925 983 b 835 967 876 983 867 967 b 665 986 796 967 757 986 b 78 493 367 986 119 788 b 493 -14 39 210 206 -14 z "},"Ć":{"ha":954,"x_min":0,"x_max":0,"o":"m 538 1060 b 760 1179 601 1044 746 1118 b 719 1253 769 1215 747 1244 b 604 1185 683 1263 653 1231 b 517 1085 558 1139 519 1100 b 538 1060 514 1075 521 1064 z m 493 -14 b 874 161 689 -14 826 100 b 847 206 906 203 879 236 b 538 72 769 132 678 72 b 221 524 311 72 186 267 b 601 910 250 726 396 910 b 871 731 771 910 822 814 b 925 682 889 699 901 681 b 953 731 947 685 953 703 b 942 910 951 813 946 869 b 899 983 936 968 925 983 b 835 967 876 983 867 967 b 665 986 796 967 757 986 b 78 493 367 986 119 788 b 493 -14 39 210 206 -14 z "},"Č":{"ha":954,"x_min":0,"x_max":0,"o":"m 607 1046 b 728 1125 647 1046 650 1057 b 815 1207 772 1163 811 1193 b 800 1226 817 1217 815 1225 b 624 1161 765 1229 669 1192 b 465 1226 588 1192 501 1229 b 446 1207 449 1225 446 1217 b 507 1125 446 1193 475 1164 b 607 1046 561 1064 569 1046 z m 493 -14 b 874 161 689 -14 826 100 b 847 206 906 203 879 236 b 538 72 769 132 678 72 b 221 524 311 72 186 267 b 601 910 250 726 396 910 b 871 731 771 910 822 814 b 925 682 889 699 901 681 b 953 731 947 685 953 703 b 942 910 951 813 946 869 b 899 983 936 968 925 983 b 835 967 876 983 867 967 b 665 986 796 967 757 986 b 78 493 367 986 119 788 b 493 -14 39 210 206 -14 z "},"Ç":{"ha":954,"x_min":0,"x_max":0,"o":"m 942 910 b 899 983 936 968 925 983 b 835 967 876 983 867 967 b 665 986 796 967 757 986 b 78 493 367 986 119 788 b 433 -11 42 231 183 18 l 389 -93 b 406 -117 382 -106 392 -114 b 500 -192 451 -128 500 -146 b 436 -250 500 -222 479 -250 b 361 -226 401 -250 381 -237 b 339 -249 342 -214 326 -233 b 451 -293 357 -271 392 -293 b 579 -183 521 -293 579 -249 b 450 -74 579 -117 521 -86 l 482 -14 l 493 -14 b 874 161 689 -14 826 100 b 847 206 906 203 879 236 b 538 72 769 132 678 72 b 221 524 311 72 186 267 b 601 910 250 726 396 910 b 871 731 771 910 822 814 b 925 682 889 699 901 681 b 953 731 947 685 953 703 b 942 910 951 813 946 869 z "},"Ċ":{"ha":954,"x_min":0,"x_max":0,"o":"m 586 1069 b 707 1168 640 1065 703 1119 b 644 1240 708 1203 682 1238 b 524 1139 589 1247 526 1189 b 586 1069 521 1100 549 1072 z m 493 -14 b 874 161 689 -14 826 100 b 847 206 906 203 879 236 b 538 72 769 132 678 72 b 221 524 311 72 186 267 b 601 910 250 726 396 910 b 871 731 771 910 822 814 b 925 682 889 699 901 681 b 953 731 947 685 953 703 b 942 910 951 813 946 869 b 899 983 936 968 925 983 b 835 967 876 983 867 967 b 665 986 796 967 757 986 b 78 493 367 986 119 788 b 493 -14 39 210 206 -14 z "},"D":{"ha":1040,"x_min":0,"x_max":0,"o":"m 425 0 b 1004 501 793 0 968 243 b 522 972 1033 719 919 972 l 236 972 b 164 944 189 972 167 965 b 228 839 157 901 226 917 b 222 782 228 825 226 810 l 140 190 b 128 133 136 163 133 147 b 33 28 106 57 40 71 b 100 0 31 7 53 0 z m 417 61 b 261 143 276 61 253 86 l 361 851 b 464 913 368 903 389 913 b 857 436 758 913 894 706 b 417 61 829 247 728 61 z "},"Ď":{"ha":1040,"x_min":0,"x_max":0,"o":"m 464 1046 b 585 1125 504 1046 507 1057 b 672 1207 629 1163 668 1193 b 657 1226 674 1217 672 1225 b 481 1161 622 1229 526 1192 b 322 1226 444 1192 358 1229 b 303 1207 306 1225 303 1217 b 364 1125 303 1193 332 1164 b 464 1046 418 1064 426 1046 z m 425 0 b 1004 501 793 0 968 243 b 522 972 1033 719 919 972 l 236 972 b 164 944 189 972 167 965 b 228 839 157 901 226 917 b 222 782 228 825 226 810 l 140 190 b 128 133 136 163 133 147 b 33 28 106 57 40 71 b 100 0 31 7 53 0 z m 417 61 b 261 143 276 61 253 86 l 361 851 b 464 913 368 903 389 913 b 857 436 758 913 894 706 b 417 61 829 247 728 61 z "},"Đ":{"ha":1040,"x_min":0,"x_max":0,"o":"m 236 972 b 164 944 189 972 167 965 b 228 839 157 901 226 917 b 222 782 228 825 226 810 l 185 515 l 140 515 b 100 485 111 515 103 504 b 131 453 96 464 100 453 l 176 453 l 140 190 b 128 133 136 163 133 147 b 33 28 106 57 40 71 b 100 0 31 7 53 0 l 425 0 b 1004 501 793 0 968 243 b 522 972 1033 719 919 972 z m 857 436 b 417 61 829 247 728 61 b 261 143 276 61 253 86 l 304 453 l 431 453 b 471 485 461 453 468 464 b 440 515 474 504 469 515 l 314 515 l 361 851 b 464 913 368 903 389 913 b 857 436 758 913 894 706 z "},"Ð":{"ha":1040,"x_min":0,"x_max":0,"o":"m 236 972 b 164 944 189 972 167 965 b 228 839 157 901 226 917 b 222 782 228 825 226 810 l 185 515 l 140 515 b 100 485 111 515 103 504 b 131 453 96 464 100 453 l 176 453 l 140 190 b 128 133 136 163 133 147 b 33 28 106 57 40 71 b 100 0 31 7 53 0 l 425 0 b 1004 501 793 0 968 243 b 522 972 1033 719 919 972 z m 857 436 b 417 61 829 247 728 61 b 261 143 276 61 253 86 l 304 453 l 431 453 b 471 485 461 453 468 464 b 440 515 474 504 469 515 l 314 515 l 361 851 b 464 913 368 903 389 913 b 857 436 758 913 894 706 z "},"E":{"ha":865,"x_min":0,"x_max":0,"o":"m 631 0 b 750 49 721 0 738 15 b 793 197 767 88 779 131 b 779 244 797 222 799 242 b 717 190 760 249 744 238 b 515 64 667 103 636 64 l 408 63 b 258 131 268 61 251 82 l 308 482 b 456 550 318 549 358 550 b 654 425 614 549 601 411 b 676 494 675 431 682 442 l 667 613 b 636 657 664 644 653 657 b 464 613 594 657 613 613 b 338 681 367 613 328 614 l 360 846 b 528 910 365 890 389 910 l 593 910 b 789 778 704 910 756 865 b 840 732 804 742 814 726 b 863 783 861 738 864 756 b 849 931 864 846 857 893 b 754 974 842 967 833 974 l 236 972 b 164 944 189 972 167 969 b 222 782 156 893 244 938 l 140 190 b 33 28 118 35 42 79 b 99 0 31 3 51 0 z "},"":{"ha":865,"x_min":0,"x_max":0,"o":"m 631 0 b 750 49 721 0 738 15 b 793 197 767 88 779 131 b 779 244 797 222 799 242 b 717 190 760 249 744 238 b 515 64 667 103 636 64 l 408 63 b 258 131 268 61 251 82 l 308 482 b 456 550 318 549 358 550 b 654 425 614 549 601 411 b 676 494 675 431 682 442 l 667 613 b 636 657 664 644 653 657 b 464 613 594 657 613 613 b 338 681 367 613 328 614 l 360 846 b 528 910 365 890 389 910 l 593 910 b 789 778 704 910 756 865 b 840 732 804 742 814 726 b 863 783 861 738 864 756 b 849 931 864 846 857 893 b 754 974 842 967 833 974 l 236 972 b 164 944 189 972 167 969 b 222 782 156 893 244 938 l 140 190 b 33 28 118 35 42 79 b 99 0 31 3 51 0 z "},"É":{"ha":865,"x_min":0,"x_max":0,"o":"m 440 1060 b 663 1179 504 1044 649 1118 b 622 1253 672 1215 650 1244 b 507 1185 586 1263 556 1231 b 419 1085 461 1139 422 1100 b 440 1060 417 1075 424 1064 z m 631 0 b 750 49 721 0 738 15 b 793 197 767 88 779 131 b 779 244 797 222 799 242 b 717 190 760 249 744 238 b 515 64 667 103 636 64 l 408 63 b 258 131 268 61 251 82 l 308 482 b 456 550 318 549 358 550 b 654 425 614 549 601 411 b 676 494 675 431 682 442 l 667 613 b 636 657 664 644 653 657 b 464 613 594 657 613 613 b 338 681 367 613 328 614 l 360 846 b 528 910 365 890 389 910 l 593 910 b 789 778 704 910 756 865 b 840 732 804 742 814 726 b 863 783 861 738 864 756 b 849 931 864 846 857 893 b 754 974 842 967 833 974 l 236 972 b 164 944 189 972 167 969 b 222 782 156 893 244 938 l 140 190 b 33 28 118 35 42 79 b 99 0 31 3 51 0 z "},"Ě":{"ha":865,"x_min":0,"x_max":0,"o":"m 529 1046 b 650 1125 569 1046 572 1057 b 738 1207 694 1163 733 1193 b 722 1226 739 1217 738 1225 b 546 1161 688 1229 592 1192 b 388 1226 510 1192 424 1229 b 368 1207 371 1225 368 1217 b 429 1125 368 1193 397 1164 b 529 1046 483 1064 492 1046 z m 631 0 b 750 49 721 0 738 15 b 793 197 767 88 779 131 b 779 244 797 222 799 242 b 717 190 760 249 744 238 b 515 64 667 103 636 64 l 408 63 b 258 131 268 61 251 82 l 308 482 b 456 550 318 549 358 550 b 654 425 614 549 601 411 b 676 494 675 431 682 442 l 667 613 b 636 657 664 644 653 657 b 464 613 594 657 613 613 b 338 681 367 613 328 614 l 360 846 b 528 910 365 890 389 910 l 593 910 b 789 778 704 910 756 865 b 840 732 804 742 814 726 b 863 783 861 738 864 756 b 849 931 864 846 857 893 b 754 974 842 967 833 974 l 236 972 b 164 944 189 972 167 969 b 222 782 156 893 244 938 l 140 190 b 33 28 118 35 42 79 b 99 0 31 3 51 0 z "},"Ê":{"ha":865,"x_min":0,"x_max":0,"o":"m 371 1046 b 547 1110 406 1043 501 1081 b 707 1046 583 1081 669 1043 b 725 1064 722 1047 725 1056 b 663 1147 725 1078 694 1108 b 561 1225 604 1215 601 1225 b 442 1146 525 1225 513 1208 b 356 1064 397 1108 361 1078 b 371 1046 354 1056 356 1047 z m 631 0 b 750 49 721 0 738 15 b 793 197 767 88 779 131 b 779 244 797 222 799 242 b 717 190 760 249 744 238 b 515 64 667 103 636 64 l 408 63 b 258 131 268 61 251 82 l 308 482 b 456 550 318 549 358 550 b 654 425 614 549 601 411 b 676 494 675 431 682 442 l 667 613 b 636 657 664 644 653 657 b 464 613 594 657 613 613 b 338 681 367 613 328 614 l 360 846 b 528 910 365 890 389 910 l 593 910 b 789 778 704 910 756 865 b 840 732 804 742 814 726 b 863 783 861 738 864 756 b 849 931 864 846 857 893 b 754 974 842 967 833 974 l 236 972 b 164 944 189 972 167 969 b 222 782 156 893 244 938 l 140 190 b 33 28 118 35 42 79 b 99 0 31 3 51 0 z "},"Ë":{"ha":865,"x_min":0,"x_max":0,"o":"m 414 1078 b 501 1156 458 1078 501 1111 b 436 1219 501 1193 474 1219 b 354 1133 390 1219 354 1175 b 414 1078 354 1099 381 1078 z m 615 1078 b 703 1156 658 1078 703 1111 b 636 1219 703 1193 675 1219 b 554 1133 592 1219 554 1175 b 615 1078 554 1099 581 1078 z m 631 0 b 750 49 721 0 738 15 b 793 197 767 88 779 131 b 779 244 797 222 799 242 b 717 190 760 249 744 238 b 515 64 667 103 636 64 l 408 63 b 258 131 268 61 251 82 l 308 482 b 456 550 318 549 358 550 b 654 425 614 549 601 411 b 676 494 675 431 682 442 l 667 613 b 636 657 664 644 653 657 b 464 613 594 657 613 613 b 338 681 367 613 328 614 l 360 846 b 528 910 365 890 389 910 l 593 910 b 789 778 704 910 756 865 b 840 732 804 742 814 726 b 863 783 861 738 864 756 b 849 931 864 846 857 893 b 754 974 842 967 833 974 l 236 972 b 164 944 189 972 167 969 b 222 782 156 893 244 938 l 140 190 b 33 28 118 35 42 79 b 99 0 31 3 51 0 z "},"Ė":{"ha":865,"x_min":0,"x_max":0,"o":"m 525 1067 b 646 1165 579 1063 642 1117 b 583 1238 647 1200 621 1235 b 463 1136 528 1244 465 1186 b 525 1067 460 1097 488 1069 z m 631 0 b 750 49 721 0 738 15 b 793 197 767 88 779 131 b 779 244 797 222 799 242 b 717 190 760 249 744 238 b 515 64 667 103 636 64 l 408 63 b 258 131 268 61 251 82 l 308 482 b 456 550 318 549 358 550 b 654 425 614 549 601 411 b 676 494 675 431 682 442 l 667 613 b 636 657 664 644 653 657 b 464 613 594 657 613 613 b 338 681 367 613 328 614 l 360 846 b 528 910 365 890 389 910 l 593 910 b 789 778 704 910 756 865 b 840 732 804 742 814 726 b 863 783 861 738 864 756 b 849 931 864 846 857 893 b 754 974 842 967 833 974 l 236 972 b 164 944 189 972 167 969 b 222 782 156 893 244 938 l 140 190 b 33 28 118 35 42 79 b 99 0 31 3 51 0 z "},"È":{"ha":865,"x_min":0,"x_max":0,"o":"m 624 1060 b 644 1085 640 1064 647 1075 b 557 1185 642 1100 603 1139 b 442 1253 508 1231 478 1263 b 401 1179 414 1244 392 1215 b 624 1060 415 1118 560 1044 z m 631 0 b 750 49 721 0 738 15 b 793 197 767 88 779 131 b 779 244 797 222 799 242 b 717 190 760 249 744 238 b 515 64 667 103 636 64 l 408 63 b 258 131 268 61 251 82 l 308 482 b 456 550 318 549 358 550 b 654 425 614 549 601 411 b 676 494 675 431 682 442 l 667 613 b 636 657 664 644 653 657 b 464 613 594 657 613 613 b 338 681 367 613 328 614 l 360 846 b 528 910 365 890 389 910 l 593 910 b 789 778 704 910 756 865 b 840 732 804 742 814 726 b 863 783 861 738 864 756 b 849 931 864 846 857 893 b 754 974 842 967 833 974 l 236 972 b 164 944 189 972 167 969 b 222 782 156 893 244 938 l 140 190 b 33 28 118 35 42 79 b 99 0 31 3 51 0 z "},"Ē":{"ha":865,"x_min":0,"x_max":0,"o":"m 678 1076 b 724 1113 717 1076 721 1086 b 688 1146 726 1136 725 1146 l 372 1146 b 328 1111 335 1146 331 1136 b 363 1076 325 1086 325 1076 z m 631 0 b 750 49 721 0 738 15 b 793 197 767 88 779 131 b 779 244 797 222 799 242 b 717 190 760 249 744 238 b 515 64 667 103 636 64 l 408 63 b 258 131 268 61 251 82 l 308 482 b 456 550 318 549 358 550 b 654 425 614 549 601 411 b 676 494 675 431 682 442 l 667 613 b 636 657 664 644 653 657 b 464 613 594 657 613 613 b 338 681 367 613 328 614 l 360 846 b 528 910 365 890 389 910 l 593 910 b 789 778 704 910 756 865 b 840 732 804 742 814 726 b 863 783 861 738 864 756 b 849 931 864 846 857 893 b 754 974 842 967 833 974 l 236 972 b 164 944 189 972 167 969 b 222 782 156 893 244 938 l 140 190 b 33 28 118 35 42 79 b 99 0 31 3 51 0 z "},"Ę":{"ha":865,"x_min":0,"x_max":0,"o":"m 863 783 b 849 931 864 846 857 893 b 754 974 842 967 833 974 l 236 972 b 164 944 189 972 167 969 b 222 782 156 893 244 938 l 140 190 b 33 28 118 35 42 79 b 99 0 31 3 51 0 l 526 0 b 422 -144 464 -42 422 -89 b 557 -254 422 -215 485 -254 b 667 -215 592 -254 638 -243 b 647 -190 682 -201 675 -178 b 590 -203 631 -197 607 -203 b 510 -128 538 -203 510 -174 b 575 0 510 -92 528 -49 l 631 0 b 750 49 721 0 738 15 b 793 197 767 88 779 131 b 779 244 797 222 799 242 b 717 190 760 249 744 238 b 515 64 667 103 636 64 l 408 63 b 258 131 268 61 251 82 l 308 482 b 456 550 318 549 358 550 b 654 425 614 549 601 411 b 676 494 675 431 682 442 l 667 613 b 636 657 664 644 653 657 b 464 613 594 657 613 613 b 338 681 367 613 328 614 l 360 846 b 528 910 365 890 389 910 l 593 910 b 789 778 704 910 756 865 b 840 732 804 742 814 726 b 863 783 861 738 864 756 z "},"F":{"ha":842,"x_min":0,"x_max":0,"o":"m 851 783 b 836 931 851 846 844 893 b 743 974 831 967 821 974 l 236 972 b 164 944 189 972 167 969 b 222 782 156 893 244 938 l 140 201 b 33 28 118 43 42 79 b 99 0 31 7 51 0 l 251 0 b 325 28 300 0 321 7 b 269 201 332 79 246 43 l 307 468 b 421 536 317 535 357 536 l 463 536 b 654 411 615 536 603 397 b 676 482 676 417 681 428 l 665 599 b 636 643 664 631 654 643 b 469 599 597 643 613 599 l 429 599 b 335 667 365 599 325 600 l 358 840 b 529 910 367 890 389 910 l 594 910 b 778 778 692 910 743 865 b 828 732 793 742 803 726 b 851 783 849 738 853 756 z "},"G":{"ha":1026,"x_min":0,"x_max":0,"o":"m 492 -14 b 899 178 688 -14 888 90 l 917 321 b 988 464 933 447 981 415 b 943 492 990 485 969 492 l 736 492 b 664 464 686 492 667 485 b 790 319 656 407 806 438 l 769 172 b 535 65 760 106 638 65 b 217 535 300 65 181 268 b 596 910 246 726 390 910 b 867 731 767 910 819 814 b 919 682 885 699 897 681 b 947 731 942 685 947 703 b 938 910 946 813 942 869 b 894 983 932 968 921 983 b 831 967 872 983 863 967 b 658 986 790 967 751 986 b 74 463 361 986 115 757 b 492 -14 36 192 190 -14 z "},"Ğ":{"ha":1026,"x_min":0,"x_max":0,"o":"m 651 1051 b 844 1207 756 1051 829 1124 b 832 1238 849 1226 843 1238 b 810 1222 824 1238 821 1233 b 665 1149 771 1175 728 1149 b 544 1222 604 1149 568 1176 b 525 1238 538 1233 532 1238 b 503 1207 513 1238 504 1226 b 651 1051 496 1126 540 1051 z m 492 -14 b 899 178 688 -14 888 90 l 917 321 b 988 464 933 447 981 415 b 943 492 990 485 969 492 l 736 492 b 664 464 686 492 667 485 b 790 319 656 407 806 438 l 769 172 b 535 65 760 106 638 65 b 217 535 300 65 181 268 b 596 910 246 726 390 910 b 867 731 767 910 819 814 b 919 682 885 699 897 681 b 947 731 942 685 947 703 b 938 910 946 813 942 869 b 894 983 932 968 921 983 b 831 967 872 983 863 967 b 658 986 790 967 751 986 b 74 463 361 986 115 757 b 492 -14 36 192 190 -14 z "},"Ġ":{"ha":1026,"x_min":0,"x_max":0,"o":"m 615 1067 b 736 1165 669 1063 732 1117 b 674 1238 738 1200 711 1235 b 553 1136 618 1244 556 1186 b 615 1067 550 1097 578 1069 z m 492 -14 b 899 178 688 -14 888 90 l 917 321 b 988 464 933 447 981 415 b 943 492 990 485 969 492 l 736 492 b 664 464 686 492 667 485 b 790 319 656 407 806 438 l 769 172 b 535 65 760 106 638 65 b 217 535 300 65 181 268 b 596 910 246 726 390 910 b 867 731 767 910 819 814 b 919 682 885 699 897 681 b 947 731 942 685 947 703 b 938 910 946 813 942 869 b 894 983 932 968 921 983 b 831 967 872 983 863 967 b 658 986 790 967 751 986 b 74 463 361 986 115 757 b 492 -14 36 192 190 -14 z "},"H":{"ha":1113,"x_min":0,"x_max":0,"o":"m 253 0 b 325 28 301 0 322 7 b 264 133 331 71 267 56 b 267 176 264 147 265 163 l 299 418 b 583 486 308 486 308 486 b 835 418 844 486 844 486 l 801 176 b 790 133 800 163 796 147 b 697 28 768 57 703 71 b 763 0 694 7 715 0 l 915 0 b 988 28 965 0 986 7 b 926 133 993 71 931 56 b 929 176 926 147 928 163 l 1015 796 b 1026 839 1017 810 1021 825 b 1119 944 1049 917 1114 901 b 1054 972 1122 965 1101 972 l 901 972 b 829 944 851 972 831 965 b 890 839 824 901 886 917 b 888 796 890 825 889 810 l 863 615 b 594 547 853 547 853 547 b 328 615 318 547 318 547 l 353 796 b 364 839 354 810 358 825 b 457 944 385 917 450 901 b 392 972 458 965 438 972 l 238 972 b 167 944 189 972 168 965 b 226 839 160 901 224 917 b 224 796 226 825 225 810 l 139 176 b 126 133 136 163 132 147 b 33 28 106 57 40 71 b 99 0 32 7 53 0 z "},"Ħ":{"ha":1113,"x_min":0,"x_max":0,"o":"m 1026 839 b 1119 944 1049 917 1114 901 b 1054 972 1122 965 1101 972 l 901 972 b 829 944 851 972 831 965 b 890 839 824 901 886 917 b 888 796 890 825 889 810 l 882 751 l 347 751 l 353 796 b 364 839 354 810 358 825 b 457 944 385 917 450 901 b 392 972 458 965 438 972 l 238 972 b 167 944 189 972 168 965 b 226 839 160 901 224 917 b 224 796 226 825 225 810 l 218 751 l 153 751 b 126 725 133 751 126 743 l 126 718 b 153 690 126 700 133 690 l 210 690 l 139 176 b 126 133 136 163 132 147 b 33 28 106 57 40 71 b 99 0 32 7 53 0 l 253 0 b 325 28 301 0 322 7 b 264 133 331 71 267 56 b 267 176 264 147 265 163 l 299 418 b 583 486 308 486 308 486 b 835 418 844 486 844 486 l 801 176 b 790 133 800 163 796 147 b 697 28 768 57 703 71 b 763 0 694 7 715 0 l 915 0 b 988 28 965 0 986 7 b 926 133 993 71 931 56 b 929 176 926 147 928 163 l 1000 690 l 1086 690 b 1113 718 1106 690 1113 700 l 1113 725 b 1086 751 1113 743 1106 751 l 1010 751 l 1015 796 b 1026 839 1017 810 1021 825 z m 863 615 b 594 547 853 547 853 547 b 328 615 318 547 318 547 l 338 690 l 872 690 z "},"I":{"ha":449,"x_min":0,"x_max":0,"o":"m 253 0 b 325 28 301 0 322 7 b 264 133 331 71 267 56 b 267 176 264 147 265 163 l 353 796 b 364 839 354 810 358 825 b 457 944 385 917 450 901 b 392 972 458 965 438 972 l 238 972 b 167 944 189 972 168 965 b 226 839 160 901 224 917 b 224 796 226 825 225 810 l 139 176 b 126 133 136 163 132 147 b 33 28 106 57 40 71 b 99 0 32 7 53 0 z "},"Í":{"ha":449,"x_min":0,"x_max":0,"o":"m 263 1060 b 485 1179 326 1044 471 1118 b 444 1253 494 1215 472 1244 b 329 1185 408 1263 378 1231 b 242 1085 283 1139 244 1100 b 263 1060 239 1075 246 1064 z m 253 0 b 325 28 301 0 322 7 b 264 133 331 71 267 56 b 267 176 264 147 265 163 l 353 796 b 364 839 354 810 358 825 b 457 944 385 917 450 901 b 392 972 458 965 438 972 l 238 972 b 167 944 189 972 168 965 b 226 839 160 901 224 917 b 224 796 226 825 225 810 l 139 176 b 126 133 136 163 132 147 b 33 28 106 57 40 71 b 99 0 32 7 53 0 z "},"Î":{"ha":449,"x_min":0,"x_max":0,"o":"m 165 1046 b 342 1110 200 1043 296 1081 b 501 1046 378 1081 464 1043 b 519 1064 517 1047 519 1056 b 457 1147 519 1078 489 1108 b 356 1225 399 1215 396 1225 b 236 1146 319 1225 307 1208 b 150 1064 192 1108 156 1078 b 165 1046 149 1056 150 1047 z m 253 0 b 325 28 301 0 322 7 b 264 133 331 71 267 56 b 267 176 264 147 265 163 l 353 796 b 364 839 354 810 358 825 b 457 944 385 917 450 901 b 392 972 458 965 438 972 l 238 972 b 167 944 189 972 168 965 b 226 839 160 901 224 917 b 224 796 226 825 225 810 l 139 176 b 126 133 136 163 132 147 b 33 28 106 57 40 71 b 99 0 32 7 53 0 z "},"Ï":{"ha":449,"x_min":0,"x_max":0,"o":"m 206 1078 b 293 1156 250 1078 293 1111 b 228 1219 293 1193 265 1219 b 146 1133 182 1219 146 1175 b 206 1078 146 1099 172 1078 z m 407 1078 b 494 1156 450 1078 494 1111 b 428 1219 494 1193 467 1219 b 346 1133 383 1219 346 1175 b 407 1078 346 1099 372 1078 z m 253 0 b 325 28 301 0 322 7 b 264 133 331 71 267 56 b 267 176 264 147 265 163 l 353 796 b 364 839 354 810 358 825 b 457 944 385 917 450 901 b 392 972 458 965 438 972 l 238 972 b 167 944 189 972 168 965 b 226 839 160 901 224 917 b 224 796 226 825 225 810 l 139 176 b 126 133 136 163 132 147 b 33 28 106 57 40 71 b 99 0 32 7 53 0 z "},"İ":{"ha":449,"x_min":0,"x_max":0,"o":"m 321 1065 b 442 1164 375 1061 438 1115 b 379 1236 443 1199 417 1233 b 258 1135 324 1243 261 1185 b 321 1065 256 1096 283 1068 z m 253 0 b 325 28 301 0 322 7 b 264 133 331 71 267 56 b 267 176 264 147 265 163 l 353 796 b 364 839 354 810 358 825 b 457 944 385 917 450 901 b 392 972 458 965 438 972 l 238 972 b 167 944 189 972 168 965 b 226 839 160 901 224 917 b 224 796 226 825 225 810 l 139 176 b 126 133 136 163 132 147 b 33 28 106 57 40 71 b 99 0 32 7 53 0 z "},"Ì":{"ha":449,"x_min":0,"x_max":0,"o":"m 388 1060 b 408 1085 404 1064 411 1075 b 321 1185 406 1100 367 1139 b 206 1253 272 1231 242 1263 b 165 1179 178 1244 156 1215 b 388 1060 179 1118 324 1044 z m 253 0 b 325 28 301 0 322 7 b 264 133 331 71 267 56 b 267 176 264 147 265 163 l 353 796 b 364 839 354 810 358 825 b 457 944 385 917 450 901 b 392 972 458 965 438 972 l 238 972 b 167 944 189 972 168 965 b 226 839 160 901 224 917 b 224 796 226 825 225 810 l 139 176 b 126 133 136 163 132 147 b 33 28 106 57 40 71 b 99 0 32 7 53 0 z "},"Ī":{"ha":449,"x_min":0,"x_max":0,"o":"m 461 1076 b 507 1113 500 1076 504 1086 b 471 1146 510 1136 508 1146 l 156 1146 b 111 1111 118 1146 114 1136 b 146 1076 108 1086 108 1076 z m 253 0 b 325 28 301 0 322 7 b 264 133 331 71 267 56 b 267 176 264 147 265 163 l 353 796 b 364 839 354 810 358 825 b 457 944 385 917 450 901 b 392 972 458 965 438 972 l 238 972 b 167 944 189 972 168 965 b 226 839 160 901 224 917 b 224 796 226 825 225 810 l 139 176 b 126 133 136 163 132 147 b 33 28 106 57 40 71 b 99 0 32 7 53 0 z "},"Į":{"ha":449,"x_min":0,"x_max":0,"o":"m 238 972 b 167 944 189 972 168 965 b 226 839 160 901 224 917 b 224 796 226 825 225 810 l 139 176 b 126 133 136 163 132 147 b 33 28 106 57 40 71 b 99 0 32 7 53 0 l 249 0 b 144 -144 186 -42 144 -89 b 279 -254 144 -215 207 -254 b 389 -215 314 -254 360 -243 b 369 -190 404 -201 397 -178 b 313 -203 353 -197 329 -203 b 232 -128 260 -203 232 -174 b 301 4 232 -92 251 -46 b 325 28 317 8 324 17 b 264 133 331 71 267 56 b 267 176 264 147 265 163 l 353 796 b 364 839 354 810 358 825 b 457 944 385 917 450 901 b 392 972 458 965 438 972 z "},"J":{"ha":739,"x_min":0,"x_max":0,"o":"m 247 -11 b 604 392 468 -11 569 132 l 660 796 b 672 839 663 810 667 825 b 765 944 693 917 758 901 b 700 972 767 965 746 972 l 546 972 b 474 944 497 972 476 965 b 535 839 468 901 532 917 b 532 796 535 825 533 810 l 471 361 b 276 57 446 176 385 57 b 157 219 186 57 158 126 b 96 289 156 257 139 289 b 21 214 58 289 28 261 b 247 -11 4 106 74 -11 z "},"K":{"ha":942,"x_min":0,"x_max":0,"o":"m 783 972 b 732 943 756 972 735 965 b 731 833 725 896 819 908 l 308 488 l 351 794 b 456 943 367 908 449 893 b 390 971 458 965 436 971 l 238 971 b 165 943 188 971 168 965 b 224 794 157 889 240 921 l 138 178 b 33 29 121 64 40 79 b 99 1 31 8 51 1 l 251 1 b 325 29 300 1 321 8 b 265 178 331 83 247 51 l 296 399 l 571 626 l 710 151 b 665 32 736 65 669 68 b 731 0 661 7 685 0 l 882 0 b 940 28 917 0 936 7 b 850 150 946 72 881 51 l 676 711 l 825 833 b 990 944 929 921 983 896 b 925 972 993 965 971 972 z "},"L":{"ha":788,"x_min":0,"x_max":0,"o":"m 575 0 b 693 49 664 0 679 15 b 732 186 710 88 722 131 b 717 232 736 211 738 232 b 657 179 699 232 683 218 b 461 64 607 104 581 64 l 371 63 b 258 131 268 61 251 82 l 353 794 b 363 838 354 810 358 824 b 456 943 385 915 450 900 b 392 971 458 965 438 971 l 238 971 b 165 943 189 971 168 965 b 226 838 158 900 224 917 b 224 794 226 824 225 810 l 140 190 b 126 133 136 163 132 147 b 33 28 106 57 40 71 b 99 0 31 7 53 0 z "},"Ĺ":{"ha":788,"x_min":0,"x_max":0,"o":"m 272 1060 b 494 1179 336 1044 481 1118 b 454 1253 504 1215 482 1244 b 339 1185 418 1263 388 1231 b 251 1085 293 1139 254 1100 b 272 1060 249 1075 256 1064 z m 575 0 b 693 49 664 0 679 15 b 732 186 710 88 722 131 b 717 232 736 211 738 232 b 657 179 699 232 683 218 b 461 64 607 104 581 64 l 371 63 b 258 131 268 61 251 82 l 353 794 b 363 838 354 810 358 824 b 456 943 385 915 450 900 b 392 971 458 965 438 971 l 238 971 b 165 943 189 971 168 965 b 226 838 158 900 224 917 b 224 794 226 824 225 810 l 140 190 b 126 133 136 163 132 147 b 33 28 106 57 40 71 b 99 0 31 7 53 0 z "},"Ľ":{"ha":788,"x_min":0,"x_max":0,"o":"m 528 674 b 671 913 565 674 664 861 b 628 974 676 956 656 974 b 560 907 597 974 569 953 b 511 697 554 888 524 747 b 528 674 508 683 514 674 z m 575 0 b 693 49 664 0 679 15 b 732 186 710 88 722 131 b 717 232 736 211 738 232 b 657 179 699 232 683 218 b 461 64 607 104 581 64 l 371 63 b 258 131 268 61 251 82 l 353 794 b 363 838 354 810 358 824 b 456 943 385 915 450 900 b 392 971 458 965 438 971 l 238 971 b 165 943 189 971 168 965 b 226 838 158 900 224 917 b 224 794 226 824 225 810 l 140 190 b 126 133 136 163 132 147 b 33 28 106 57 40 71 b 99 0 31 7 53 0 z "},"Ł":{"ha":788,"x_min":0,"x_max":0,"o":"m 717 232 b 657 179 699 232 683 218 b 461 64 607 104 581 64 l 371 63 b 258 131 268 61 251 82 l 310 492 l 433 563 b 443 601 453 574 451 586 b 406 613 433 619 422 624 l 319 564 l 353 794 b 363 838 354 810 358 824 b 456 943 385 915 450 900 b 392 971 458 965 438 971 l 238 971 b 165 943 189 971 168 965 b 226 838 158 900 224 917 b 224 794 226 824 225 810 l 181 483 l 76 424 b 68 386 58 413 57 401 b 104 372 76 368 88 363 l 171 411 l 140 190 b 126 133 136 163 132 147 b 33 28 106 57 40 71 b 99 0 31 7 53 0 l 575 0 b 693 49 664 0 679 15 b 732 186 710 88 722 131 b 717 232 736 211 738 232 z "},"M":{"ha":1253,"x_min":0,"x_max":0,"o":"m 183 0 b 250 29 226 0 246 6 b 201 167 257 75 182 56 l 313 793 l 508 76 b 553 61 513 63 526 56 b 593 90 574 67 583 75 l 1019 800 l 949 175 b 851 31 936 63 857 79 b 915 0 847 7 869 0 l 1067 0 b 1133 31 1110 0 1129 7 b 1075 175 1139 81 1063 61 l 1143 814 b 1229 946 1154 918 1222 904 b 1179 972 1231 965 1218 972 l 1075 972 b 1033 946 1057 972 1043 964 l 603 224 l 404 946 b 368 972 397 964 386 972 l 257 972 b 200 946 218 972 203 965 b 249 814 194 908 265 908 l 133 167 b 33 29 113 56 39 75 b 90 0 29 6 50 0 z "},"N":{"ha":1046,"x_min":0,"x_max":0,"o":"m 149 0 b 215 29 192 0 211 6 b 160 167 221 75 144 56 l 243 789 l 767 119 b 792 33 790 90 796 63 b 815 0 789 7 799 0 l 829 0 b 857 33 844 0 854 8 l 965 806 b 1058 943 981 917 1053 899 b 1001 972 1063 967 1042 972 l 908 972 b 842 943 865 972 846 967 b 896 806 836 897 911 917 l 822 265 l 293 950 b 253 972 282 965 271 972 l 190 972 b 117 944 143 972 121 965 b 178 783 110 893 199 935 l 92 167 b -1 29 75 56 4 75 b 54 0 -6 6 15 0 z "},"Ń":{"ha":1046,"x_min":0,"x_max":0,"o":"m 539 1060 b 761 1179 603 1044 747 1118 b 721 1253 771 1215 749 1244 b 606 1185 685 1263 654 1231 b 518 1085 560 1139 521 1100 b 539 1060 515 1075 522 1064 z m 149 0 b 215 29 192 0 211 6 b 160 167 221 75 144 56 l 243 789 l 767 119 b 792 33 790 90 796 63 b 815 0 789 7 799 0 l 829 0 b 857 33 844 0 854 8 l 965 806 b 1058 943 981 917 1053 899 b 1001 972 1063 967 1042 972 l 908 972 b 842 943 865 972 846 967 b 896 806 836 897 911 917 l 822 265 l 293 950 b 253 972 282 965 271 972 l 190 972 b 117 944 143 972 121 965 b 178 783 110 893 199 935 l 92 167 b -1 29 75 56 4 75 b 54 0 -6 6 15 0 z "},"Ň":{"ha":1046,"x_min":0,"x_max":0,"o":"m 608 1046 b 729 1125 649 1046 651 1057 b 817 1207 774 1163 813 1193 b 801 1226 818 1217 817 1225 b 625 1161 767 1229 671 1192 b 467 1226 589 1192 503 1229 b 447 1207 450 1225 447 1217 b 508 1125 447 1193 476 1164 b 608 1046 563 1064 571 1046 z m 149 0 b 215 29 192 0 211 6 b 160 167 221 75 144 56 l 243 789 l 767 119 b 792 33 790 90 796 63 b 815 0 789 7 799 0 l 829 0 b 857 33 844 0 854 8 l 965 806 b 1058 943 981 917 1053 899 b 1001 972 1063 967 1042 972 l 908 972 b 842 943 865 972 846 967 b 896 806 836 897 911 917 l 822 265 l 293 950 b 253 972 282 965 271 972 l 190 972 b 117 944 143 972 121 965 b 178 783 110 893 199 935 l 92 167 b -1 29 75 56 4 75 b 54 0 -6 6 15 0 z "},"Ñ":{"ha":1046,"x_min":0,"x_max":0,"o":"m 704 1057 b 813 1142 765 1057 806 1093 b 778 1178 819 1193 782 1213 b 725 1138 774 1151 757 1138 b 504 1196 676 1138 593 1196 b 397 1113 444 1196 404 1161 b 433 1075 390 1061 428 1042 b 488 1115 436 1103 454 1115 b 704 1057 556 1115 638 1057 z m 149 0 b 215 29 192 0 211 6 b 160 167 221 75 144 56 l 243 789 l 767 119 b 792 33 790 90 796 63 b 815 0 789 7 799 0 l 829 0 b 857 33 844 0 854 8 l 965 806 b 1058 943 981 917 1053 899 b 1001 972 1063 967 1042 972 l 908 972 b 842 943 865 972 846 967 b 896 806 836 897 911 917 l 822 265 l 293 950 b 253 972 282 965 271 972 l 190 972 b 117 944 143 972 121 965 b 178 783 110 893 199 935 l 92 167 b -1 29 75 56 4 75 b 54 0 -6 6 15 0 z "},"O":{"ha":1078,"x_min":0,"x_max":0,"o":"m 485 -10 b 1046 576 813 -21 1046 249 b 635 983 1046 790 900 983 b 72 408 319 983 72 721 b 485 -10 72 160 264 -4 z m 535 60 b 213 424 335 60 213 201 b 613 917 213 683 378 917 b 907 558 797 917 907 775 b 535 60 907 308 771 60 z "},"Ó":{"ha":1078,"x_min":0,"x_max":0,"o":"m 583 1060 b 806 1179 647 1044 792 1118 b 765 1253 815 1215 793 1244 b 650 1185 729 1263 699 1231 b 563 1085 604 1139 565 1100 b 583 1060 560 1075 567 1064 z m 485 -10 b 1046 576 813 -21 1046 249 b 635 983 1046 790 900 983 b 72 408 319 983 72 721 b 485 -10 72 160 264 -4 z m 535 60 b 213 424 335 60 213 201 b 613 917 213 683 378 917 b 907 558 797 917 907 775 b 535 60 907 308 771 60 z "},"Ô":{"ha":1078,"x_min":0,"x_max":0,"o":"m 485 1046 b 661 1110 519 1043 615 1081 b 821 1046 697 1081 783 1043 b 839 1064 836 1047 839 1056 b 776 1147 839 1078 808 1108 b 675 1225 718 1215 715 1225 b 556 1146 639 1225 626 1208 b 469 1064 511 1108 475 1078 b 485 1046 468 1056 469 1047 z m 485 -10 b 1046 576 813 -21 1046 249 b 635 983 1046 790 900 983 b 72 408 319 983 72 721 b 485 -10 72 160 264 -4 z m 535 60 b 213 424 335 60 213 201 b 613 917 213 683 378 917 b 907 558 797 917 907 775 b 535 60 907 308 771 60 z "},"Ö":{"ha":1078,"x_min":0,"x_max":0,"o":"m 526 1078 b 614 1156 571 1078 614 1111 b 549 1219 614 1193 586 1219 b 467 1133 503 1219 467 1175 b 526 1078 467 1099 493 1078 z m 728 1078 b 815 1156 771 1078 815 1111 b 749 1219 815 1193 788 1219 b 667 1133 704 1219 667 1175 b 728 1078 667 1099 693 1078 z m 485 -10 b 1046 576 813 -21 1046 249 b 635 983 1046 790 900 983 b 72 408 319 983 72 721 b 485 -10 72 160 264 -4 z m 535 60 b 213 424 335 60 213 201 b 613 917 213 683 378 917 b 907 558 797 917 907 775 b 535 60 907 308 771 60 z "},"Ò":{"ha":1078,"x_min":0,"x_max":0,"o":"m 708 1060 b 729 1085 725 1064 732 1075 b 642 1185 726 1100 688 1139 b 526 1253 593 1231 563 1263 b 486 1179 499 1244 476 1215 b 708 1060 500 1118 644 1044 z m 485 -10 b 1046 576 813 -21 1046 249 b 635 983 1046 790 900 983 b 72 408 319 983 72 721 b 485 -10 72 160 264 -4 z m 535 60 b 213 424 335 60 213 201 b 613 917 213 683 378 917 b 907 558 797 917 907 775 b 535 60 907 308 771 60 z "},"Ő":{"ha":1078,"x_min":0,"x_max":0,"o":"m 449 1063 b 665 1185 518 1063 665 1125 b 604 1238 665 1211 635 1238 b 500 1178 575 1238 543 1211 b 403 1081 458 1144 403 1097 b 449 1063 403 1069 421 1063 z m 715 1060 b 936 1171 783 1057 933 1111 b 878 1226 938 1197 910 1225 b 772 1172 850 1228 817 1204 b 669 1081 729 1142 671 1097 b 715 1060 668 1069 686 1061 z m 485 -10 b 1046 576 813 -21 1046 249 b 635 983 1046 790 900 983 b 72 408 319 983 72 721 b 485 -10 72 160 264 -4 z m 535 60 b 213 424 335 60 213 201 b 613 917 213 683 378 917 b 907 558 797 917 907 775 b 535 60 907 308 771 60 z "},"Ō":{"ha":1078,"x_min":0,"x_max":0,"o":"m 782 1076 b 828 1113 821 1076 825 1086 b 792 1146 831 1136 829 1146 l 476 1146 b 432 1111 439 1146 435 1136 b 467 1076 429 1086 429 1076 z m 485 -10 b 1046 576 813 -21 1046 249 b 635 983 1046 790 900 983 b 72 408 319 983 72 721 b 485 -10 72 160 264 -4 z m 535 60 b 213 424 335 60 213 201 b 613 917 213 683 378 917 b 907 558 797 917 907 775 b 535 60 907 308 771 60 z "},"Ø":{"ha":1078,"x_min":0,"x_max":0,"o":"m 933 1053 b 926 1099 944 1074 946 1086 b 882 1088 906 1111 892 1106 l 804 953 b 635 983 754 972 699 983 b 72 408 319 983 72 721 b 281 46 72 243 158 114 l 215 -67 b 222 -112 204 -86 206 -99 b 267 -101 242 -125 254 -122 l 336 19 b 485 -10 383 1 433 -8 b 1046 576 813 -21 1046 249 b 860 925 1046 719 981 851 z m 213 424 b 613 917 213 683 378 917 b 761 878 669 917 719 903 l 328 129 b 213 424 254 192 213 294 z m 535 60 b 381 94 476 60 424 72 l 810 840 b 907 558 872 776 907 679 b 535 60 907 308 771 60 z "},"Õ":{"ha":1078,"x_min":0,"x_max":0,"o":"m 749 1057 b 857 1142 810 1057 850 1093 b 822 1178 864 1193 826 1213 b 769 1138 818 1151 801 1138 b 549 1196 721 1138 638 1196 b 442 1113 489 1196 449 1161 b 478 1075 435 1061 472 1042 b 532 1115 481 1103 499 1115 b 749 1057 600 1115 682 1057 z m 485 -10 b 1046 576 813 -21 1046 249 b 635 983 1046 790 900 983 b 72 408 319 983 72 721 b 485 -10 72 160 264 -4 z m 535 60 b 213 424 335 60 213 201 b 613 917 213 683 378 917 b 907 558 797 917 907 775 b 535 60 907 308 771 60 z "},"Œ":{"ha":1601,"x_min":0,"x_max":0,"o":"m 1599 783 b 1585 931 1600 846 1593 893 b 1490 974 1578 967 1569 974 l 1011 972 b 969 936 989 972 972 958 l 956 842 b 635 983 886 926 778 983 b 72 408 319 983 72 721 b 485 -10 72 160 264 -4 b 854 122 631 -15 758 36 l 844 54 b 890 0 840 24 861 0 l 1367 0 b 1486 49 1457 0 1474 15 b 1529 197 1503 88 1515 131 b 1515 244 1533 222 1535 242 b 1453 190 1496 249 1481 238 b 1251 64 1403 103 1372 64 l 1144 63 b 994 131 1004 61 989 82 l 1044 482 b 1192 550 1054 549 1094 550 b 1390 425 1350 549 1338 411 b 1413 494 1411 431 1417 442 l 1403 613 b 1372 657 1400 644 1389 657 b 1200 613 1331 657 1349 613 b 1074 681 1103 613 1064 614 l 1096 846 b 1264 910 1101 890 1125 910 l 1329 910 b 1525 778 1440 910 1492 865 b 1576 732 1540 742 1550 726 b 1599 783 1597 738 1600 756 z m 535 60 b 213 424 335 60 213 201 b 613 917 213 683 378 917 b 907 558 797 917 907 775 b 535 60 907 308 771 60 z "},"P":{"ha":890,"x_min":0,"x_max":0,"o":"m 253 1 b 325 29 301 1 322 8 b 267 171 332 79 251 57 b 281 282 271 207 276 244 b 313 310 285 308 285 310 l 414 310 b 879 629 693 310 851 426 b 469 972 906 817 769 972 l 236 972 b 164 944 189 972 167 965 b 222 782 154 890 246 940 l 139 178 b 33 29 119 47 42 79 b 100 1 32 8 53 1 z m 421 371 b 299 411 308 371 294 385 l 364 874 b 460 911 368 903 382 911 b 736 603 651 911 763 781 b 421 371 711 426 585 371 z "},"Þ":{"ha":860,"x_min":0,"x_max":0,"o":"m 253 1 b 325 29 301 1 322 8 b 264 135 331 72 260 57 b 306 228 267 192 269 228 l 404 228 b 828 486 668 228 803 317 b 463 793 856 685 703 796 l 351 792 b 439 947 371 921 433 906 b 382 972 440 965 426 972 l 246 972 b 182 947 199 972 183 965 b 224 790 176 908 240 910 l 139 178 b 126 135 136 164 132 149 b 33 29 106 58 40 72 b 99 1 32 8 53 1 z m 394 289 b 286 328 292 289 282 301 l 339 694 b 407 732 343 724 356 733 b 688 486 588 729 711 658 b 394 289 667 347 554 289 z "},"Q":{"ha":1078,"x_min":0,"x_max":0,"o":"m 976 -42 b 875 -78 944 -42 949 -78 b 475 -10 747 -78 603 -43 l 485 -10 b 1046 576 813 -21 1046 249 b 635 983 1046 790 900 983 b 72 408 319 983 72 721 b 294 38 72 236 164 104 b 154 63 236 53 188 63 b 68 -4 99 63 68 35 b 90 -35 68 -19 76 -35 b 140 -11 106 -35 108 -11 b 401 -89 185 -11 285 -46 b 835 -212 553 -146 729 -212 b 999 -82 957 -212 999 -149 b 976 -42 999 -54 986 -42 z m 613 917 b 907 558 797 917 907 775 b 535 60 907 308 771 60 b 213 424 335 60 213 201 b 613 917 213 683 378 917 z "},"R":{"ha":915,"x_min":0,"x_max":0,"o":"m 251 0 b 325 28 300 0 321 7 b 264 133 331 71 267 56 b 265 176 264 147 264 163 l 292 356 b 422 388 297 404 336 400 b 550 322 510 376 531 369 l 619 151 b 578 32 653 69 585 68 b 642 0 575 7 597 0 l 792 0 b 850 28 826 0 847 7 b 761 146 857 72 797 54 l 658 400 b 892 665 790 443 872 531 b 492 972 915 826 799 972 l 238 972 b 164 944 190 972 167 965 b 228 839 157 901 226 917 b 222 782 228 825 226 810 l 138 176 b 128 133 136 163 133 147 b 33 28 106 57 40 71 b 99 0 31 7 51 0 z m 510 444 b 314 517 446 446 306 458 l 364 874 b 479 910 368 903 386 911 b 751 647 679 908 771 788 b 510 444 731 513 635 442 z "},"Ŕ":{"ha":915,"x_min":0,"x_max":0,"o":"m 497 1060 b 719 1179 561 1044 706 1118 b 679 1253 729 1215 707 1244 b 564 1185 643 1263 613 1231 b 476 1085 518 1139 479 1100 b 497 1060 474 1075 481 1064 z m 251 0 b 325 28 300 0 321 7 b 264 133 331 71 267 56 b 265 176 264 147 264 163 l 292 356 b 422 388 297 404 336 400 b 550 322 510 376 531 369 l 619 151 b 578 32 653 69 585 68 b 642 0 575 7 597 0 l 792 0 b 850 28 826 0 847 7 b 761 146 857 72 797 54 l 658 400 b 892 665 790 443 872 531 b 492 972 915 826 799 972 l 238 972 b 164 944 190 972 167 965 b 228 839 157 901 226 917 b 222 782 228 825 226 810 l 138 176 b 128 133 136 163 133 147 b 33 28 106 57 40 71 b 99 0 31 7 51 0 z m 510 444 b 314 517 446 446 306 458 l 364 874 b 479 910 368 903 386 911 b 751 647 679 908 771 788 b 510 444 731 513 635 442 z "},"Ř":{"ha":915,"x_min":0,"x_max":0,"o":"m 553 1046 b 674 1125 593 1046 596 1057 b 761 1207 718 1163 757 1193 b 746 1226 763 1217 761 1225 b 569 1161 711 1229 615 1192 b 411 1226 533 1192 447 1229 b 392 1207 394 1225 392 1217 b 453 1125 392 1193 421 1164 b 553 1046 507 1064 515 1046 z m 251 0 b 325 28 300 0 321 7 b 264 133 331 71 267 56 b 265 176 264 147 264 163 l 292 356 b 422 388 297 404 336 400 b 550 322 510 376 531 369 l 619 151 b 578 32 653 69 585 68 b 642 0 575 7 597 0 l 792 0 b 850 28 826 0 847 7 b 761 146 857 72 797 54 l 658 400 b 892 665 790 443 872 531 b 492 972 915 826 799 972 l 238 972 b 164 944 190 972 167 965 b 228 839 157 901 226 917 b 222 782 228 825 226 810 l 138 176 b 128 133 136 163 133 147 b 33 28 106 57 40 71 b 99 0 31 7 51 0 z m 510 444 b 314 517 446 446 306 458 l 364 874 b 479 910 368 903 386 911 b 751 647 679 908 771 788 b 510 444 731 513 635 442 z "},"S":{"ha":818,"x_min":0,"x_max":0,"o":"m 357 -15 b 743 256 540 -14 725 79 b 476 561 761 421 614 489 b 272 788 354 626 257 681 b 465 918 285 872 363 918 b 689 751 589 918 656 822 b 738 707 703 721 718 707 b 765 753 760 707 767 726 b 756 910 764 821 760 869 b 718 983 750 968 744 983 b 654 968 696 983 686 968 b 504 983 614 968 567 983 b 146 750 292 983 163 879 b 394 439 121 581 265 507 b 604 206 506 382 628 322 b 381 53 588 119 515 51 b 132 258 218 53 158 165 b 86 306 119 292 106 306 b 57 257 64 306 58 285 b 60 63 54 167 58 107 b 99 -14 61 4 72 -14 b 164 4 121 -14 132 4 b 357 -15 206 4 251 -15 z "},"":{"ha":818,"x_min":0,"x_max":0,"o":"m 357 -15 b 743 256 540 -14 725 79 b 476 561 761 421 614 489 b 272 788 354 626 257 681 b 465 918 285 872 363 918 b 689 751 589 918 656 822 b 738 707 703 721 718 707 b 765 753 760 707 767 726 b 756 910 764 821 760 869 b 718 983 750 968 744 983 b 654 968 696 983 686 968 b 504 983 614 968 567 983 b 146 750 292 983 163 879 b 394 439 121 581 265 507 b 604 206 506 382 628 322 b 381 53 588 119 515 51 b 132 258 218 53 158 165 b 86 306 119 292 106 306 b 57 257 64 306 58 285 b 60 63 54 167 58 107 b 99 -14 61 4 72 -14 b 164 4 121 -14 132 4 b 357 -15 206 4 251 -15 z "},"Ś":{"ha":818,"x_min":0,"x_max":0,"o":"m 425 1072 b 647 1192 489 1057 633 1131 b 607 1265 657 1228 635 1257 b 492 1197 571 1275 540 1243 b 404 1097 446 1151 407 1113 b 425 1072 401 1088 408 1076 z m 357 -15 b 743 256 540 -14 725 79 b 476 561 761 421 614 489 b 272 788 354 626 257 681 b 465 918 285 872 363 918 b 689 751 589 918 656 822 b 738 707 703 721 718 707 b 765 753 760 707 767 726 b 756 910 764 821 760 869 b 718 983 750 968 744 983 b 654 968 696 983 686 968 b 504 983 614 968 567 983 b 146 750 292 983 163 879 b 394 439 121 581 265 507 b 604 206 506 382 628 322 b 381 53 588 119 515 51 b 132 258 218 53 158 165 b 86 306 119 292 106 306 b 57 257 64 306 58 285 b 60 63 54 167 58 107 b 99 -14 61 4 72 -14 b 164 4 121 -14 132 4 b 357 -15 206 4 251 -15 z "},"Š":{"ha":818,"x_min":0,"x_max":0,"o":"m 493 1058 b 614 1138 533 1058 536 1069 b 701 1219 658 1175 697 1206 b 686 1239 703 1229 701 1238 b 510 1174 651 1242 556 1204 b 351 1239 474 1204 388 1242 b 332 1219 335 1238 332 1229 b 393 1138 332 1206 361 1176 b 493 1058 447 1076 456 1058 z m 357 -15 b 743 256 540 -14 725 79 b 476 561 761 421 614 489 b 272 788 354 626 257 681 b 465 918 285 872 363 918 b 689 751 589 918 656 822 b 738 707 703 721 718 707 b 765 753 760 707 767 726 b 756 910 764 821 760 869 b 718 983 750 968 744 983 b 654 968 696 983 686 968 b 504 983 614 968 567 983 b 146 750 292 983 163 879 b 394 439 121 581 265 507 b 604 206 506 382 628 322 b 381 53 588 119 515 51 b 132 258 218 53 158 165 b 86 306 119 292 106 306 b 57 257 64 306 58 285 b 60 63 54 167 58 107 b 99 -14 61 4 72 -14 b 164 4 121 -14 132 4 b 357 -15 206 4 251 -15 z "},"Ş":{"ha":818,"x_min":0,"x_max":0,"o":"m 465 918 b 689 751 589 918 656 822 b 738 707 703 721 718 707 b 765 753 760 707 767 726 b 756 910 764 821 760 869 b 718 983 750 968 744 983 b 654 968 696 983 686 968 b 504 983 614 968 567 983 b 146 750 292 983 163 879 b 394 439 121 581 265 507 b 604 206 506 382 628 322 b 381 53 588 119 515 51 b 132 258 218 53 158 165 b 86 306 119 292 106 306 b 57 257 64 306 58 285 b 60 63 54 167 58 107 b 99 -14 61 4 72 -14 b 164 4 121 -14 132 4 b 324 -15 201 4 242 -11 l 282 -93 b 299 -117 275 -106 285 -114 b 393 -192 344 -128 393 -146 b 329 -250 393 -222 372 -250 b 254 -226 294 -250 274 -237 b 232 -249 235 -214 219 -233 b 344 -293 250 -271 285 -293 b 472 -183 414 -293 472 -249 b 343 -74 472 -117 414 -86 l 374 -15 b 743 256 551 -8 725 85 b 476 561 761 421 614 489 b 272 788 354 626 257 681 b 465 918 285 872 363 918 z "},"ẞ":{"ha":1638,"x_min":0,"x_max":0,"o":"m 357 -15 b 743 256 540 -14 725 79 b 476 561 761 421 614 489 b 272 788 354 626 257 681 b 465 918 285 872 363 918 b 689 751 589 918 656 822 b 738 707 703 721 718 707 b 765 753 760 707 767 726 b 756 910 764 821 760 869 b 718 983 750 968 744 983 b 654 968 696 983 686 968 b 504 983 614 968 567 983 b 146 750 292 983 163 879 b 394 439 121 581 265 507 b 604 206 506 382 628 322 b 381 53 588 119 515 51 b 132 258 218 53 158 165 b 86 306 119 292 106 306 b 57 257 64 306 58 285 b 60 63 54 167 58 107 b 99 -14 61 4 72 -14 b 164 4 121 -14 132 4 b 357 -15 206 4 251 -15 z m 1175 -15 b 1561 256 1358 -14 1543 79 b 1294 561 1579 421 1432 489 b 1090 788 1172 626 1075 681 b 1283 918 1103 872 1181 918 b 1507 751 1407 918 1474 822 b 1556 707 1521 721 1536 707 b 1583 753 1578 707 1585 726 b 1574 910 1582 821 1578 869 b 1536 983 1568 968 1563 983 b 1472 968 1514 983 1504 968 b 1322 983 1432 968 1385 983 b 964 750 1110 983 981 879 b 1213 439 939 581 1083 507 b 1422 206 1324 382 1446 322 b 1199 53 1406 119 1333 51 b 950 258 1036 53 976 165 b 904 306 938 292 924 306 b 875 257 882 306 876 285 b 878 63 872 167 876 107 b 917 -14 879 4 890 -14 b 982 4 939 -14 950 4 b 1175 -15 1024 4 1069 -15 z "},"T":{"ha":890,"x_min":0,"x_max":0,"o":"m 474 1 b 546 29 522 1 543 8 b 485 135 551 72 488 57 b 488 178 485 149 485 164 l 581 842 b 665 911 588 890 610 911 b 821 783 774 911 788 869 b 865 729 836 743 847 729 b 900 776 892 729 897 751 b 903 925 908 843 908 886 b 796 974 897 958 885 974 l 272 972 b 154 924 183 972 167 957 b 114 775 138 885 125 842 b 136 728 110 750 110 728 b 194 783 154 728 168 743 b 388 910 253 868 279 910 b 451 840 443 910 458 889 l 360 178 b 347 135 357 164 353 149 b 254 29 326 57 261 72 b 319 1 253 8 274 1 z "},"Ŧ":{"ha":890,"x_min":0,"x_max":0,"o":"m 903 925 b 796 974 897 958 885 974 l 272 972 b 154 924 183 972 167 957 b 114 775 138 885 125 842 b 136 728 110 750 110 728 b 194 783 154 728 168 743 b 388 910 253 868 279 910 b 451 840 443 910 458 889 l 407 515 l 328 515 b 288 485 299 515 290 504 b 318 453 283 464 288 453 l 397 453 l 360 178 b 347 135 357 164 353 149 b 254 29 326 57 261 72 b 319 1 253 8 274 1 l 474 1 b 546 29 522 1 543 8 b 485 135 551 72 488 57 b 488 178 485 149 485 164 l 526 453 l 618 453 b 658 485 649 453 656 464 b 628 515 661 504 657 515 l 535 515 l 581 842 b 665 911 588 890 610 911 b 821 783 774 911 788 869 b 865 729 836 743 847 729 b 900 776 892 729 897 751 b 903 925 908 843 908 886 z "},"Ť":{"ha":890,"x_min":0,"x_max":0,"o":"m 536 1046 b 657 1125 576 1046 579 1057 b 744 1207 701 1163 740 1193 b 729 1226 746 1217 744 1225 b 553 1161 694 1229 599 1192 b 394 1226 517 1192 431 1229 b 375 1207 378 1225 375 1217 b 436 1125 375 1193 404 1164 b 536 1046 490 1064 499 1046 z m 474 1 b 546 29 522 1 543 8 b 485 135 551 72 488 57 b 488 178 485 149 485 164 l 581 842 b 665 911 588 890 610 911 b 821 783 774 911 788 869 b 865 729 836 743 847 729 b 900 776 892 729 897 751 b 903 925 908 843 908 886 b 796 974 897 958 885 974 l 272 972 b 154 924 183 972 167 957 b 114 775 138 885 125 842 b 136 728 110 750 110 728 b 194 783 154 728 168 743 b 388 910 253 868 279 910 b 451 840 443 910 458 889 l 360 178 b 347 135 357 164 353 149 b 254 29 326 57 261 72 b 319 1 253 8 274 1 z "},"U":{"ha":1015,"x_min":0,"x_max":0,"o":"m 471 -14 b 897 394 724 -14 863 151 l 956 806 b 1049 943 971 917 1043 897 b 992 972 1053 967 1031 972 l 899 972 b 831 943 856 972 835 967 b 886 806 825 897 901 917 l 829 375 b 510 60 804 196 690 60 b 279 363 338 60 251 165 l 339 793 b 349 838 342 808 344 822 b 442 942 372 914 436 900 b 378 969 446 964 425 969 l 225 969 b 151 942 175 969 154 964 b 213 838 146 899 210 915 b 211 793 214 822 214 808 l 154 385 b 471 -14 119 136 236 -14 z "},"Ú":{"ha":1015,"x_min":0,"x_max":0,"o":"m 618 1060 b 840 1179 682 1044 826 1118 b 800 1253 850 1215 828 1244 b 685 1185 764 1263 733 1231 b 597 1085 639 1139 600 1100 b 618 1060 594 1075 601 1064 z m 471 -14 b 897 394 724 -14 863 151 l 956 806 b 1049 943 971 917 1043 897 b 992 972 1053 967 1031 972 l 899 972 b 831 943 856 972 835 967 b 886 806 825 897 901 917 l 829 375 b 510 60 804 196 690 60 b 279 363 338 60 251 165 l 339 793 b 349 838 342 808 344 822 b 442 942 372 914 436 900 b 378 969 446 964 425 969 l 225 969 b 151 942 175 969 154 964 b 213 838 146 899 210 915 b 211 793 214 822 214 808 l 154 385 b 471 -14 119 136 236 -14 z "},"Û":{"ha":1015,"x_min":0,"x_max":0,"o":"m 519 1046 b 696 1110 554 1043 650 1081 b 856 1046 732 1081 818 1043 b 874 1064 871 1047 874 1056 b 811 1147 874 1078 843 1108 b 710 1225 753 1215 750 1225 b 590 1146 674 1225 661 1208 b 504 1064 546 1108 510 1078 b 519 1046 503 1056 504 1047 z m 471 -14 b 897 394 724 -14 863 151 l 956 806 b 1049 943 971 917 1043 897 b 992 972 1053 967 1031 972 l 899 972 b 831 943 856 972 835 967 b 886 806 825 897 901 917 l 829 375 b 510 60 804 196 690 60 b 279 363 338 60 251 165 l 339 793 b 349 838 342 808 344 822 b 442 942 372 914 436 900 b 378 969 446 964 425 969 l 225 969 b 151 942 175 969 154 964 b 213 838 146 899 210 915 b 211 793 214 822 214 808 l 154 385 b 471 -14 119 136 236 -14 z "},"Ü":{"ha":1015,"x_min":0,"x_max":0,"o":"m 561 1078 b 649 1156 606 1078 649 1111 b 583 1219 649 1193 621 1219 b 501 1133 538 1219 501 1175 b 561 1078 501 1099 528 1078 z m 763 1078 b 850 1156 806 1078 850 1111 b 783 1219 850 1193 822 1219 b 701 1133 739 1219 701 1175 b 763 1078 701 1099 728 1078 z m 471 -14 b 897 394 724 -14 863 151 l 956 806 b 1049 943 971 917 1043 897 b 992 972 1053 967 1031 972 l 899 972 b 831 943 856 972 835 967 b 886 806 825 897 901 917 l 829 375 b 510 60 804 196 690 60 b 279 363 338 60 251 165 l 339 793 b 349 838 342 808 344 822 b 442 942 372 914 436 900 b 378 969 446 964 425 969 l 225 969 b 151 942 175 969 154 964 b 213 838 146 899 210 915 b 211 793 214 822 214 808 l 154 385 b 471 -14 119 136 236 -14 z "},"Ù":{"ha":1015,"x_min":0,"x_max":0,"o":"m 743 1060 b 764 1085 760 1064 767 1075 b 676 1185 761 1100 722 1139 b 561 1253 628 1231 597 1263 b 521 1179 533 1244 511 1215 b 743 1060 535 1118 679 1044 z m 471 -14 b 897 394 724 -14 863 151 l 956 806 b 1049 943 971 917 1043 897 b 992 972 1053 967 1031 972 l 899 972 b 831 943 856 972 835 967 b 886 806 825 897 901 917 l 829 375 b 510 60 804 196 690 60 b 279 363 338 60 251 165 l 339 793 b 349 838 342 808 344 822 b 442 942 372 914 436 900 b 378 969 446 964 425 969 l 225 969 b 151 942 175 969 154 964 b 213 838 146 899 210 915 b 211 793 214 822 214 808 l 154 385 b 471 -14 119 136 236 -14 z "},"Ű":{"ha":1015,"x_min":0,"x_max":0,"o":"m 483 1063 b 700 1185 553 1063 700 1125 b 639 1238 700 1211 669 1238 b 535 1178 610 1238 578 1211 b 438 1081 493 1144 438 1097 b 483 1063 438 1069 456 1063 z m 750 1060 b 971 1171 818 1057 968 1111 b 913 1226 972 1197 944 1225 b 807 1172 885 1228 851 1204 b 704 1081 764 1142 706 1097 b 750 1060 703 1069 721 1061 z m 471 -14 b 897 394 724 -14 863 151 l 956 806 b 1049 943 971 917 1043 897 b 992 972 1053 967 1031 972 l 899 972 b 831 943 856 972 835 967 b 886 806 825 897 901 917 l 829 375 b 510 60 804 196 690 60 b 279 363 338 60 251 165 l 339 793 b 349 838 342 808 344 822 b 442 942 372 914 436 900 b 378 969 446 964 425 969 l 225 969 b 151 942 175 969 154 964 b 213 838 146 899 210 915 b 211 793 214 822 214 808 l 154 385 b 471 -14 119 136 236 -14 z "},"Ū":{"ha":1015,"x_min":0,"x_max":0,"o":"m 817 1076 b 863 1113 856 1076 860 1086 b 826 1146 865 1136 864 1146 l 511 1146 b 467 1111 474 1146 469 1136 b 501 1076 464 1086 464 1076 z m 471 -14 b 897 394 724 -14 863 151 l 956 806 b 1049 943 971 917 1043 897 b 992 972 1053 967 1031 972 l 899 972 b 831 943 856 972 835 967 b 886 806 825 897 901 917 l 829 375 b 510 60 804 196 690 60 b 279 363 338 60 251 165 l 339 793 b 349 838 342 808 344 822 b 442 942 372 914 436 900 b 378 969 446 964 425 969 l 225 969 b 151 942 175 969 154 964 b 213 838 146 899 210 915 b 211 793 214 822 214 808 l 154 385 b 471 -14 119 136 236 -14 z "},"Ų":{"ha":1015,"x_min":0,"x_max":0,"o":"m 899 972 b 831 943 856 972 835 967 b 886 806 825 897 901 917 l 829 375 b 510 60 804 196 690 60 b 279 363 338 60 251 165 l 339 793 b 349 838 342 808 344 822 b 442 942 372 914 436 900 b 378 969 446 964 425 969 l 225 969 b 151 942 175 969 154 964 b 213 838 146 899 210 915 b 211 793 214 822 214 808 l 154 385 b 471 -14 119 136 236 -14 b 526 -11 490 -14 508 -12 b 439 -144 474 -50 439 -93 b 574 -254 439 -215 501 -254 b 683 -215 608 -254 654 -243 b 664 -190 699 -201 692 -178 b 607 -203 647 -197 624 -203 b 526 -128 554 -203 526 -174 b 592 0 526 -92 544 -49 b 897 394 768 46 868 193 l 956 806 b 1049 943 971 917 1043 897 b 992 972 1053 967 1031 972 z "},"Ů":{"ha":1015,"x_min":0,"x_max":0,"o":"m 651 1044 b 806 1174 726 1044 794 1094 b 692 1299 817 1250 767 1299 b 536 1169 615 1299 547 1247 b 651 1044 525 1094 575 1044 z m 665 1099 b 600 1171 625 1099 600 1129 b 679 1247 604 1215 635 1247 b 742 1176 718 1247 742 1217 b 665 1099 738 1135 708 1099 z m 471 -14 b 897 394 724 -14 863 151 l 956 806 b 1049 943 971 917 1043 897 b 992 972 1053 967 1031 972 l 899 972 b 831 943 856 972 835 967 b 886 806 825 897 901 917 l 829 375 b 510 60 804 196 690 60 b 279 363 338 60 251 165 l 339 793 b 349 838 342 808 344 822 b 442 942 372 914 436 900 b 378 969 446 964 425 969 l 225 969 b 151 942 175 969 154 964 b 213 838 146 899 210 915 b 211 793 214 822 214 808 l 154 385 b 471 -14 119 136 236 -14 z "},"V":{"ha":989,"x_min":0,"x_max":0,"o":"m 456 -6 b 513 31 496 1 503 10 l 926 808 b 1060 946 988 925 1053 900 b 1006 972 1061 967 1039 972 l 893 972 b 838 943 863 972 840 967 b 853 808 832 901 913 921 l 497 122 l 325 807 b 389 946 297 915 381 900 b 335 972 390 965 369 972 l 172 972 b 101 942 125 972 104 965 b 185 808 94 900 156 921 l 390 15 b 456 -6 396 -8 410 -12 z "},"W":{"ha":1472,"x_min":0,"x_max":0,"o":"m 411 -4 b 472 32 449 3 464 14 l 778 671 l 917 13 b 978 -4 921 -6 942 -11 b 1039 32 1015 3 1031 15 l 1413 808 b 1543 946 1468 926 1536 900 b 1489 972 1544 967 1522 972 l 1376 972 b 1321 943 1346 972 1324 967 b 1339 808 1315 901 1393 922 l 1021 133 l 889 807 b 953 946 867 914 946 901 b 900 972 956 967 933 972 l 739 972 b 669 943 694 972 672 967 b 750 807 664 901 726 921 l 757 768 l 454 132 l 321 807 b 385 946 299 914 378 901 b 332 972 386 967 365 972 l 171 972 b 101 943 125 972 104 967 b 183 807 96 901 158 921 l 350 13 b 411 -4 354 -6 375 -11 z "},"Ẃ":{"ha":1472,"x_min":0,"x_max":0,"o":"m 746 1060 b 968 1179 810 1044 954 1118 b 928 1253 978 1215 956 1244 b 813 1185 892 1263 861 1231 b 725 1085 767 1139 728 1100 b 746 1060 722 1075 729 1064 z m 411 -4 b 472 32 449 3 464 14 l 778 671 l 917 13 b 978 -4 921 -6 942 -11 b 1039 32 1015 3 1031 15 l 1413 808 b 1543 946 1468 926 1536 900 b 1489 972 1544 967 1522 972 l 1376 972 b 1321 943 1346 972 1324 967 b 1339 808 1315 901 1393 922 l 1021 133 l 889 807 b 953 946 867 914 946 901 b 900 972 956 967 933 972 l 739 972 b 669 943 694 972 672 967 b 750 807 664 901 726 921 l 757 768 l 454 132 l 321 807 b 385 946 299 914 378 901 b 332 972 386 967 365 972 l 171 972 b 101 943 125 972 104 967 b 183 807 96 901 158 921 l 350 13 b 411 -4 354 -6 375 -11 z "},"Ŵ":{"ha":1472,"x_min":0,"x_max":0,"o":"m 647 1046 b 824 1110 682 1043 778 1081 b 983 1046 860 1081 946 1043 b 1001 1064 999 1047 1001 1056 b 939 1147 1001 1078 971 1108 b 838 1225 881 1215 878 1225 b 718 1146 801 1225 789 1208 b 632 1064 674 1108 638 1078 b 647 1046 631 1056 632 1047 z m 411 -4 b 472 32 449 3 464 14 l 778 671 l 917 13 b 978 -4 921 -6 942 -11 b 1039 32 1015 3 1031 15 l 1413 808 b 1543 946 1468 926 1536 900 b 1489 972 1544 967 1522 972 l 1376 972 b 1321 943 1346 972 1324 967 b 1339 808 1315 901 1393 922 l 1021 133 l 889 807 b 953 946 867 914 946 901 b 900 972 956 967 933 972 l 739 972 b 669 943 694 972 672 967 b 750 807 664 901 726 921 l 757 768 l 454 132 l 321 807 b 385 946 299 914 378 901 b 332 972 386 967 365 972 l 171 972 b 101 943 125 972 104 967 b 183 807 96 901 158 921 l 350 13 b 411 -4 354 -6 375 -11 z "},"Ẅ":{"ha":1472,"x_min":0,"x_max":0,"o":"m 689 1078 b 776 1156 733 1078 776 1111 b 711 1219 776 1193 749 1219 b 629 1133 665 1219 629 1175 b 689 1078 629 1099 656 1078 z m 890 1078 b 978 1156 933 1078 978 1111 b 911 1219 978 1193 950 1219 b 829 1133 867 1219 829 1175 b 890 1078 829 1099 856 1078 z m 411 -4 b 472 32 449 3 464 14 l 778 671 l 917 13 b 978 -4 921 -6 942 -11 b 1039 32 1015 3 1031 15 l 1413 808 b 1543 946 1468 926 1536 900 b 1489 972 1544 967 1522 972 l 1376 972 b 1321 943 1346 972 1324 967 b 1339 808 1315 901 1393 922 l 1021 133 l 889 807 b 953 946 867 914 946 901 b 900 972 956 967 933 972 l 739 972 b 669 943 694 972 672 967 b 750 807 664 901 726 921 l 757 768 l 454 132 l 321 807 b 385 946 299 914 378 901 b 332 972 386 967 365 972 l 171 972 b 101 943 125 972 104 967 b 183 807 96 901 158 921 l 350 13 b 411 -4 354 -6 375 -11 z "},"Ẁ":{"ha":1472,"x_min":0,"x_max":0,"o":"m 871 1060 b 892 1085 888 1064 894 1075 b 804 1185 889 1100 850 1139 b 689 1253 756 1231 725 1263 b 649 1179 661 1244 639 1215 b 871 1060 663 1118 807 1044 z m 411 -4 b 472 32 449 3 464 14 l 778 671 l 917 13 b 978 -4 921 -6 942 -11 b 1039 32 1015 3 1031 15 l 1413 808 b 1543 946 1468 926 1536 900 b 1489 972 1544 967 1522 972 l 1376 972 b 1321 943 1346 972 1324 967 b 1339 808 1315 901 1393 922 l 1021 133 l 889 807 b 953 946 867 914 946 901 b 900 972 956 967 933 972 l 739 972 b 669 943 694 972 672 967 b 750 807 664 901 726 921 l 757 768 l 454 132 l 321 807 b 385 946 299 914 378 901 b 332 972 386 967 365 972 l 171 972 b 101 943 125 972 104 967 b 183 807 96 901 158 921 l 350 13 b 411 -4 354 -6 375 -11 z "},"X":{"ha":1008,"x_min":0,"x_max":0,"o":"m 167 1 b 221 31 196 1 218 7 b 232 142 226 72 156 53 l 482 433 l 651 156 b 608 28 708 64 615 72 b 661 1 607 7 628 1 l 854 1 b 924 31 899 1 921 7 b 810 156 931 72 869 58 l 596 507 l 875 831 b 1029 946 957 925 1022 900 b 975 972 1031 967 1008 972 l 863 972 b 808 943 833 972 811 967 b 797 831 803 901 875 921 l 563 561 l 407 818 b 450 946 350 910 442 901 b 396 972 451 967 431 972 l 204 972 b 133 943 158 972 136 967 b 247 818 128 901 188 915 l 449 486 l 153 143 b 0 28 72 49 7 74 b 54 1 -1 7 21 1 z "},"Y":{"ha":919,"x_min":0,"x_max":0,"o":"m 815 972 b 760 943 786 972 764 967 b 754 826 754 901 826 921 l 506 503 l 340 815 b 386 946 288 911 379 901 b 333 972 389 967 367 972 l 140 972 b 69 943 94 972 74 967 b 182 817 64 901 126 917 l 393 431 l 358 176 b 347 133 356 163 353 147 b 254 28 326 57 260 71 b 319 0 251 7 274 0 l 472 0 b 544 28 522 0 542 7 b 483 133 551 71 488 56 b 488 176 483 147 485 163 l 522 429 l 832 828 b 981 946 907 925 974 900 b 926 972 985 967 961 972 z "},"Ý":{"ha":919,"x_min":0,"x_max":0,"o":"m 511 1060 b 733 1179 575 1044 719 1118 b 693 1253 743 1215 721 1244 b 578 1185 657 1263 626 1231 b 490 1085 532 1139 493 1100 b 511 1060 488 1075 494 1064 z m 815 972 b 760 943 786 972 764 967 b 754 826 754 901 826 921 l 506 503 l 340 815 b 386 946 288 911 379 901 b 333 972 389 967 367 972 l 140 972 b 69 943 94 972 74 967 b 182 817 64 901 126 917 l 393 431 l 358 176 b 347 133 356 163 353 147 b 254 28 326 57 260 71 b 319 0 251 7 274 0 l 472 0 b 544 28 522 0 542 7 b 483 133 551 71 488 56 b 488 176 483 147 485 163 l 522 429 l 832 828 b 981 946 907 925 974 900 b 926 972 985 967 961 972 z "},"Ŷ":{"ha":919,"x_min":0,"x_max":0,"o":"m 414 1046 b 590 1110 449 1043 544 1081 b 750 1046 626 1081 713 1043 b 768 1064 765 1047 768 1056 b 706 1147 768 1078 738 1108 b 604 1225 647 1215 644 1225 b 485 1146 568 1225 556 1208 b 399 1064 440 1108 404 1078 b 414 1046 397 1056 399 1047 z m 815 972 b 760 943 786 972 764 967 b 754 826 754 901 826 921 l 506 503 l 340 815 b 386 946 288 911 379 901 b 333 972 389 967 367 972 l 140 972 b 69 943 94 972 74 967 b 182 817 64 901 126 917 l 393 431 l 358 176 b 347 133 356 163 353 147 b 254 28 326 57 260 71 b 319 0 251 7 274 0 l 472 0 b 544 28 522 0 542 7 b 483 133 551 71 488 56 b 488 176 483 147 485 163 l 522 429 l 832 828 b 981 946 907 925 974 900 b 926 972 985 967 961 972 z "},"Ÿ":{"ha":919,"x_min":0,"x_max":0,"o":"m 454 1078 b 542 1156 499 1078 542 1111 b 476 1219 542 1193 514 1219 b 394 1133 431 1219 394 1175 b 454 1078 394 1099 421 1078 z m 656 1078 b 743 1156 699 1078 743 1111 b 676 1219 743 1193 715 1219 b 594 1133 632 1219 594 1175 b 656 1078 594 1099 621 1078 z m 815 972 b 760 943 786 972 764 967 b 754 826 754 901 826 921 l 506 503 l 340 815 b 386 946 288 911 379 901 b 333 972 389 967 367 972 l 140 972 b 69 943 94 972 74 967 b 182 817 64 901 126 917 l 393 431 l 358 176 b 347 133 356 163 353 147 b 254 28 326 57 260 71 b 319 0 251 7 274 0 l 472 0 b 544 28 522 0 542 7 b 483 133 551 71 488 56 b 488 176 483 147 485 163 l 522 429 l 832 828 b 981 946 907 925 974 900 b 926 972 985 967 961 972 z "},"Ỳ":{"ha":919,"x_min":0,"x_max":0,"o":"m 636 1060 b 657 1085 653 1064 660 1075 b 569 1185 654 1100 615 1139 b 454 1253 521 1231 490 1263 b 414 1179 426 1244 404 1215 b 636 1060 428 1118 572 1044 z m 815 972 b 760 943 786 972 764 967 b 754 826 754 901 826 921 l 506 503 l 340 815 b 386 946 288 911 379 901 b 333 972 389 967 367 972 l 140 972 b 69 943 94 972 74 967 b 182 817 64 901 126 917 l 393 431 l 358 176 b 347 133 356 163 353 147 b 254 28 326 57 260 71 b 319 0 251 7 274 0 l 472 0 b 544 28 522 0 542 7 b 483 133 551 71 488 56 b 488 176 483 147 485 163 l 522 429 l 832 828 b 981 946 907 925 974 900 b 926 972 985 967 961 972 z "},"Z":{"ha":865,"x_min":0,"x_max":0,"o":"m 642 0 b 749 49 722 0 736 13 b 794 210 764 88 783 147 b 781 258 800 238 801 258 b 721 203 763 258 744 244 b 515 64 671 118 626 64 l 188 63 l 893 921 b 872 972 917 950 908 972 l 296 972 b 188 924 215 972 201 960 b 143 763 172 885 154 825 b 157 714 138 735 136 714 b 217 769 175 714 193 728 b 422 910 267 854 311 910 l 733 910 l 28 53 b 47 0 3 24 11 0 z "},"Ź":{"ha":865,"x_min":0,"x_max":0,"o":"m 469 1060 b 692 1179 533 1044 678 1118 b 651 1253 701 1215 679 1244 b 536 1185 615 1263 585 1231 b 449 1085 490 1139 451 1100 b 469 1060 446 1075 453 1064 z m 642 0 b 749 49 722 0 736 13 b 794 210 764 88 783 147 b 781 258 800 238 801 258 b 721 203 763 258 744 244 b 515 64 671 118 626 64 l 188 63 l 893 921 b 872 972 917 950 908 972 l 296 972 b 188 924 215 972 201 960 b 143 763 172 885 154 825 b 157 714 138 735 136 714 b 217 769 175 714 193 728 b 422 910 267 854 311 910 l 733 910 l 28 53 b 47 0 3 24 11 0 z "},"Ž":{"ha":865,"x_min":0,"x_max":0,"o":"m 538 1046 b 658 1125 578 1046 581 1057 b 746 1207 703 1163 742 1193 b 731 1226 747 1217 746 1225 b 554 1161 696 1229 600 1192 b 396 1226 518 1192 432 1229 b 376 1207 379 1225 376 1217 b 438 1125 376 1193 406 1164 b 538 1046 492 1064 500 1046 z m 642 0 b 749 49 722 0 736 13 b 794 210 764 88 783 147 b 781 258 800 238 801 258 b 721 203 763 258 744 244 b 515 64 671 118 626 64 l 188 63 l 893 921 b 872 972 917 950 908 972 l 296 972 b 188 924 215 972 201 960 b 143 763 172 885 154 825 b 157 714 138 735 136 714 b 217 769 175 714 193 728 b 422 910 267 854 311 910 l 733 910 l 28 53 b 47 0 3 24 11 0 z "},"Ż":{"ha":865,"x_min":0,"x_max":0,"o":"m 546 1067 b 667 1165 600 1063 663 1117 b 604 1238 668 1200 642 1235 b 483 1136 549 1244 486 1186 b 546 1067 481 1097 508 1069 z m 642 0 b 749 49 722 0 736 13 b 794 210 764 88 783 147 b 781 258 800 238 801 258 b 721 203 763 258 744 244 b 515 64 671 118 626 64 l 188 63 l 893 921 b 872 972 917 950 908 972 l 296 972 b 188 924 215 972 201 960 b 143 763 172 885 154 825 b 157 714 138 735 136 714 b 217 769 175 714 193 728 b 422 910 267 854 311 910 l 733 910 l 28 53 b 47 0 3 24 11 0 z "},"Ģ":{"ha":1026,"x_min":0,"x_max":0,"o":"m 492 -14 b 899 178 688 -14 888 90 l 917 321 b 988 464 933 447 981 415 b 943 492 990 485 969 492 l 736 492 b 664 464 686 492 667 485 b 790 319 656 407 806 438 l 769 172 b 535 65 760 106 638 65 b 217 535 300 65 181 268 b 596 910 246 726 390 910 b 867 731 767 910 819 814 b 919 682 885 699 897 681 b 947 731 942 685 947 703 b 938 910 946 813 942 869 b 894 983 932 968 921 983 b 831 967 872 983 863 967 b 658 986 790 967 751 986 b 74 463 361 986 115 757 b 492 -14 36 192 190 -14 z m 451 -371 b 597 -156 494 -371 597 -276 b 519 -72 597 -107 565 -72 b 443 -153 485 -72 443 -100 b 492 -260 443 -207 492 -224 b 435 -358 492 -306 435 -336 b 451 -371 435 -365 442 -371 z "},"Ķ":{"ha":942,"x_min":0,"x_max":0,"o":"m 783 972 b 732 943 756 972 735 965 b 731 833 725 896 819 908 l 308 488 l 351 794 b 456 943 367 908 449 893 b 390 971 458 965 436 971 l 238 971 b 165 943 188 971 168 965 b 224 794 157 889 240 921 l 138 178 b 33 29 121 64 40 79 b 99 1 31 8 51 1 l 251 1 b 325 29 300 1 321 8 b 265 178 331 83 247 51 l 296 399 l 571 626 l 710 151 b 665 32 736 65 669 68 b 731 0 661 7 685 0 l 882 0 b 940 28 917 0 936 7 b 850 150 946 72 881 51 l 676 711 l 825 833 b 990 944 929 921 983 896 b 925 972 993 965 971 972 z m 486 -72 b 410 -153 451 -72 410 -100 b 458 -260 410 -207 458 -224 b 401 -358 458 -306 401 -336 b 418 -371 401 -365 408 -371 b 564 -156 461 -371 564 -276 b 486 -72 564 -107 532 -72 z "},"Ļ":{"ha":788,"x_min":0,"x_max":0,"o":"m 575 0 b 693 49 664 0 679 15 b 732 186 710 88 722 131 b 717 232 736 211 738 232 b 657 179 699 232 683 218 b 461 64 607 104 581 64 l 371 63 b 258 131 268 61 251 82 l 353 794 b 363 838 354 810 358 824 b 456 943 385 915 450 900 b 392 971 458 965 438 971 l 238 971 b 165 943 189 971 168 965 b 226 838 158 900 224 917 b 224 794 226 824 225 810 l 140 190 b 126 133 136 163 132 147 b 33 28 106 57 40 71 b 99 0 31 7 53 0 z m 335 -371 b 481 -156 378 -371 481 -276 b 403 -72 481 -107 449 -72 b 326 -153 368 -72 326 -100 b 375 -260 326 -207 375 -224 b 318 -358 375 -306 318 -336 b 335 -371 318 -365 325 -371 z "},"Ņ":{"ha":1046,"x_min":0,"x_max":0,"o":"m 149 0 b 215 29 192 0 211 6 b 160 167 221 75 144 56 l 243 789 l 767 119 b 792 33 790 90 796 63 b 815 0 789 7 799 0 l 829 0 b 857 33 844 0 854 8 l 965 806 b 1058 943 981 917 1053 899 b 1001 972 1063 967 1042 972 l 908 972 b 842 943 865 972 846 967 b 896 806 836 897 911 917 l 822 265 l 293 950 b 253 972 282 965 271 972 l 190 972 b 117 944 143 972 121 965 b 178 783 110 893 199 935 l 92 167 b -1 29 75 56 4 75 b 54 0 -6 6 15 0 z m 396 -371 b 542 -156 439 -371 542 -276 b 464 -72 542 -107 510 -72 b 388 -153 429 -72 388 -100 b 436 -260 388 -207 436 -224 b 379 -358 436 -306 379 -336 b 396 -371 379 -365 386 -371 z "},"Ŗ":{"ha":915,"x_min":0,"x_max":0,"o":"m 251 0 b 325 28 300 0 321 7 b 264 133 331 71 267 56 b 265 176 264 147 264 163 l 292 356 b 422 388 297 404 336 400 b 550 322 510 376 531 369 l 619 151 b 578 32 653 69 585 68 b 642 0 575 7 597 0 l 792 0 b 850 28 826 0 847 7 b 761 146 857 72 797 54 l 658 400 b 892 665 790 443 872 531 b 492 972 915 826 799 972 l 238 972 b 164 944 190 972 167 965 b 228 839 157 901 226 917 b 222 782 228 825 226 810 l 138 176 b 128 133 136 163 133 147 b 33 28 106 57 40 71 b 99 0 31 7 51 0 z m 510 444 b 314 517 446 446 306 458 l 364 874 b 479 910 368 903 386 911 b 751 647 679 908 771 788 b 510 444 731 513 635 442 z m 353 -371 b 499 -156 396 -371 499 -276 b 421 -72 499 -107 467 -72 b 344 -153 386 -72 344 -100 b 393 -260 344 -207 393 -224 b 336 -358 393 -306 336 -336 b 353 -371 336 -365 343 -371 z "},"Ţ":{"ha":890,"x_min":0,"x_max":0,"o":"m 474 1 b 546 29 522 1 543 8 b 485 135 551 72 488 57 b 488 178 485 149 485 164 l 581 842 b 665 911 588 890 610 911 b 821 783 774 911 788 869 b 865 729 836 743 847 729 b 900 776 892 729 897 751 b 903 925 908 843 908 886 b 796 974 897 958 885 974 l 272 972 b 154 924 183 972 167 957 b 114 775 138 885 125 842 b 136 728 110 750 110 728 b 194 783 154 728 168 743 b 388 910 253 868 279 910 b 451 840 443 910 458 889 l 360 178 b 347 135 357 164 353 149 b 254 29 326 57 261 72 b 319 1 253 8 274 1 z m 396 -293 b 524 -183 465 -293 524 -249 b 394 -74 524 -117 465 -86 l 433 0 l 383 0 l 333 -93 b 350 -117 326 -106 336 -114 b 444 -192 396 -128 444 -146 b 381 -250 444 -222 424 -250 b 306 -226 346 -250 325 -237 b 283 -249 286 -214 271 -233 b 396 -293 301 -271 336 -293 z "},"Ș":{"ha":818,"x_min":0,"x_max":0,"o":"m 357 -15 b 743 256 540 -14 725 79 b 476 561 761 421 614 489 b 272 788 354 626 257 681 b 465 918 285 872 363 918 b 689 751 589 918 656 822 b 738 707 703 721 718 707 b 765 753 760 707 767 726 b 756 910 764 821 760 869 b 718 983 750 968 744 983 b 654 968 696 983 686 968 b 504 983 614 968 567 983 b 146 750 292 983 163 879 b 394 439 121 581 265 507 b 604 206 506 382 628 322 b 381 53 588 119 515 51 b 132 258 218 53 158 165 b 86 306 119 292 106 306 b 57 257 64 306 58 285 b 60 63 54 167 58 107 b 99 -14 61 4 72 -14 b 164 4 121 -14 132 4 b 357 -15 206 4 251 -15 z m 249 -371 b 394 -156 292 -371 394 -276 b 317 -72 394 -107 363 -72 b 240 -153 282 -72 240 -100 b 289 -260 240 -207 289 -224 b 232 -358 289 -306 232 -336 b 249 -371 232 -365 239 -371 z "},"Ț":{"ha":890,"x_min":0,"x_max":0,"o":"m 474 1 b 546 29 522 1 543 8 b 485 135 551 72 488 57 b 488 178 485 149 485 164 l 581 842 b 665 911 588 890 610 911 b 821 783 774 911 788 869 b 865 729 836 743 847 729 b 900 776 892 729 897 751 b 903 925 908 843 908 886 b 796 974 897 958 885 974 l 272 972 b 154 924 183 972 167 957 b 114 775 138 885 125 842 b 136 728 110 750 110 728 b 194 783 154 728 168 743 b 388 910 253 868 279 910 b 451 840 443 910 458 889 l 360 178 b 347 135 357 164 353 149 b 254 29 326 57 261 72 b 319 1 253 8 274 1 z m 339 -371 b 485 -156 382 -371 485 -276 b 407 -72 485 -107 453 -72 b 331 -153 372 -72 331 -100 b 379 -260 331 -207 379 -224 b 322 -358 379 -306 322 -336 b 339 -371 322 -365 329 -371 z "},"a":{"ha":835,"x_min":0,"x_max":0,"o":"m 756 121 b 696 82 738 121 719 82 b 671 133 671 82 669 104 l 700 624 b 671 681 703 661 697 681 b 569 651 642 681 614 651 b 410 681 535 651 474 681 b 49 233 204 681 49 468 b 275 -14 49 71 153 -14 b 543 154 392 -14 488 64 b 636 -10 531 13 578 -10 b 769 101 707 -10 763 50 b 756 121 771 114 764 121 z m 332 82 b 181 285 265 82 181 124 b 407 619 182 424 258 619 b 565 442 494 619 574 557 l 563 401 b 332 82 551 222 446 82 z "},"á":{"ha":835,"x_min":0,"x_max":0,"o":"m 390 758 b 622 861 450 736 601 803 b 572 942 638 901 614 942 b 469 881 542 942 511 915 b 375 783 419 835 382 799 b 390 758 372 775 374 764 z m 756 121 b 696 82 738 121 719 82 b 671 133 671 82 669 104 l 700 624 b 671 681 703 661 697 681 b 569 651 642 681 614 651 b 410 681 535 651 474 681 b 49 233 204 681 49 468 b 275 -14 49 71 153 -14 b 543 154 392 -14 488 64 b 636 -10 531 13 578 -10 b 769 101 707 -10 763 50 b 756 121 771 114 764 121 z m 332 82 b 181 285 265 82 181 124 b 407 619 182 424 258 619 b 565 442 494 619 574 557 l 563 401 b 332 82 551 222 446 82 z "},"ă":{"ha":835,"x_min":0,"x_max":0,"o":"m 488 746 b 681 901 592 746 665 818 b 668 932 685 921 679 932 b 646 917 660 932 657 928 b 501 843 607 869 564 843 b 381 917 440 843 404 871 b 361 932 374 928 368 932 b 339 901 349 932 340 921 b 488 746 332 821 376 746 z m 756 121 b 696 82 738 121 719 82 b 671 133 671 82 669 104 l 700 624 b 671 681 703 661 697 681 b 569 651 642 681 614 651 b 410 681 535 651 474 681 b 49 233 204 681 49 468 b 275 -14 49 71 153 -14 b 543 154 392 -14 488 64 b 636 -10 531 13 578 -10 b 769 101 707 -10 763 50 b 756 121 771 114 764 121 z m 332 82 b 181 285 265 82 181 124 b 407 619 182 424 258 619 b 565 442 494 619 574 557 l 563 401 b 332 82 551 222 446 82 z "},"â":{"ha":835,"x_min":0,"x_max":0,"o":"m 357 749 b 514 839 392 747 467 796 b 647 749 549 796 610 747 b 667 768 663 750 665 758 b 615 869 667 781 642 819 b 531 949 579 936 578 949 b 417 864 489 949 476 935 b 340 768 374 817 343 781 b 357 749 339 758 340 750 z m 756 121 b 696 82 738 121 719 82 b 671 133 671 82 669 104 l 700 624 b 671 681 703 661 697 681 b 569 651 642 681 614 651 b 410 681 535 651 474 681 b 49 233 204 681 49 468 b 275 -14 49 71 153 -14 b 543 154 392 -14 488 64 b 636 -10 531 13 578 -10 b 769 101 707 -10 763 50 b 756 121 771 114 764 121 z m 332 82 b 181 285 265 82 181 124 b 407 619 182 424 258 619 b 565 442 494 619 574 557 l 563 401 b 332 82 551 222 446 82 z "},"ä":{"ha":835,"x_min":0,"x_max":0,"o":"m 369 789 b 457 868 414 789 457 824 b 392 932 457 906 431 932 b 310 846 346 932 310 888 b 369 789 310 811 336 789 z m 571 789 b 658 868 615 789 658 824 b 593 932 658 906 631 932 b 511 846 547 932 511 888 b 571 789 511 811 538 789 z m 756 121 b 696 82 738 121 719 82 b 671 133 671 82 669 104 l 700 624 b 671 681 703 661 697 681 b 569 651 642 681 614 651 b 410 681 535 651 474 681 b 49 233 204 681 49 468 b 275 -14 49 71 153 -14 b 543 154 392 -14 488 64 b 636 -10 531 13 578 -10 b 769 101 707 -10 763 50 b 756 121 771 114 764 121 z m 332 82 b 181 285 265 82 181 124 b 407 619 182 424 258 619 b 565 442 494 619 574 557 l 563 401 b 332 82 551 222 446 82 z "},"à":{"ha":835,"x_min":0,"x_max":0,"o":"m 600 758 b 615 783 617 764 618 775 b 522 881 608 799 571 835 b 401 939 471 922 438 951 b 368 861 372 928 354 897 b 600 758 389 803 540 736 z m 756 121 b 696 82 738 121 719 82 b 671 133 671 82 669 104 l 700 624 b 671 681 703 661 697 681 b 569 651 642 681 614 651 b 410 681 535 651 474 681 b 49 233 204 681 49 468 b 275 -14 49 71 153 -14 b 543 154 392 -14 488 64 b 636 -10 531 13 578 -10 b 769 101 707 -10 763 50 b 756 121 771 114 764 121 z m 332 82 b 181 285 265 82 181 124 b 407 619 182 424 258 619 b 565 442 494 619 574 557 l 563 401 b 332 82 551 222 446 82 z "},"ā":{"ha":835,"x_min":0,"x_max":0,"o":"m 644 771 b 694 807 683 771 688 781 b 664 840 701 831 701 840 l 347 840 b 299 806 310 840 306 831 b 329 771 292 781 292 771 z m 756 121 b 696 82 738 121 719 82 b 671 133 671 82 669 104 l 700 624 b 671 681 703 661 697 681 b 569 651 642 681 614 651 b 410 681 535 651 474 681 b 49 233 204 681 49 468 b 275 -14 49 71 153 -14 b 543 154 392 -14 488 64 b 636 -10 531 13 578 -10 b 769 101 707 -10 763 50 b 756 121 771 114 764 121 z m 332 82 b 181 285 265 82 181 124 b 407 619 182 424 258 619 b 565 442 494 619 574 557 l 563 401 b 332 82 551 222 446 82 z "},"ą":{"ha":835,"x_min":0,"x_max":0,"o":"m 756 -185 b 699 -197 739 -192 715 -197 b 618 -122 646 -197 618 -168 b 675 -4 618 -89 635 -49 b 769 101 726 13 764 60 b 756 121 771 114 764 121 b 696 82 738 121 719 82 b 671 133 671 82 669 104 l 700 624 b 671 681 703 661 697 681 b 569 651 642 681 614 651 b 410 681 535 651 474 681 b 49 233 204 681 49 468 b 275 -14 49 71 153 -14 b 543 154 392 -14 488 64 b 614 -8 532 31 567 -3 b 531 -139 564 -47 531 -89 b 665 -249 531 -210 593 -249 b 775 -210 700 -249 746 -237 b 756 -185 790 -196 783 -172 z m 332 82 b 181 285 265 82 181 124 b 407 619 182 424 258 619 b 565 442 494 619 574 557 l 563 401 b 332 82 551 222 446 82 z "},"å":{"ha":835,"x_min":0,"x_max":0,"o":"m 492 739 b 646 868 567 739 635 789 b 532 993 657 944 607 993 b 376 864 456 993 388 942 b 492 739 365 789 415 739 z m 519 942 b 582 871 558 942 582 911 b 506 793 578 829 549 793 b 440 865 465 793 440 824 b 519 942 444 910 475 942 z m 756 121 b 696 82 738 121 719 82 b 671 133 671 82 669 104 l 700 624 b 671 681 703 661 697 681 b 569 651 642 681 614 651 b 410 681 535 651 474 681 b 49 233 204 681 49 468 b 275 -14 49 71 153 -14 b 543 154 392 -14 488 64 b 636 -10 531 13 578 -10 b 769 101 707 -10 763 50 b 756 121 771 114 764 121 z m 332 82 b 181 285 265 82 181 124 b 407 619 182 424 258 619 b 565 442 494 619 574 557 l 563 401 b 332 82 551 222 446 82 z "},"ã":{"ha":835,"x_min":0,"x_max":0,"o":"m 299 769 b 353 810 301 797 319 810 b 569 751 421 810 503 751 b 678 836 631 751 671 788 b 643 872 685 888 647 907 b 590 832 639 846 622 832 b 369 890 542 832 458 890 b 263 807 310 890 269 856 b 299 769 256 756 293 736 z m 756 121 b 696 82 738 121 719 82 b 671 133 671 82 669 104 l 700 624 b 671 681 703 661 697 681 b 569 651 642 681 614 651 b 410 681 535 651 474 681 b 49 233 204 681 49 468 b 275 -14 49 71 153 -14 b 543 154 392 -14 488 64 b 636 -10 531 13 578 -10 b 769 101 707 -10 763 50 b 756 121 771 114 764 121 z m 332 82 b 181 285 265 82 181 124 b 407 619 182 424 258 619 b 565 442 494 619 574 557 l 563 401 b 332 82 551 222 446 82 z "},"æ":{"ha":1224,"x_min":0,"x_max":0,"o":"m 1100 185 b 875 81 1043 132 969 81 b 696 221 785 81 717 140 b 1161 522 949 257 1161 349 b 960 681 1161 625 1071 681 b 685 568 847 681 754 635 b 425 681 610 653 503 681 b 50 250 208 681 50 456 b 276 -14 50 83 156 -14 b 560 197 400 -14 508 76 b 828 -14 589 56 703 -14 b 1136 160 981 -14 1099 90 b 1100 185 1156 194 1126 208 z m 335 81 b 179 299 267 81 179 129 b 421 615 179 426 258 615 b 579 526 515 615 582 549 l 561 401 b 335 81 536 218 449 81 z m 915 615 b 1035 501 986 615 1035 568 b 729 288 1035 390 907 315 b 688 317 694 282 688 299 b 915 615 688 485 796 615 z "},"b":{"ha":789,"x_min":0,"x_max":0,"o":"m 522 676 b 247 526 404 676 310 610 l 322 954 b 296 986 325 975 315 986 b 203 963 279 986 254 982 b 124 908 135 938 124 924 b 171 807 124 871 185 889 l 93 336 b 322 -18 75 231 74 -7 b 743 444 544 -26 743 188 b 522 676 743 564 661 676 z m 353 47 b 215 260 272 47 201 113 b 450 586 233 458 336 586 b 592 424 539 586 588 521 b 353 47 599 239 504 47 z "},"":{"ha":789,"x_min":0,"x_max":0,"o":"m 522 676 b 247 526 404 676 310 610 l 322 954 b 296 986 325 975 315 986 b 203 963 279 986 254 982 b 124 908 135 938 124 924 b 171 807 124 871 185 889 l 93 336 b 322 -18 75 231 74 -7 b 743 444 544 -26 743 188 b 522 676 743 564 661 676 z m 353 47 b 215 260 272 47 201 113 b 450 586 233 458 336 586 b 592 424 539 586 588 521 b 353 47 599 239 504 47 z "},"c":{"ha":744,"x_min":0,"x_max":0,"o":"m 351 -14 b 661 151 506 -14 624 82 b 625 176 678 185 654 201 b 399 86 568 124 496 86 b 185 318 265 86 185 183 b 404 615 185 464 269 615 b 536 439 524 615 543 510 b 594 365 531 390 557 367 b 681 451 636 365 672 399 b 439 681 697 551 618 681 b 53 274 225 681 53 496 b 351 -14 53 113 168 -14 z "},"ć":{"ha":744,"x_min":0,"x_max":0,"o":"m 383 758 b 615 861 443 736 594 803 b 565 942 631 901 607 942 b 463 881 535 942 504 915 b 368 783 413 835 375 799 b 383 758 365 775 367 764 z m 351 -14 b 661 151 506 -14 624 82 b 625 176 678 185 654 201 b 399 86 568 124 496 86 b 185 318 265 86 185 183 b 404 615 185 464 269 615 b 536 439 524 615 543 510 b 594 365 531 390 557 367 b 681 451 636 365 672 399 b 439 681 697 551 618 681 b 53 274 225 681 53 496 b 351 -14 53 113 168 -14 z "},"č":{"ha":744,"x_min":0,"x_max":0,"o":"m 443 772 b 550 851 490 772 494 785 b 631 953 590 901 628 940 b 615 972 632 963 631 971 b 457 883 579 975 504 925 b 325 972 422 925 361 975 b 304 953 310 971 306 963 b 353 857 304 940 324 904 b 443 772 393 786 401 772 z m 351 -14 b 661 151 506 -14 624 82 b 625 176 678 185 654 201 b 399 86 568 124 496 86 b 185 318 265 86 185 183 b 404 615 185 464 269 615 b 536 439 524 615 543 510 b 594 365 531 390 557 367 b 681 451 636 365 672 399 b 439 681 697 551 618 681 b 53 274 225 681 53 496 b 351 -14 53 113 168 -14 z "},"ç":{"ha":744,"x_min":0,"x_max":0,"o":"m 594 365 b 681 451 636 365 672 399 b 439 681 697 551 618 681 b 53 274 225 681 53 496 b 306 -11 53 126 149 8 l 261 -93 b 278 -117 254 -106 264 -114 b 372 -192 324 -128 372 -146 b 308 -250 372 -222 351 -250 b 233 -226 274 -250 253 -237 b 211 -249 214 -214 199 -233 b 324 -293 229 -271 264 -293 b 451 -183 393 -293 451 -249 b 322 -74 451 -117 393 -86 l 354 -14 b 661 151 507 -12 624 82 b 625 176 678 185 654 201 b 399 86 568 124 496 86 b 185 318 265 86 185 183 b 404 615 185 464 269 615 b 536 439 524 615 543 510 b 594 365 531 390 557 367 z "},"ċ":{"ha":744,"x_min":0,"x_max":0,"o":"m 435 758 b 556 857 489 754 551 808 b 493 929 557 892 531 926 b 372 828 438 936 375 878 b 435 758 369 789 397 761 z m 351 -14 b 661 151 506 -14 624 82 b 625 176 678 185 654 201 b 399 86 568 124 496 86 b 185 318 265 86 185 183 b 404 615 185 464 269 615 b 536 439 524 615 543 510 b 594 365 531 390 557 367 b 681 451 636 365 672 399 b 439 681 697 551 618 681 b 53 274 225 681 53 496 b 351 -14 53 113 168 -14 z "},"d":{"ha":828,"x_min":0,"x_max":0,"o":"m 771 954 b 744 986 774 975 764 986 b 650 963 726 986 703 982 b 572 908 582 938 572 924 b 619 810 572 878 631 885 l 593 631 b 436 681 542 663 492 681 b 49 240 231 681 49 483 b 283 -14 49 90 131 -14 b 519 121 388 -14 469 50 b 617 -10 510 17 554 -10 b 751 101 689 -10 744 50 b 736 121 753 114 746 121 b 675 82 719 121 701 82 b 653 133 651 82 649 104 z m 563 399 b 332 81 540 204 436 81 b 182 267 232 81 186 154 b 414 614 179 425 271 614 b 563 399 506 614 579 549 z "},"ď":{"ha":828,"x_min":0,"x_max":0,"o":"m 283 -14 b 519 121 388 -14 469 50 b 617 -10 510 17 554 -10 b 751 101 689 -10 744 50 b 736 121 753 114 746 121 b 675 82 719 121 701 82 b 653 133 651 82 649 104 l 771 954 b 744 986 774 975 764 986 b 650 963 726 986 703 982 b 572 908 582 938 572 924 b 619 810 572 878 631 885 l 593 631 b 436 681 542 663 492 681 b 49 240 231 681 49 483 b 283 -14 49 90 131 -14 z m 838 674 b 982 913 876 674 974 861 b 938 974 988 956 965 974 b 869 907 907 974 881 953 b 821 697 865 888 833 747 b 838 674 818 683 825 674 z m 332 81 b 182 267 232 81 186 154 b 414 614 179 425 271 614 b 563 399 506 614 579 549 b 332 81 540 204 436 81 z "},"đ":{"ha":828,"x_min":0,"x_max":0,"o":"m 744 986 b 650 963 726 986 703 982 b 572 908 582 938 572 924 b 619 810 572 878 631 885 l 614 768 l 478 768 b 451 740 458 768 451 758 b 478 711 451 722 458 711 l 606 711 l 593 631 b 436 681 542 663 492 681 b 49 240 231 681 49 483 b 283 -14 49 90 131 -14 b 519 121 388 -14 469 50 b 617 -10 510 17 554 -10 b 751 101 689 -10 744 50 b 736 121 753 114 746 121 b 675 82 719 121 701 82 b 653 133 651 82 649 104 l 736 711 l 740 711 b 794 744 790 711 794 726 b 744 768 794 761 786 768 l 771 954 b 744 986 774 975 764 986 z m 563 399 b 332 81 540 204 436 81 b 182 267 232 81 186 154 b 414 614 179 425 271 614 b 563 399 506 614 579 549 z "},"ð":{"ha":783,"x_min":0,"x_max":0,"o":"m 635 901 b 653 938 651 907 657 921 b 622 954 650 954 642 961 l 525 921 b 431 999 494 951 463 978 b 389 992 417 1008 399 1004 b 392 951 378 979 378 964 b 443 893 410 933 428 914 l 361 864 b 342 831 343 858 338 847 b 374 813 346 813 354 806 l 475 847 b 567 646 514 788 546 719 b 431 681 528 668 481 681 b 50 263 232 685 50 482 b 329 -14 50 100 167 -14 b 735 428 554 -14 735 182 b 565 878 735 610 660 767 z m 349 51 b 181 282 238 51 181 154 b 429 622 179 432 276 621 b 600 406 554 622 600 519 b 349 51 601 242 510 51 z "},"e":{"ha":722,"x_min":0,"x_max":0,"o":"m 599 185 b 374 81 542 132 468 81 b 194 221 283 81 215 140 b 658 522 446 257 658 349 b 458 681 658 625 568 681 b 51 271 206 681 51 450 b 325 -14 51 81 182 -14 b 635 160 479 -14 597 90 b 599 185 654 194 625 208 z m 414 615 b 533 501 485 615 533 568 b 228 288 533 390 406 315 b 185 317 193 282 185 299 b 414 615 185 485 293 615 z "},"é":{"ha":722,"x_min":0,"x_max":0,"o":"m 363 756 b 594 858 422 733 574 800 b 544 939 610 899 586 939 b 442 878 514 939 483 913 b 347 781 392 832 354 796 b 363 756 344 772 346 761 z m 599 185 b 374 81 542 132 468 81 b 194 221 283 81 215 140 b 658 522 446 257 658 349 b 458 681 658 625 568 681 b 51 271 206 681 51 450 b 325 -14 51 81 182 -14 b 635 160 479 -14 597 90 b 599 185 654 194 625 208 z m 414 615 b 533 501 485 615 533 568 b 228 288 533 390 406 315 b 185 317 193 282 185 299 b 414 615 185 485 293 615 z "},"ě":{"ha":722,"x_min":0,"x_max":0,"o":"m 422 769 b 529 849 469 769 474 782 b 610 950 569 899 607 938 b 594 969 611 960 610 968 b 436 881 558 972 483 922 b 304 969 401 922 340 972 b 283 950 289 968 285 960 b 332 854 283 938 303 901 b 422 769 372 783 381 769 z m 599 185 b 374 81 542 132 468 81 b 194 221 283 81 215 140 b 658 522 446 257 658 349 b 458 681 658 625 568 681 b 51 271 206 681 51 450 b 325 -14 51 81 182 -14 b 635 160 479 -14 597 90 b 599 185 654 194 625 208 z m 414 615 b 533 501 485 615 533 568 b 228 288 533 390 406 315 b 185 317 193 282 185 299 b 414 615 185 485 293 615 z "},"ê":{"ha":722,"x_min":0,"x_max":0,"o":"m 274 746 b 431 836 308 744 383 793 b 564 746 465 793 526 744 b 583 765 579 747 582 756 b 532 867 583 778 558 817 b 447 946 496 933 494 946 b 333 861 406 946 393 932 b 257 765 290 814 260 778 b 274 746 256 756 257 747 z m 599 185 b 374 81 542 132 468 81 b 194 221 283 81 215 140 b 658 522 446 257 658 349 b 458 681 658 625 568 681 b 51 271 206 681 51 450 b 325 -14 51 81 182 -14 b 635 160 479 -14 597 90 b 599 185 654 194 625 208 z m 414 615 b 533 501 485 615 533 568 b 228 288 533 390 406 315 b 185 317 193 282 185 299 b 414 615 185 485 293 615 z "},"ë":{"ha":722,"x_min":0,"x_max":0,"o":"m 286 786 b 374 865 331 786 374 821 b 308 929 374 903 347 929 b 226 843 263 929 226 885 b 286 786 226 808 253 786 z m 488 786 b 575 865 532 786 575 821 b 510 929 575 903 547 929 b 428 843 464 929 428 885 b 488 786 428 808 454 786 z m 599 185 b 374 81 542 132 468 81 b 194 221 283 81 215 140 b 658 522 446 257 658 349 b 458 681 658 625 568 681 b 51 271 206 681 51 450 b 325 -14 51 81 182 -14 b 635 160 479 -14 597 90 b 599 185 654 194 625 208 z m 414 615 b 533 501 485 615 533 568 b 228 288 533 390 406 315 b 185 317 193 282 185 299 b 414 615 185 485 293 615 z "},"ė":{"ha":722,"x_min":0,"x_max":0,"o":"m 414 757 b 535 856 468 753 531 807 b 472 928 536 890 510 925 b 351 826 417 935 354 876 b 414 757 349 788 376 760 z m 599 185 b 374 81 542 132 468 81 b 194 221 283 81 215 140 b 658 522 446 257 658 349 b 458 681 658 625 568 681 b 51 271 206 681 51 450 b 325 -14 51 81 182 -14 b 635 160 479 -14 597 90 b 599 185 654 194 625 208 z m 414 615 b 533 501 485 615 533 568 b 228 288 533 390 406 315 b 185 317 193 282 185 299 b 414 615 185 485 293 615 z "},"è":{"ha":722,"x_min":0,"x_max":0,"o":"m 517 756 b 532 781 533 761 535 772 b 439 878 525 796 488 832 b 318 936 388 919 354 949 b 285 858 289 925 271 894 b 517 756 306 800 457 733 z m 599 185 b 374 81 542 132 468 81 b 194 221 283 81 215 140 b 658 522 446 257 658 349 b 458 681 658 625 568 681 b 51 271 206 681 51 450 b 325 -14 51 81 182 -14 b 635 160 479 -14 597 90 b 599 185 654 194 625 208 z m 414 615 b 533 501 485 615 533 568 b 228 288 533 390 406 315 b 185 317 193 282 185 299 b 414 615 185 485 293 615 z "},"ē":{"ha":722,"x_min":0,"x_max":0,"o":"m 561 768 b 611 804 600 768 604 778 b 581 838 618 828 618 838 l 264 838 b 215 803 226 838 222 828 b 246 768 208 778 208 768 z m 599 185 b 374 81 542 132 468 81 b 194 221 283 81 215 140 b 658 522 446 257 658 349 b 458 681 658 625 568 681 b 51 271 206 681 51 450 b 325 -14 51 81 182 -14 b 635 160 479 -14 597 90 b 599 185 654 194 625 208 z m 414 615 b 533 501 485 615 533 568 b 228 288 533 390 406 315 b 185 317 193 282 185 299 b 414 615 185 485 293 615 z "},"ę":{"ha":722,"x_min":0,"x_max":0,"o":"m 599 185 b 374 81 542 132 468 81 b 194 221 283 81 215 140 b 658 522 446 257 658 349 b 458 681 658 625 568 681 b 51 271 206 681 51 450 b 325 -14 51 81 182 -14 l 333 -14 b 249 -144 282 -53 249 -94 b 383 -254 249 -215 311 -254 b 493 -215 418 -254 464 -243 b 474 -190 508 -201 501 -178 b 417 -203 457 -197 433 -203 b 336 -128 364 -203 336 -174 b 394 -7 336 -94 353 -53 b 635 160 514 18 603 101 b 599 185 654 194 625 208 z m 414 615 b 533 501 485 615 533 568 b 228 288 533 390 406 315 b 185 317 193 282 185 299 b 414 615 185 485 293 615 z "},"f":{"ha":492,"x_min":0,"x_max":0,"o":"m 474 986 b 200 665 338 986 232 885 l 193 617 l 122 600 b 76 560 97 594 83 586 b 114 524 68 525 81 515 l 182 539 l 107 11 b 76 -100 100 -35 92 -79 b 115 -142 54 -131 69 -156 l 186 -119 b 217 -92 204 -114 214 -111 l 311 557 l 428 578 b 496 635 467 585 483 583 b 450 672 506 669 499 682 l 324 644 l 324 646 b 306 781 301 640 294 704 b 415 915 318 876 367 915 b 486 822 463 915 479 885 b 538 775 489 794 507 775 b 607 844 574 775 603 806 b 474 986 618 915 574 986 z "},"g":{"ha":722,"x_min":0,"x_max":0,"o":"m 724 732 b 678 782 725 763 701 782 b 628 751 657 782 643 768 b 517 674 590 701 549 674 b 419 679 486 674 471 679 l 418 679 b 81 404 236 679 81 550 b 165 250 81 342 110 286 b 31 126 72 219 36 167 b 100 6 22 67 58 28 b -10 -119 32 -22 -4 -76 b 276 -294 -28 -243 117 -294 b 701 -61 531 -294 683 -197 b 518 92 715 25 654 92 b 311 83 469 92 388 83 b 154 167 231 83 146 99 b 207 228 158 194 186 217 b 347 203 246 211 293 203 b 674 475 525 203 674 315 b 603 622 674 531 650 583 b 724 732 664 638 721 679 z m 367 260 b 213 418 268 260 213 328 b 401 625 213 529 293 625 b 544 464 494 625 544 551 b 367 260 544 360 474 260 z m 239 -24 b 450 -17 328 -24 396 -19 b 572 -106 563 -10 579 -62 b 317 -236 561 -192 454 -236 b 110 -114 185 -236 99 -193 b 239 -24 119 -54 183 -24 z "},"ğ":{"ha":722,"x_min":0,"x_max":0,"o":"m 408 746 b 601 901 513 746 586 818 b 589 932 606 921 600 932 b 567 917 581 932 578 928 b 422 843 528 869 485 843 b 301 917 361 843 325 871 b 282 932 294 928 289 932 b 260 901 269 932 261 921 b 408 746 253 821 297 746 z m 724 732 b 678 782 725 763 701 782 b 628 751 657 782 643 768 b 517 674 590 701 549 674 b 419 679 486 674 471 679 l 418 679 b 81 404 236 679 81 550 b 165 250 81 342 110 286 b 31 126 72 219 36 167 b 100 6 22 67 58 28 b -10 -119 32 -22 -4 -76 b 276 -294 -28 -243 117 -294 b 701 -61 531 -294 683 -197 b 518 92 715 25 654 92 b 311 83 469 92 388 83 b 154 167 231 83 146 99 b 207 228 158 194 186 217 b 347 203 246 211 293 203 b 674 475 525 203 674 315 b 603 622 674 531 650 583 b 724 732 664 638 721 679 z m 367 260 b 213 418 268 260 213 328 b 401 625 213 529 293 625 b 544 464 494 625 544 551 b 367 260 544 360 474 260 z m 239 -24 b 450 -17 328 -24 396 -19 b 572 -106 563 -10 579 -62 b 317 -236 561 -192 454 -236 b 110 -114 185 -236 99 -193 b 239 -24 119 -54 183 -24 z "},"ġ":{"ha":722,"x_min":0,"x_max":0,"o":"m 403 757 b 524 856 457 753 519 807 b 461 928 525 890 499 925 b 340 826 406 935 343 876 b 403 757 338 788 365 760 z m 724 732 b 678 782 725 763 701 782 b 628 751 657 782 643 768 b 517 674 590 701 549 674 b 419 679 486 674 471 679 l 418 679 b 81 404 236 679 81 550 b 165 250 81 342 110 286 b 31 126 72 219 36 167 b 100 6 22 67 58 28 b -10 -119 32 -22 -4 -76 b 276 -294 -28 -243 117 -294 b 701 -61 531 -294 683 -197 b 518 92 715 25 654 92 b 311 83 469 92 388 83 b 154 167 231 83 146 99 b 207 228 158 194 186 217 b 347 203 246 211 293 203 b 674 475 525 203 674 315 b 603 622 674 531 650 583 b 724 732 664 638 721 679 z m 367 260 b 213 418 268 260 213 328 b 401 625 213 529 293 625 b 544 464 494 625 544 551 b 367 260 544 360 474 260 z m 239 -24 b 450 -17 328 -24 396 -19 b 572 -106 563 -10 579 -62 b 317 -236 561 -192 454 -236 b 110 -114 185 -236 99 -193 b 239 -24 119 -54 183 -24 z "},"h":{"ha":853,"x_min":0,"x_max":0,"o":"m 768 121 b 707 82 751 121 733 82 b 685 133 683 82 683 104 l 701 443 b 536 676 710 596 651 676 b 246 463 421 676 318 594 l 322 956 b 296 988 326 976 315 988 b 203 964 278 988 256 985 b 125 910 136 939 125 925 b 176 818 125 878 186 888 l 58 19 b 93 -14 54 -1 68 -19 l 156 0 b 186 28 168 3 183 13 l 213 190 b 479 585 247 410 367 585 b 575 435 556 585 579 524 l 558 126 b 649 -10 553 46 574 -10 b 782 101 721 -10 776 50 b 768 121 783 114 776 121 z "},"ħ":{"ha":853,"x_min":0,"x_max":0,"o":"m 768 121 b 707 82 751 121 733 82 b 685 133 683 82 683 104 l 701 443 b 536 676 710 596 651 676 b 246 463 421 676 318 594 l 283 706 l 354 706 b 381 735 374 706 381 717 b 354 763 381 753 374 763 l 293 763 l 322 956 b 296 988 326 976 315 988 b 203 964 278 988 256 985 b 125 910 136 939 125 925 b 176 818 125 878 186 888 l 168 763 l 92 763 b 65 735 72 763 65 753 b 92 706 65 717 72 706 l 160 706 l 58 19 b 93 -14 54 -1 68 -19 l 156 0 b 186 28 168 3 183 13 l 213 190 b 479 585 247 410 367 585 b 575 435 556 585 579 524 l 558 126 b 649 -10 553 46 574 -10 b 782 101 721 -10 776 50 b 768 121 783 114 776 121 z "},"i":{"ha":390,"x_min":0,"x_max":0,"o":"m 228 785 b 349 883 282 781 344 835 b 286 956 350 918 324 953 b 165 854 231 963 168 904 b 228 785 163 815 190 788 z m 178 -10 b 311 101 250 -10 306 50 b 297 121 313 114 306 121 b 236 82 281 121 263 82 b 213 133 213 82 208 104 l 286 644 b 260 676 289 664 279 676 b 172 653 242 676 225 672 b 94 599 104 628 94 614 b 142 499 94 564 153 572 l 86 126 b 178 -10 74 46 101 -10 z "},"ı":{"ha":390,"x_min":0,"x_max":0,"o":"m 178 -10 b 311 101 250 -10 306 50 b 297 121 313 114 306 121 b 236 82 281 121 263 82 b 213 133 213 82 208 104 l 286 644 b 260 676 289 664 279 676 b 172 653 242 676 225 672 b 94 599 104 628 94 614 b 142 499 94 564 153 572 l 86 126 b 178 -10 74 46 101 -10 z "},"í":{"ha":390,"x_min":0,"x_max":0,"o":"m 176 758 b 408 861 236 736 388 803 b 358 942 424 901 400 942 b 256 881 328 942 297 915 b 161 783 206 835 168 799 b 176 758 158 775 160 764 z m 178 -10 b 311 101 250 -10 306 50 b 297 121 313 114 306 121 b 236 82 281 121 263 82 b 213 133 213 82 208 104 l 286 644 b 260 676 289 664 279 676 b 172 653 242 676 225 672 b 94 599 104 628 94 614 b 142 499 94 564 153 572 l 86 126 b 178 -10 74 46 101 -10 z "},"î":{"ha":390,"x_min":0,"x_max":0,"o":"m 86 749 b 243 839 121 747 196 796 b 376 749 278 796 339 747 b 396 768 392 750 394 758 b 344 869 396 781 371 819 b 260 949 308 936 307 949 b 146 864 218 949 206 935 b 69 768 103 817 72 781 b 86 749 68 758 69 750 z m 178 -10 b 311 101 250 -10 306 50 b 297 121 313 114 306 121 b 236 82 281 121 263 82 b 213 133 213 82 208 104 l 286 644 b 260 676 289 664 279 676 b 172 653 242 676 225 672 b 94 599 104 628 94 614 b 142 499 94 564 153 572 l 86 126 b 178 -10 74 46 101 -10 z "},"ï":{"ha":390,"x_min":0,"x_max":0,"o":"m 99 789 b 186 868 143 789 186 824 b 121 932 186 906 160 932 b 39 846 75 932 39 888 b 99 789 39 811 65 789 z m 300 789 b 388 868 344 789 388 824 b 322 932 388 906 360 932 b 240 846 276 932 240 888 b 300 789 240 811 267 789 z m 178 -10 b 311 101 250 -10 306 50 b 297 121 313 114 306 121 b 236 82 281 121 263 82 b 213 133 213 82 208 104 l 286 644 b 260 676 289 664 279 676 b 172 653 242 676 225 672 b 94 599 104 628 94 614 b 142 499 94 564 153 572 l 86 126 b 178 -10 74 46 101 -10 z "},"ì":{"ha":390,"x_min":0,"x_max":0,"o":"m 329 758 b 344 783 346 764 347 775 b 251 881 338 799 300 835 b 131 939 200 922 167 951 b 97 861 101 928 83 897 b 329 758 118 803 269 736 z m 178 -10 b 311 101 250 -10 306 50 b 297 121 313 114 306 121 b 236 82 281 121 263 82 b 213 133 213 82 208 104 l 286 644 b 260 676 289 664 279 676 b 172 653 242 676 225 672 b 94 599 104 628 94 614 b 142 499 94 564 153 572 l 86 126 b 178 -10 74 46 101 -10 z "},"ī":{"ha":390,"x_min":0,"x_max":0,"o":"m 374 771 b 424 807 413 771 417 781 b 393 840 431 831 431 840 l 76 840 b 28 806 39 840 35 831 b 58 771 21 781 21 771 z m 178 -10 b 311 101 250 -10 306 50 b 297 121 313 114 306 121 b 236 82 281 121 263 82 b 213 133 213 82 208 104 l 286 644 b 260 676 289 664 279 676 b 172 653 242 676 225 672 b 94 599 104 628 94 614 b 142 499 94 564 153 572 l 86 126 b 178 -10 74 46 101 -10 z "},"į":{"ha":390,"x_min":0,"x_max":0,"o":"m 286 956 b 165 854 231 963 168 904 b 228 785 163 815 190 788 b 349 883 282 781 344 835 b 286 956 350 918 324 953 z m 301 -186 b 244 -199 285 -193 261 -199 b 164 -124 192 -199 164 -169 b 224 -1 164 -89 181 -47 b 311 101 272 17 307 61 b 297 121 313 114 306 121 b 236 82 281 121 263 82 b 213 133 213 82 208 104 l 286 644 b 260 676 289 664 279 676 b 172 653 242 676 225 672 b 94 599 104 628 94 614 b 142 499 94 564 153 572 l 86 126 b 161 -8 75 51 97 -1 b 76 -140 110 -47 76 -90 b 211 -250 76 -211 139 -250 b 321 -211 246 -250 292 -239 b 301 -186 336 -197 329 -174 z "},"j":{"ha":389,"x_min":0,"x_max":0,"o":"m 247 785 b 368 883 301 781 364 835 b 306 956 369 918 343 953 b 185 854 250 963 188 904 b 247 785 182 815 210 788 z m -8 -293 b 196 -90 115 -293 178 -217 l 307 644 b 279 676 310 664 299 676 b 185 653 263 676 238 672 b 107 599 117 628 107 614 b 133 569 107 586 117 579 b 156 499 158 554 160 532 l 78 -33 b -58 -235 60 -157 38 -210 b -8 -293 -112 -247 -103 -293 z "},"ȷ":{"ha":389,"x_min":0,"x_max":0,"o":"m -8 -293 b 196 -90 115 -293 178 -217 l 307 644 b 279 676 310 664 299 676 b 185 653 263 676 238 672 b 107 599 117 628 107 614 b 133 569 107 586 117 579 b 156 499 158 554 160 532 l 78 -33 b -58 -235 60 -157 38 -210 b -8 -293 -112 -247 -103 -293 z "},"k":{"ha":754,"x_min":0,"x_max":0,"o":"m 679 110 b 619 78 661 110 646 78 b 429 300 544 78 464 221 b 674 549 576 350 674 436 b 524 679 674 640 600 679 b 260 518 425 679 328 614 l 322 956 b 296 988 325 976 315 988 b 203 964 278 988 256 985 b 125 910 136 939 125 925 b 176 818 125 878 186 888 l 60 19 b 94 -14 56 -1 69 -19 l 158 0 b 189 28 171 3 188 13 l 222 256 b 331 274 260 260 296 265 b 561 -14 367 153 436 -14 b 694 92 642 -14 694 58 b 679 110 694 101 690 110 z m 231 317 b 464 586 244 425 347 586 b 551 510 519 586 551 551 b 231 317 551 411 417 333 z "},"l":{"ha":372,"x_min":0,"x_max":0,"o":"m 169 -10 b 301 101 240 -10 296 50 b 288 121 303 114 296 121 b 226 82 271 121 253 82 b 204 133 203 82 199 104 l 322 954 b 296 986 325 975 315 986 b 203 963 278 986 256 982 b 125 908 135 938 125 924 b 175 815 125 878 185 885 l 76 126 b 169 -10 64 43 90 -10 z "},"ĺ":{"ha":372,"x_min":0,"x_max":0,"o":"m 242 1042 b 474 1144 301 1019 453 1086 b 424 1225 489 1185 465 1225 b 321 1164 393 1225 363 1199 b 226 1067 271 1118 233 1082 b 242 1042 224 1058 225 1047 z m 169 -10 b 301 101 240 -10 296 50 b 288 121 303 114 296 121 b 226 82 271 121 253 82 b 204 133 203 82 199 104 l 322 954 b 296 986 325 975 315 986 b 203 963 278 986 256 982 b 125 908 135 938 125 924 b 175 815 125 878 185 885 l 76 126 b 169 -10 64 43 90 -10 z "},"ľ":{"ha":372,"x_min":0,"x_max":0,"o":"m 169 -10 b 301 101 240 -10 296 50 b 288 121 303 114 296 121 b 226 82 271 121 253 82 b 204 133 203 82 199 104 l 322 954 b 296 986 325 975 315 986 b 203 963 278 986 256 982 b 125 908 135 938 125 924 b 175 815 125 878 185 885 l 76 126 b 169 -10 64 43 90 -10 z m 400 647 b 543 888 438 647 536 835 b 500 949 549 931 528 949 b 431 881 469 949 442 928 l 383 671 b 400 647 381 657 386 647 z "},"ł":{"ha":372,"x_min":0,"x_max":0,"o":"m 365 561 b 328 572 356 579 344 583 l 263 535 l 322 954 b 296 986 325 975 315 986 b 203 963 278 986 256 982 b 125 908 135 938 125 924 b 175 815 125 878 185 885 l 124 456 l 18 394 b 10 357 0 383 -1 372 b 46 343 18 339 29 333 l 113 382 l 76 126 b 169 -10 64 43 90 -10 b 301 101 240 -10 296 50 b 288 121 303 114 296 121 b 226 82 271 121 253 82 b 204 133 203 82 199 104 l 251 463 l 356 522 b 365 561 375 533 374 546 z "},"m":{"ha":1315,"x_min":0,"x_max":0,"o":"m 1231 121 b 1169 82 1214 121 1196 82 b 1147 133 1146 82 1146 104 l 1164 443 b 997 676 1172 596 1113 676 b 721 488 892 676 790 601 b 544 676 721 608 657 676 b 256 472 435 676 324 589 l 279 644 b 253 675 283 664 272 675 b 171 653 235 675 214 672 b 93 594 104 624 93 614 b 140 499 93 561 151 575 l 68 15 b 97 -14 65 -7 76 -19 l 168 6 b 196 35 185 10 193 17 l 222 190 b 497 589 260 410 374 589 b 583 385 581 589 604 525 l 529 17 b 558 -12 526 -6 539 -18 l 629 7 b 657 36 646 11 654 18 l 683 190 b 942 589 721 410 831 589 b 1038 435 1017 589 1043 524 l 1019 126 b 1111 -10 1015 46 1035 -10 b 1244 101 1183 -10 1239 50 b 1231 121 1246 114 1239 121 z "},"n":{"ha":864,"x_min":0,"x_max":0,"o":"m 779 121 b 718 82 763 121 744 82 b 696 133 694 82 694 104 l 713 443 b 547 676 721 596 663 676 b 253 458 429 676 325 593 l 281 644 b 254 675 283 664 274 675 b 171 653 236 675 215 672 b 93 594 106 624 93 614 b 140 499 93 561 151 575 l 71 18 b 100 -10 68 -4 81 -15 l 171 8 b 197 39 186 13 194 21 l 224 190 b 490 585 261 410 378 585 b 586 435 567 585 590 524 l 569 126 b 660 -10 564 46 585 -10 b 793 101 732 -10 788 50 b 779 121 794 114 788 121 z "},"ń":{"ha":864,"x_min":0,"x_max":0,"o":"m 374 742 b 606 844 433 719 585 786 b 556 925 621 885 597 925 b 453 864 525 925 494 899 b 358 767 403 818 365 782 b 374 742 356 758 357 747 z m 779 121 b 718 82 763 121 744 82 b 696 133 694 82 694 104 l 713 443 b 547 676 721 596 663 676 b 253 458 429 676 325 593 l 281 644 b 254 675 283 664 274 675 b 171 653 236 675 215 672 b 93 594 106 624 93 614 b 140 499 93 561 151 575 l 71 18 b 100 -10 68 -4 81 -15 l 171 8 b 197 39 186 13 194 21 l 224 190 b 490 585 261 410 378 585 b 586 435 567 585 590 524 l 569 126 b 660 -10 564 46 585 -10 b 793 101 732 -10 788 50 b 779 121 794 114 788 121 z "},"ň":{"ha":864,"x_min":0,"x_max":0,"o":"m 432 756 b 539 835 479 756 483 768 b 619 936 579 885 617 924 b 604 956 621 946 619 954 b 446 867 568 958 493 908 b 314 956 411 908 350 958 b 293 936 299 954 294 946 b 342 840 293 924 313 888 b 432 756 382 769 390 756 z m 779 121 b 718 82 763 121 744 82 b 696 133 694 82 694 104 l 713 443 b 547 676 721 596 663 676 b 253 458 429 676 325 593 l 281 644 b 254 675 283 664 274 675 b 171 653 236 675 215 672 b 93 594 106 624 93 614 b 140 499 93 561 151 575 l 71 18 b 100 -10 68 -4 81 -15 l 171 8 b 197 39 186 13 194 21 l 224 190 b 490 585 261 410 378 585 b 586 435 567 585 590 524 l 569 126 b 660 -10 564 46 585 -10 b 793 101 732 -10 788 50 b 779 121 794 114 788 121 z "},"ñ":{"ha":864,"x_min":0,"x_max":0,"o":"m 281 753 b 335 793 283 781 301 793 b 551 735 403 793 485 735 b 660 819 613 735 653 771 b 625 856 667 871 629 890 b 572 815 621 829 604 815 b 351 874 524 815 440 874 b 244 790 292 874 251 839 b 281 753 238 739 275 719 z m 779 121 b 718 82 763 121 744 82 b 696 133 694 82 694 104 l 713 443 b 547 676 721 596 663 676 b 253 458 429 676 325 593 l 281 644 b 254 675 283 664 274 675 b 171 653 236 675 215 672 b 93 594 106 624 93 614 b 140 499 93 561 151 575 l 71 18 b 100 -10 68 -4 81 -15 l 171 8 b 197 39 186 13 194 21 l 224 190 b 490 585 261 410 378 585 b 586 435 567 585 590 524 l 569 126 b 660 -10 564 46 585 -10 b 793 101 732 -10 788 50 b 779 121 794 114 788 121 z "},"o":{"ha":790,"x_min":0,"x_max":0,"o":"m 344 -14 b 738 406 564 -14 738 174 b 453 681 738 553 635 681 b 51 268 235 681 51 488 b 344 -14 51 104 169 -14 z m 365 50 b 188 288 239 50 189 157 b 435 618 189 436 275 618 b 594 392 556 618 594 510 b 365 50 594 231 513 50 z "},"ó":{"ha":790,"x_min":0,"x_max":0,"o":"m 407 758 b 639 861 467 736 618 803 b 589 942 654 901 631 942 b 486 881 558 942 528 915 b 392 783 436 835 399 799 b 407 758 389 775 390 764 z m 344 -14 b 738 406 564 -14 738 174 b 453 681 738 553 635 681 b 51 268 235 681 51 488 b 344 -14 51 104 169 -14 z m 365 50 b 188 288 239 50 189 157 b 435 618 189 436 275 618 b 594 392 556 618 594 510 b 365 50 594 231 513 50 z "},"ô":{"ha":790,"x_min":0,"x_max":0,"o":"m 318 749 b 475 839 353 747 428 796 b 608 749 510 796 571 747 b 628 768 624 750 626 758 b 576 869 628 781 603 819 b 492 949 540 936 539 949 b 378 864 450 949 438 935 b 301 768 335 817 304 781 b 318 749 300 758 301 750 z m 344 -14 b 738 406 564 -14 738 174 b 453 681 738 553 635 681 b 51 268 235 681 51 488 b 344 -14 51 104 169 -14 z m 365 50 b 188 288 239 50 189 157 b 435 618 189 436 275 618 b 594 392 556 618 594 510 b 365 50 594 231 513 50 z "},"ö":{"ha":790,"x_min":0,"x_max":0,"o":"m 331 789 b 418 868 375 789 418 824 b 353 932 418 906 392 932 b 271 846 307 932 271 888 b 331 789 271 811 297 789 z m 532 789 b 619 868 576 789 619 824 b 554 932 619 906 592 932 b 472 846 508 932 472 888 b 532 789 472 811 499 789 z m 344 -14 b 738 406 564 -14 738 174 b 453 681 738 553 635 681 b 51 268 235 681 51 488 b 344 -14 51 104 169 -14 z m 365 50 b 188 288 239 50 189 157 b 435 618 189 436 275 618 b 594 392 556 618 594 510 b 365 50 594 231 513 50 z "},"ò":{"ha":790,"x_min":0,"x_max":0,"o":"m 561 758 b 576 783 578 764 579 775 b 483 881 569 799 532 835 b 363 939 432 922 399 951 b 329 861 333 928 315 897 b 561 758 350 803 501 736 z m 344 -14 b 738 406 564 -14 738 174 b 453 681 738 553 635 681 b 51 268 235 681 51 488 b 344 -14 51 104 169 -14 z m 365 50 b 188 288 239 50 189 157 b 435 618 189 436 275 618 b 594 392 556 618 594 510 b 365 50 594 231 513 50 z "},"ő":{"ha":790,"x_min":0,"x_max":0,"o":"m 356 749 b 521 907 413 749 521 851 b 468 963 521 942 494 963 b 383 875 435 963 414 928 b 335 765 357 822 335 779 b 356 749 335 757 340 749 z m 557 747 b 728 900 615 747 728 846 b 676 956 728 935 703 956 b 589 872 643 956 622 922 b 535 765 558 821 535 779 b 557 747 533 757 539 747 z m 344 -14 b 738 406 564 -14 738 174 b 453 681 738 553 635 681 b 51 268 235 681 51 488 b 344 -14 51 104 169 -14 z m 365 50 b 188 288 239 50 189 157 b 435 618 189 436 275 618 b 594 392 556 618 594 510 b 365 50 594 231 513 50 z "},"ō":{"ha":790,"x_min":0,"x_max":0,"o":"m 606 771 b 656 807 644 771 649 781 b 625 840 663 831 663 840 l 308 840 b 260 806 271 840 267 831 b 290 771 253 781 253 771 z m 344 -14 b 738 406 564 -14 738 174 b 453 681 738 553 635 681 b 51 268 235 681 51 488 b 344 -14 51 104 169 -14 z m 365 50 b 188 288 239 50 189 157 b 435 618 189 436 275 618 b 594 392 556 618 594 510 b 365 50 594 231 513 50 z "},"ø":{"ha":790,"x_min":0,"x_max":0,"o":"m 690 781 b 697 803 694 789 697 796 b 672 822 697 817 683 822 b 639 801 657 822 649 818 l 560 664 b 453 681 528 675 492 681 b 51 268 235 681 51 488 b 190 24 51 158 104 69 l 108 -119 b 100 -139 104 -126 100 -132 b 125 -161 100 -153 111 -161 b 165 -132 142 -161 153 -154 l 242 1 b 344 -14 274 -8 307 -14 b 738 406 564 -14 738 174 b 610 640 738 503 693 592 z m 188 288 b 435 618 189 436 275 618 b 519 594 469 618 497 610 l 239 107 b 188 288 204 150 189 215 z m 365 50 b 282 71 332 50 304 57 l 558 551 b 594 392 585 510 594 451 b 365 50 594 231 513 50 z "},"õ":{"ha":790,"x_min":0,"x_max":0,"o":"m 586 751 b 694 836 647 751 688 788 b 660 872 701 888 664 907 b 607 832 656 846 639 832 b 386 890 558 832 475 890 b 279 807 326 890 286 856 b 315 769 272 756 310 736 b 369 810 318 797 336 810 b 586 751 438 810 519 751 z m 344 -14 b 738 406 564 -14 738 174 b 453 681 738 553 635 681 b 51 268 235 681 51 488 b 344 -14 51 104 169 -14 z m 365 50 b 188 288 239 50 189 157 b 435 618 189 436 275 618 b 594 392 556 618 594 510 b 365 50 594 231 513 50 z "},"œ":{"ha":1281,"x_min":0,"x_max":0,"o":"m 1157 185 b 931 81 1099 132 1026 81 b 751 219 842 81 774 140 b 1217 522 1004 257 1217 349 b 1015 681 1217 625 1126 681 b 708 533 883 681 779 618 b 453 681 667 619 579 681 b 51 268 235 681 51 488 b 344 -14 51 104 169 -14 b 639 128 463 -14 568 40 b 883 -14 686 33 782 -14 b 1192 160 1036 -14 1154 90 b 1157 185 1213 194 1183 208 z m 365 50 b 188 288 239 50 189 157 b 435 618 189 436 275 618 b 594 392 556 618 594 510 b 365 50 594 231 513 50 z m 971 615 b 1090 501 1043 615 1090 568 b 785 288 1090 390 964 315 b 743 317 751 282 743 299 b 971 615 743 485 851 615 z "},"p":{"ha":790,"x_min":0,"x_max":0,"o":"m 531 675 b 271 547 426 675 331 618 l 285 646 b 260 676 288 665 279 676 b 175 654 242 676 228 674 b 97 600 108 629 97 615 b 149 511 97 569 156 568 l 60 -111 b -24 -253 46 -215 -19 -214 b 33 -278 -26 -272 -14 -278 l 164 -278 b 229 -253 210 -278 226 -272 b 188 -111 233 -217 174 -217 l 206 17 b 343 -10 250 -1 296 -10 b 743 439 544 -10 740 161 b 531 675 747 561 676 675 z m 360 54 b 222 258 276 54 207 111 b 458 583 243 456 349 583 b 601 421 551 583 600 517 b 360 54 604 233 507 54 z "},"þ":{"ha":801,"x_min":0,"x_max":0,"o":"m 543 676 b 271 531 443 676 338 621 l 331 957 b 308 988 333 982 326 989 b 175 942 288 986 239 971 b 129 906 139 926 131 919 b 150 872 128 892 135 882 b 179 765 183 851 186 814 l 56 -111 b -29 -253 42 -215 -24 -214 b 29 -278 -32 -272 -18 -278 l 161 -278 b 224 -253 206 -278 221 -272 b 181 -111 229 -215 165 -217 l 200 31 b 353 -10 267 -3 308 -10 b 754 439 554 -10 750 161 b 543 676 757 563 688 676 z m 369 54 b 231 249 288 54 219 108 l 240 314 b 469 585 274 482 371 585 b 613 421 563 585 610 518 b 369 54 614 233 518 54 z "},"q":{"ha":796,"x_min":0,"x_max":0,"o":"m 722 624 b 694 681 728 661 721 681 b 593 650 664 681 636 650 b 424 681 558 650 496 681 b 50 250 206 681 50 456 b 288 -14 50 83 151 -14 b 524 128 392 -14 478 56 l 489 -111 b 406 -253 475 -215 410 -214 b 463 -278 403 -272 415 -278 l 593 -278 b 658 -253 639 -278 656 -272 b 617 -111 663 -217 601 -217 z m 557 376 b 335 81 535 218 447 81 b 179 288 265 81 179 129 b 403 614 179 429 242 614 b 578 526 497 614 581 549 z "},"r":{"ha":582,"x_min":0,"x_max":0,"o":"m 490 681 b 264 519 403 681 314 601 l 281 644 b 254 675 283 664 274 675 b 171 653 236 675 215 672 b 93 594 106 624 93 614 b 140 499 93 561 151 575 l 71 14 b 101 -15 68 -7 81 -19 l 174 0 b 203 31 190 3 200 14 l 238 274 b 417 574 260 433 349 574 b 521 513 471 574 467 511 b 581 592 558 513 579 546 b 490 681 582 633 558 681 z "},"ŕ":{"ha":582,"x_min":0,"x_max":0,"o":"m 311 743 b 543 846 371 721 522 788 b 493 926 558 886 535 926 b 390 865 463 926 432 900 b 296 768 340 819 303 783 b 311 743 293 760 294 749 z m 490 681 b 264 519 403 681 314 601 l 281 644 b 254 675 283 664 274 675 b 171 653 236 675 215 672 b 93 594 106 624 93 614 b 140 499 93 561 151 575 l 71 14 b 101 -15 68 -7 81 -19 l 174 0 b 203 31 190 3 200 14 l 238 274 b 417 574 260 433 349 574 b 521 513 471 574 467 511 b 581 592 558 513 579 546 b 490 681 582 633 558 681 z "},"ř":{"ha":582,"x_min":0,"x_max":0,"o":"m 369 757 b 476 836 417 757 421 769 b 557 938 517 886 554 925 b 542 957 558 947 557 956 b 383 868 506 960 431 910 b 251 957 349 910 288 960 b 231 938 236 956 232 947 b 279 842 231 925 250 889 b 369 757 319 771 328 757 z m 490 681 b 264 519 403 681 314 601 l 281 644 b 254 675 283 664 274 675 b 171 653 236 675 215 672 b 93 594 106 624 93 614 b 140 499 93 561 151 575 l 71 14 b 101 -15 68 -7 81 -19 l 174 0 b 203 31 190 3 200 14 l 238 274 b 417 574 260 433 349 574 b 521 513 471 574 467 511 b 581 592 558 513 579 546 b 490 681 582 633 558 681 z "},"s":{"ha":642,"x_min":0,"x_max":0,"o":"m 289 -14 b 567 171 443 -14 547 67 b 371 390 585 274 496 338 b 213 539 253 442 200 472 b 333 619 219 582 269 619 b 492 546 396 619 447 590 b 571 490 536 503 551 483 b 585 544 589 497 593 508 b 561 613 579 568 572 586 b 369 681 540 665 446 681 b 97 508 257 681 118 633 b 285 285 76 394 172 332 b 442 131 389 239 454 199 b 319 49 436 89 390 49 b 92 192 247 49 168 72 b 50 218 78 214 64 222 b 29 181 33 214 26 200 b 58 51 38 125 47 90 b 289 -14 75 -6 215 -14 z "},"":{"ha":642,"x_min":0,"x_max":0,"o":"m 289 -14 b 567 171 443 -14 547 67 b 371 390 585 274 496 338 b 213 539 253 442 200 472 b 333 619 219 582 269 619 b 492 546 396 619 447 590 b 571 490 536 503 551 483 b 585 544 589 497 593 508 b 561 613 579 568 572 586 b 369 681 540 665 446 681 b 97 508 257 681 118 633 b 285 285 76 394 172 332 b 442 131 389 239 454 199 b 319 49 436 89 390 49 b 92 192 247 49 168 72 b 50 218 78 214 64 222 b 29 181 33 214 26 200 b 58 51 38 125 47 90 b 289 -14 75 -6 215 -14 z "},"ś":{"ha":642,"x_min":0,"x_max":0,"o":"m 310 758 b 542 861 369 736 521 803 b 492 942 557 901 533 942 b 389 881 461 942 431 915 b 294 783 339 835 301 799 b 310 758 292 775 293 764 z m 289 -14 b 567 171 443 -14 547 67 b 371 390 585 274 496 338 b 213 539 253 442 200 472 b 333 619 219 582 269 619 b 492 546 396 619 447 590 b 571 490 536 503 551 483 b 585 544 589 497 593 508 b 561 613 579 568 572 586 b 369 681 540 665 446 681 b 97 508 257 681 118 633 b 285 285 76 394 172 332 b 442 131 389 239 454 199 b 319 49 436 89 390 49 b 92 192 247 49 168 72 b 50 218 78 214 64 222 b 29 181 33 214 26 200 b 58 51 38 125 47 90 b 289 -14 75 -6 215 -14 z "},"š":{"ha":642,"x_min":0,"x_max":0,"o":"m 369 772 b 476 851 417 772 421 785 b 557 953 517 901 554 940 b 542 972 558 963 557 971 b 383 883 506 975 431 925 b 251 972 349 925 288 975 b 231 953 236 971 232 963 b 279 857 231 940 250 904 b 369 772 319 786 328 772 z m 289 -14 b 567 171 443 -14 547 67 b 371 390 585 274 496 338 b 213 539 253 442 200 472 b 333 619 219 582 269 619 b 492 546 396 619 447 590 b 571 490 536 503 551 483 b 585 544 589 497 593 508 b 561 613 579 568 572 586 b 369 681 540 665 446 681 b 97 508 257 681 118 633 b 285 285 76 394 172 332 b 442 131 389 239 454 199 b 319 49 436 89 390 49 b 92 192 247 49 168 72 b 50 218 78 214 64 222 b 29 181 33 214 26 200 b 58 51 38 125 47 90 b 289 -14 75 -6 215 -14 z "},"ş":{"ha":642,"x_min":0,"x_max":0,"o":"m 585 544 b 561 613 579 568 572 586 b 369 681 540 665 446 681 b 97 508 257 681 118 633 b 285 285 76 394 172 332 b 442 131 389 239 454 199 b 319 49 436 89 390 49 b 92 192 247 49 168 72 b 50 218 78 214 64 222 b 29 181 33 214 26 200 b 58 51 38 125 47 90 b 231 -12 71 7 158 -8 l 188 -93 b 204 -117 181 -106 190 -114 b 299 -192 250 -128 299 -146 b 235 -250 299 -222 278 -250 b 160 -226 200 -250 179 -237 b 138 -249 140 -214 125 -233 b 250 -293 156 -271 190 -293 b 378 -183 319 -293 378 -249 b 249 -74 378 -117 319 -86 l 281 -14 l 289 -14 b 567 171 443 -14 547 67 b 371 390 585 274 496 338 b 213 539 253 442 200 472 b 333 619 219 582 269 619 b 492 546 396 619 447 590 b 571 490 536 503 551 483 b 585 544 589 497 593 508 z "},"ß":{"ha":800,"x_min":0,"x_max":0,"o":"m 99 -119 b 129 -92 117 -114 126 -111 l 236 667 b 388 925 251 774 269 925 b 467 800 463 925 474 854 b 340 488 449 668 354 588 b 475 314 328 392 403 358 b 593 144 553 267 604 225 b 472 46 586 89 538 46 b 296 182 371 46 322 125 b 267 221 285 203 281 221 b 233 165 251 221 238 203 b 244 63 229 140 231 93 b 436 -14 276 1 389 -14 b 715 213 582 -15 696 85 b 560 425 731 319 650 369 b 428 544 474 479 422 503 b 589 819 440 635 572 706 b 424 986 601 911 551 986 b 111 663 261 986 139 860 l 19 11 b -11 -100 13 -35 4 -79 b 28 -142 -33 -131 -18 -156 z "},"t":{"ha":490,"x_min":0,"x_max":0,"o":"m 307 785 b 276 813 310 807 296 818 l 215 800 b 186 771 199 797 189 788 b 164 638 179 733 172 688 l 99 628 b 53 590 75 624 60 617 b 90 551 44 557 58 547 l 151 558 b 96 142 124 389 97 200 b 239 -14 93 56 125 -14 b 419 126 346 -14 419 78 b 388 138 419 147 403 157 b 289 81 357 103 324 81 b 225 175 240 81 222 111 b 275 569 226 236 251 410 l 410 583 b 478 636 449 588 465 586 b 432 675 488 669 481 682 l 288 656 z "},"ŧ":{"ha":490,"x_min":0,"x_max":0,"o":"m 307 785 b 276 813 310 807 296 818 l 215 800 b 186 771 199 797 189 788 b 164 638 179 733 172 688 l 99 628 b 53 590 75 624 60 617 b 90 551 44 557 58 547 l 151 558 b 136 458 146 525 140 492 l 72 458 b 46 431 53 458 46 449 b 72 401 46 413 53 401 l 128 401 b 96 142 110 285 97 182 b 239 -14 93 56 125 -14 b 419 126 346 -14 419 78 b 388 138 419 147 403 157 b 289 81 357 103 324 81 b 225 175 240 81 222 111 b 250 401 226 214 236 301 l 335 401 b 361 431 354 401 361 413 b 335 458 361 449 354 458 l 258 458 l 275 569 l 410 583 b 478 636 449 588 465 586 b 432 675 488 669 481 682 l 288 656 z "},"ť":{"ha":490,"x_min":0,"x_max":0,"o":"m 513 951 b 469 1013 518 994 497 1013 b 400 944 439 1013 411 992 l 353 735 b 365 711 350 722 354 714 b 378 713 369 710 375 710 b 513 951 419 733 506 901 z m 307 785 b 276 813 310 807 296 818 l 215 800 b 186 771 199 797 189 788 b 164 638 179 733 172 688 l 99 628 b 53 590 75 624 60 617 b 90 551 44 557 58 547 l 151 558 b 96 142 124 389 97 200 b 239 -14 93 56 125 -14 b 419 126 346 -14 419 78 b 388 138 419 147 403 157 b 289 81 357 103 324 81 b 225 175 240 81 222 111 b 275 569 226 236 251 410 l 410 583 b 478 636 449 588 465 586 b 432 675 488 669 481 682 l 288 656 z "},"u":{"ha":857,"x_min":0,"x_max":0,"o":"m 761 121 b 700 82 743 121 726 82 b 678 135 676 82 672 104 l 754 644 b 722 674 757 661 746 681 l 656 654 b 624 624 640 650 626 644 l 599 469 b 321 68 563 250 436 68 b 238 276 211 68 226 196 l 290 644 b 264 678 294 664 283 678 b 171 653 246 678 215 671 b 93 594 104 625 93 614 b 140 506 93 561 151 581 l 106 247 b 283 -14 83 78 147 -14 b 556 178 394 -14 485 64 b 642 -10 529 31 576 -10 b 775 101 714 -10 769 50 b 761 121 776 114 769 121 z "},"ú":{"ha":857,"x_min":0,"x_max":0,"o":"m 442 756 b 674 858 501 733 653 800 b 624 939 689 899 665 939 b 521 878 593 939 563 913 b 426 781 471 832 433 796 b 442 756 424 772 425 761 z m 761 121 b 700 82 743 121 726 82 b 678 135 676 82 672 104 l 754 644 b 722 674 757 661 746 681 l 656 654 b 624 624 640 650 626 644 l 599 469 b 321 68 563 250 436 68 b 238 276 211 68 226 196 l 290 644 b 264 678 294 664 283 678 b 171 653 246 678 215 671 b 93 594 104 625 93 614 b 140 506 93 561 151 581 l 106 247 b 283 -14 83 78 147 -14 b 556 178 394 -14 485 64 b 642 -10 529 31 576 -10 b 775 101 714 -10 769 50 b 761 121 776 114 769 121 z "},"û":{"ha":857,"x_min":0,"x_max":0,"o":"m 353 746 b 510 836 388 744 463 793 b 643 746 544 793 606 744 b 663 765 658 747 661 756 b 611 867 663 778 638 817 b 526 946 575 933 574 946 b 413 861 485 946 472 932 b 336 765 369 814 339 778 b 353 746 335 756 336 747 z m 761 121 b 700 82 743 121 726 82 b 678 135 676 82 672 104 l 754 644 b 722 674 757 661 746 681 l 656 654 b 624 624 640 650 626 644 l 599 469 b 321 68 563 250 436 68 b 238 276 211 68 226 196 l 290 644 b 264 678 294 664 283 678 b 171 653 246 678 215 671 b 93 594 104 625 93 614 b 140 506 93 561 151 581 l 106 247 b 283 -14 83 78 147 -14 b 556 178 394 -14 485 64 b 642 -10 529 31 576 -10 b 775 101 714 -10 769 50 b 761 121 776 114 769 121 z "},"ü":{"ha":857,"x_min":0,"x_max":0,"o":"m 365 786 b 453 865 410 786 453 821 b 388 929 453 903 426 929 b 306 843 342 929 306 885 b 365 786 306 808 332 786 z m 567 786 b 654 865 611 786 654 821 b 589 929 654 903 626 929 b 507 843 543 929 507 885 b 567 786 507 808 533 786 z m 761 121 b 700 82 743 121 726 82 b 678 135 676 82 672 104 l 754 644 b 722 674 757 661 746 681 l 656 654 b 624 624 640 650 626 644 l 599 469 b 321 68 563 250 436 68 b 238 276 211 68 226 196 l 290 644 b 264 678 294 664 283 678 b 171 653 246 678 215 671 b 93 594 104 625 93 614 b 140 506 93 561 151 581 l 106 247 b 283 -14 83 78 147 -14 b 556 178 394 -14 485 64 b 642 -10 529 31 576 -10 b 775 101 714 -10 769 50 b 761 121 776 114 769 121 z "},"ù":{"ha":857,"x_min":0,"x_max":0,"o":"m 596 756 b 611 781 613 761 614 772 b 518 878 604 796 567 832 b 397 936 467 919 433 949 b 364 858 368 925 350 894 b 596 756 385 800 536 733 z m 761 121 b 700 82 743 121 726 82 b 678 135 676 82 672 104 l 754 644 b 722 674 757 661 746 681 l 656 654 b 624 624 640 650 626 644 l 599 469 b 321 68 563 250 436 68 b 238 276 211 68 226 196 l 290 644 b 264 678 294 664 283 678 b 171 653 246 678 215 671 b 93 594 104 625 93 614 b 140 506 93 561 151 581 l 106 247 b 283 -14 83 78 147 -14 b 556 178 394 -14 485 64 b 642 -10 529 31 576 -10 b 775 101 714 -10 769 50 b 761 121 776 114 769 121 z "},"ű":{"ha":857,"x_min":0,"x_max":0,"o":"m 392 746 b 557 904 449 746 557 849 b 504 960 557 939 531 960 b 419 872 471 960 450 925 b 371 763 393 819 371 776 b 392 746 371 754 376 746 z m 593 744 b 764 897 651 744 764 843 b 713 953 764 932 739 953 b 625 869 679 953 658 919 b 571 763 594 818 571 776 b 593 744 569 754 575 744 z m 761 121 b 700 82 743 121 726 82 b 678 135 676 82 672 104 l 754 644 b 722 674 757 661 746 681 l 656 654 b 624 624 640 650 626 644 l 599 469 b 321 68 563 250 436 68 b 238 276 211 68 226 196 l 290 644 b 264 678 294 664 283 678 b 171 653 246 678 215 671 b 93 594 104 625 93 614 b 140 506 93 561 151 581 l 106 247 b 283 -14 83 78 147 -14 b 556 178 394 -14 485 64 b 642 -10 529 31 576 -10 b 775 101 714 -10 769 50 b 761 121 776 114 769 121 z "},"ū":{"ha":857,"x_min":0,"x_max":0,"o":"m 640 768 b 690 804 679 768 683 778 b 660 838 697 828 697 838 l 343 838 b 294 803 306 838 301 828 b 325 768 288 778 288 768 z m 761 121 b 700 82 743 121 726 82 b 678 135 676 82 672 104 l 754 644 b 722 674 757 661 746 681 l 656 654 b 624 624 640 650 626 644 l 599 469 b 321 68 563 250 436 68 b 238 276 211 68 226 196 l 290 644 b 264 678 294 664 283 678 b 171 653 246 678 215 671 b 93 594 104 625 93 614 b 140 506 93 561 151 581 l 106 247 b 283 -14 83 78 147 -14 b 556 178 394 -14 485 64 b 642 -10 529 31 576 -10 b 775 101 714 -10 769 50 b 761 121 776 114 769 121 z "},"ģ":{"ha":722,"x_min":0,"x_max":0,"o":"m 414 728 b 496 799 454 728 490 758 b 464 864 500 829 488 846 b 438 911 442 882 435 894 b 472 969 440 932 451 949 b 417 960 492 988 456 997 b 347 824 378 921 353 869 b 414 728 338 757 369 728 z m 724 732 b 678 782 725 763 701 782 b 628 751 657 782 643 768 b 517 674 590 701 549 674 b 419 679 486 674 471 679 l 418 679 b 81 404 236 679 81 550 b 165 250 81 342 110 286 b 31 126 72 219 36 167 b 100 6 22 67 58 28 b -10 -119 32 -22 -4 -76 b 276 -294 -28 -243 117 -294 b 701 -61 531 -294 683 -197 b 518 92 715 25 654 92 b 311 83 469 92 388 83 b 154 167 231 83 146 99 b 207 228 158 194 186 217 b 347 203 246 211 293 203 b 674 475 525 203 674 315 b 603 622 674 531 650 583 b 724 732 664 638 721 679 z m 367 260 b 213 418 268 260 213 328 b 401 625 213 529 293 625 b 544 464 494 625 544 551 b 367 260 544 360 474 260 z m 239 -24 b 450 -17 328 -24 396 -19 b 572 -106 563 -10 579 -62 b 317 -236 561 -192 454 -236 b 110 -114 185 -236 99 -193 b 239 -24 119 -54 183 -24 z "},"ķ":{"ha":754,"x_min":0,"x_max":0,"o":"m 679 110 b 619 78 661 110 646 78 b 429 300 544 78 464 221 b 674 549 576 350 674 436 b 524 679 674 640 600 679 b 260 518 425 679 328 614 l 322 956 b 296 988 325 976 315 988 b 203 964 278 988 256 985 b 125 910 136 939 125 925 b 176 818 125 878 186 888 l 60 19 b 94 -14 56 -1 69 -19 l 158 0 b 189 28 171 3 188 13 l 222 256 b 331 274 260 260 296 265 b 561 -14 367 153 436 -14 b 694 92 642 -14 694 58 b 679 110 694 101 690 110 z m 231 317 b 464 586 244 425 347 586 b 551 510 519 586 551 551 b 231 317 551 411 417 333 z m 356 -72 b 279 -153 321 -72 279 -100 b 328 -260 279 -207 328 -224 b 271 -358 328 -306 271 -336 b 288 -371 271 -365 278 -371 b 433 -156 331 -371 433 -276 b 356 -72 433 -107 401 -72 z "},"ļ":{"ha":372,"x_min":0,"x_max":0,"o":"m 169 -10 b 301 101 240 -10 296 50 b 288 121 303 114 296 121 b 226 82 271 121 253 82 b 204 133 203 82 199 104 l 322 954 b 296 986 325 975 315 986 b 203 963 278 986 256 982 b 125 908 135 938 125 924 b 175 815 125 878 185 885 l 76 126 b 169 -10 64 43 90 -10 z m 54 -374 b 200 -158 97 -374 200 -279 b 122 -75 200 -110 168 -75 b 46 -156 88 -75 46 -103 b 94 -262 46 -210 94 -226 b 38 -361 94 -308 38 -339 b 54 -374 38 -368 44 -374 z "},"ņ":{"ha":864,"x_min":0,"x_max":0,"o":"m 779 121 b 718 82 763 121 744 82 b 696 133 694 82 694 104 l 713 443 b 547 676 721 596 663 676 b 253 458 429 676 325 593 l 281 644 b 254 675 283 664 274 675 b 171 653 236 675 215 672 b 93 594 106 624 93 614 b 140 499 93 561 151 575 l 71 18 b 100 -10 68 -4 81 -15 l 171 8 b 197 39 186 13 194 21 l 224 190 b 490 585 261 410 378 585 b 586 435 567 585 590 524 l 569 126 b 660 -10 564 46 585 -10 b 793 101 732 -10 788 50 b 779 121 794 114 788 121 z m 382 -72 b 306 -153 347 -72 306 -100 b 354 -260 306 -207 354 -224 b 297 -358 354 -306 297 -336 b 314 -371 297 -365 304 -371 b 460 -156 357 -371 460 -276 b 382 -72 460 -107 428 -72 z "},"ŗ":{"ha":582,"x_min":0,"x_max":0,"o":"m 490 681 b 264 519 403 681 314 601 l 281 644 b 254 675 283 664 274 675 b 171 653 236 675 215 672 b 93 594 106 624 93 614 b 140 499 93 561 151 575 l 71 14 b 101 -15 68 -7 81 -19 l 174 0 b 203 31 190 3 200 14 l 238 274 b 417 574 260 433 349 574 b 521 513 471 574 467 511 b 581 592 558 513 579 546 b 490 681 582 633 558 681 z m 115 -72 b 39 -153 81 -72 39 -100 b 88 -260 39 -207 88 -224 b 31 -358 88 -306 31 -336 b 47 -371 31 -365 38 -371 b 193 -156 90 -371 193 -276 b 115 -72 193 -107 161 -72 z "},"ţ":{"ha":490,"x_min":0,"x_max":0,"o":"m 307 785 b 276 813 310 807 296 818 l 215 800 b 186 771 199 797 189 788 b 164 638 179 733 172 688 l 99 628 b 53 590 75 624 60 617 b 90 551 44 557 58 547 l 151 558 b 96 142 124 389 97 200 b 214 -12 93 63 121 -3 l 171 -93 b 188 -117 164 -106 174 -114 b 282 -192 233 -128 282 -146 b 218 -250 282 -222 261 -250 b 143 -226 183 -250 163 -237 b 121 -249 124 -214 108 -233 b 233 -293 139 -271 174 -293 b 361 -183 303 -293 361 -249 b 232 -74 361 -117 303 -86 l 264 -12 b 419 126 357 1 419 82 b 388 138 419 147 403 157 b 289 81 357 103 324 81 b 225 175 240 81 222 111 b 275 569 226 236 251 410 l 410 583 b 478 636 449 588 465 586 b 432 675 488 669 481 682 l 288 656 z "},"ș":{"ha":642,"x_min":0,"x_max":0,"o":"m 289 -14 b 567 171 443 -14 547 67 b 371 390 585 274 496 338 b 213 539 253 442 200 472 b 333 619 219 582 269 619 b 492 546 396 619 447 590 b 571 490 536 503 551 483 b 585 544 589 497 593 508 b 561 613 579 568 572 586 b 369 681 540 665 446 681 b 97 508 257 681 118 633 b 285 285 76 394 172 332 b 442 131 389 239 454 199 b 319 49 436 89 390 49 b 92 192 247 49 168 72 b 50 218 78 214 64 222 b 29 181 33 214 26 200 b 58 51 38 125 47 90 b 289 -14 75 -6 215 -14 z m 193 -371 b 339 -156 236 -371 339 -276 b 261 -72 339 -107 307 -72 b 185 -153 226 -72 185 -100 b 233 -260 185 -207 233 -224 b 176 -358 233 -306 176 -336 b 193 -371 176 -365 183 -371 z "},"ț":{"ha":490,"x_min":0,"x_max":0,"o":"m 307 785 b 276 813 310 807 296 818 l 215 800 b 186 771 199 797 189 788 b 164 638 179 733 172 688 l 99 628 b 53 590 75 624 60 617 b 90 551 44 557 58 547 l 151 558 b 96 142 124 389 97 200 b 239 -14 93 56 125 -14 b 419 126 346 -14 419 78 b 388 138 419 147 403 157 b 289 81 357 103 324 81 b 225 175 240 81 222 111 b 275 569 226 236 251 410 l 410 583 b 478 636 449 588 465 586 b 432 675 488 669 481 682 l 288 656 z m 246 -72 b 169 -153 211 -72 169 -100 b 218 -260 169 -207 218 -224 b 161 -358 218 -306 161 -336 b 178 -371 161 -365 168 -371 b 324 -156 221 -371 324 -276 b 246 -72 324 -107 292 -72 z "},"ų":{"ha":857,"x_min":0,"x_max":0,"o":"m 750 -182 b 693 -194 733 -189 710 -194 b 613 -119 640 -194 613 -165 b 663 -8 613 -87 628 -50 b 775 101 725 3 769 56 b 761 121 776 114 769 121 b 700 82 743 121 726 82 b 678 135 676 82 672 104 l 754 644 b 722 674 757 661 746 681 l 656 654 b 624 624 640 650 626 644 l 599 469 b 321 68 563 250 436 68 b 238 276 211 68 226 196 l 290 644 b 264 678 294 664 283 678 b 171 653 246 678 215 671 b 93 594 104 625 93 614 b 140 506 93 561 151 581 l 106 247 b 283 -14 83 78 147 -14 b 556 178 394 -14 485 64 b 610 -6 535 57 563 8 b 525 -136 558 -44 525 -86 b 660 -246 525 -207 588 -246 b 769 -207 694 -246 740 -235 b 750 -182 785 -193 778 -169 z "},"ů":{"ha":857,"x_min":0,"x_max":0,"o":"m 488 736 b 642 865 563 736 631 786 b 528 990 653 942 603 990 b 372 861 451 990 383 939 b 488 736 361 786 411 736 z m 515 939 b 578 868 554 939 578 908 b 501 790 574 826 544 790 b 436 863 461 790 436 821 b 515 939 440 907 471 939 z m 761 121 b 700 82 743 121 726 82 b 678 135 676 82 672 104 l 754 644 b 722 674 757 661 746 681 l 656 654 b 624 624 640 650 626 644 l 599 469 b 321 68 563 250 436 68 b 238 276 211 68 226 196 l 290 644 b 264 678 294 664 283 678 b 171 653 246 678 215 671 b 93 594 104 625 93 614 b 140 506 93 561 151 581 l 106 247 b 283 -14 83 78 147 -14 b 556 178 394 -14 485 64 b 642 -10 529 31 576 -10 b 775 101 714 -10 769 50 b 761 121 776 114 769 121 z "},"v":{"ha":710,"x_min":0,"x_max":0,"o":"m 261 -14 b 667 593 469 -14 667 281 b 594 681 667 636 651 681 b 497 594 543 681 497 636 b 554 424 497 533 554 525 b 317 75 554 275 432 75 b 231 268 239 75 213 132 l 283 644 b 256 678 286 664 275 678 b 164 653 239 678 208 671 b 86 594 97 625 86 614 b 133 506 86 561 143 581 l 99 244 b 261 -14 75 64 154 -14 z "},"w":{"ha":1129,"x_min":0,"x_max":0,"o":"m 1011 681 b 914 594 960 681 914 636 b 971 424 914 533 971 525 b 736 69 971 272 868 69 b 646 268 657 69 628 132 l 699 644 b 671 676 701 664 690 676 b 593 657 654 676 618 669 b 563 601 571 647 567 629 l 526 335 b 321 69 493 178 424 69 b 231 268 242 69 213 132 l 283 644 b 256 678 286 664 275 678 b 164 653 239 678 208 671 b 86 594 97 625 86 614 b 133 506 86 561 143 581 l 99 244 b 264 -14 75 64 156 -14 b 514 132 361 -14 450 33 b 699 -14 532 31 601 -14 b 1083 569 919 -14 1083 292 b 1011 681 1083 636 1068 681 z "},"":{"ha":1129,"x_min":0,"x_max":0,"o":"m 1011 681 b 914 594 960 681 914 636 b 971 424 914 533 971 525 b 736 69 971 272 868 69 b 646 268 657 69 628 132 l 699 644 b 671 676 701 664 690 676 b 593 657 654 676 618 669 b 563 601 571 647 567 629 l 526 335 b 321 69 493 178 424 69 b 231 268 242 69 213 132 l 283 644 b 256 678 286 664 275 678 b 164 653 239 678 208 671 b 86 594 97 625 86 614 b 133 506 86 561 143 581 l 99 244 b 264 -14 75 64 156 -14 b 514 132 361 -14 450 33 b 699 -14 532 31 601 -14 b 1083 569 919 -14 1083 292 b 1011 681 1083 636 1068 681 z "},"ẃ":{"ha":1129,"x_min":0,"x_max":0,"o":"m 574 756 b 806 858 633 733 785 800 b 756 939 821 899 797 939 b 653 878 725 939 694 913 b 558 781 603 832 565 796 b 574 756 556 772 557 761 z m 1011 681 b 914 594 960 681 914 636 b 971 424 914 533 971 525 b 736 69 971 272 868 69 b 646 268 657 69 628 132 l 699 644 b 671 676 701 664 690 676 b 593 657 654 676 618 669 b 563 601 571 647 567 629 l 526 335 b 321 69 493 178 424 69 b 231 268 242 69 213 132 l 283 644 b 256 678 286 664 275 678 b 164 653 239 678 208 671 b 86 594 97 625 86 614 b 133 506 86 561 143 581 l 99 244 b 264 -14 75 64 156 -14 b 514 132 361 -14 450 33 b 699 -14 532 31 601 -14 b 1083 569 919 -14 1083 292 b 1011 681 1083 636 1068 681 z "},"ŵ":{"ha":1129,"x_min":0,"x_max":0,"o":"m 485 746 b 642 836 519 744 594 793 b 775 746 676 793 738 744 b 794 765 790 747 793 756 b 743 867 794 778 769 817 b 658 946 707 933 706 946 b 544 861 617 946 604 932 b 468 765 501 814 471 778 b 485 746 467 756 468 747 z m 1011 681 b 914 594 960 681 914 636 b 971 424 914 533 971 525 b 736 69 971 272 868 69 b 646 268 657 69 628 132 l 699 644 b 671 676 701 664 690 676 b 593 657 654 676 618 669 b 563 601 571 647 567 629 l 526 335 b 321 69 493 178 424 69 b 231 268 242 69 213 132 l 283 644 b 256 678 286 664 275 678 b 164 653 239 678 208 671 b 86 594 97 625 86 614 b 133 506 86 561 143 581 l 99 244 b 264 -14 75 64 156 -14 b 514 132 361 -14 450 33 b 699 -14 532 31 601 -14 b 1083 569 919 -14 1083 292 b 1011 681 1083 636 1068 681 z "},"ẅ":{"ha":1129,"x_min":0,"x_max":0,"o":"m 497 786 b 585 865 542 786 585 821 b 519 929 585 903 558 929 b 438 843 474 929 438 885 b 497 786 438 808 464 786 z m 699 786 b 786 865 743 786 786 821 b 721 929 786 903 758 929 b 639 843 675 929 639 885 b 699 786 639 808 665 786 z m 1011 681 b 914 594 960 681 914 636 b 971 424 914 533 971 525 b 736 69 971 272 868 69 b 646 268 657 69 628 132 l 699 644 b 671 676 701 664 690 676 b 593 657 654 676 618 669 b 563 601 571 647 567 629 l 526 335 b 321 69 493 178 424 69 b 231 268 242 69 213 132 l 283 644 b 256 678 286 664 275 678 b 164 653 239 678 208 671 b 86 594 97 625 86 614 b 133 506 86 561 143 581 l 99 244 b 264 -14 75 64 156 -14 b 514 132 361 -14 450 33 b 699 -14 532 31 601 -14 b 1083 569 919 -14 1083 292 b 1011 681 1083 636 1068 681 z "},"ẁ":{"ha":1129,"x_min":0,"x_max":0,"o":"m 728 756 b 743 781 744 761 746 772 b 650 878 736 796 699 832 b 529 936 599 919 565 949 b 496 858 500 925 482 894 b 728 756 517 800 668 733 z m 1011 681 b 914 594 960 681 914 636 b 971 424 914 533 971 525 b 736 69 971 272 868 69 b 646 268 657 69 628 132 l 699 644 b 671 676 701 664 690 676 b 593 657 654 676 618 669 b 563 601 571 647 567 629 l 526 335 b 321 69 493 178 424 69 b 231 268 242 69 213 132 l 283 644 b 256 678 286 664 275 678 b 164 653 239 678 208 671 b 86 594 97 625 86 614 b 133 506 86 561 143 581 l 99 244 b 264 -14 75 64 156 -14 b 514 132 361 -14 450 33 b 699 -14 532 31 601 -14 b 1083 569 919 -14 1083 292 b 1011 681 1083 636 1068 681 z "},"x":{"ha":713,"x_min":0,"x_max":0,"o":"m 642 676 b 379 411 550 676 460 538 l 286 653 b 253 679 279 672 267 679 b 110 565 219 679 110 606 b 149 547 110 547 126 543 b 211 504 176 553 197 540 l 288 306 b 103 103 215 196 147 103 b 42 133 79 103 69 133 b -14 64 13 133 -14 100 b 60 -14 -14 26 6 -14 b 314 238 149 -14 235 111 l 350 144 b 492 -14 379 69 408 -14 b 633 75 558 -14 633 38 b 618 92 633 85 629 92 b 557 78 600 92 589 78 b 453 221 507 78 476 158 l 406 343 b 597 560 481 453 551 560 b 658 529 621 560 631 529 b 714 599 689 529 713 563 b 642 676 715 636 696 676 z "},"y":{"ha":724,"x_min":0,"x_max":0,"o":"m 608 681 b 511 594 557 681 511 636 b 568 424 511 533 568 525 b 418 42 568 315 503 172 b 239 650 368 264 308 456 b 201 679 231 671 217 679 b 47 569 165 679 47 611 b 85 547 47 554 63 547 b 151 506 124 549 140 536 b 283 83 208 358 254 207 b 296 -43 296 22 300 -11 b 136 -203 285 -125 219 -203 b 36 -139 75 -203 54 -174 b -35 -86 14 -96 -10 -86 b -111 -172 -81 -86 -111 -124 b 46 -292 -111 -242 -60 -292 b 475 17 221 -292 358 -162 b 681 592 553 135 681 383 b 608 681 681 636 665 681 z "},"":{"ha":724,"x_min":0,"x_max":0,"o":"m 608 681 b 511 594 557 681 511 636 b 568 424 511 533 568 525 b 418 42 568 315 503 172 b 239 650 368 264 308 456 b 201 679 231 671 217 679 b 47 569 165 679 47 611 b 85 547 47 554 63 547 b 151 506 124 549 140 536 b 283 83 208 358 254 207 b 296 -43 296 22 300 -11 b 136 -203 285 -125 219 -203 b 36 -139 75 -203 54 -174 b -35 -86 14 -96 -10 -86 b -111 -172 -81 -86 -111 -124 b 46 -292 -111 -242 -60 -292 b 475 17 221 -292 358 -162 b 681 592 553 135 681 383 b 608 681 681 636 665 681 z "},"ý":{"ha":724,"x_min":0,"x_max":0,"o":"m 353 742 b 585 844 413 719 564 786 b 535 925 600 885 576 925 b 432 864 504 925 474 899 b 338 767 382 818 344 782 b 353 742 335 758 336 747 z m 608 681 b 511 594 557 681 511 636 b 568 424 511 533 568 525 b 418 42 568 315 503 172 b 239 650 368 264 308 456 b 201 679 231 671 217 679 b 47 569 165 679 47 611 b 85 547 47 554 63 547 b 151 506 124 549 140 536 b 283 83 208 358 254 207 b 296 -43 296 22 300 -11 b 136 -203 285 -125 219 -203 b 36 -139 75 -203 54 -174 b -35 -86 14 -96 -10 -86 b -111 -172 -81 -86 -111 -124 b 46 -292 -111 -242 -60 -292 b 475 17 221 -292 358 -162 b 681 592 553 135 681 383 b 608 681 681 636 665 681 z "},"ŷ":{"ha":724,"x_min":0,"x_max":0,"o":"m 264 732 b 421 822 299 731 374 779 b 554 732 456 779 517 731 b 574 751 569 733 572 742 b 522 853 574 764 549 803 b 438 932 486 919 485 932 b 324 847 396 932 383 918 b 247 751 281 800 250 764 b 264 732 246 742 247 733 z m 608 681 b 511 594 557 681 511 636 b 568 424 511 533 568 525 b 418 42 568 315 503 172 b 239 650 368 264 308 456 b 201 679 231 671 217 679 b 47 569 165 679 47 611 b 85 547 47 554 63 547 b 151 506 124 549 140 536 b 283 83 208 358 254 207 b 296 -43 296 22 300 -11 b 136 -203 285 -125 219 -203 b 36 -139 75 -203 54 -174 b -35 -86 14 -96 -10 -86 b -111 -172 -81 -86 -111 -124 b 46 -292 -111 -242 -60 -292 b 475 17 221 -292 358 -162 b 681 592 553 135 681 383 b 608 681 681 636 665 681 z "},"ÿ":{"ha":724,"x_min":0,"x_max":0,"o":"m 276 772 b 364 851 321 772 364 807 b 299 915 364 889 338 915 b 217 829 253 915 217 871 b 276 772 217 794 243 772 z m 478 772 b 565 851 522 772 565 807 b 500 915 565 889 538 915 b 418 829 454 915 418 871 b 478 772 418 794 444 772 z m 608 681 b 511 594 557 681 511 636 b 568 424 511 533 568 525 b 418 42 568 315 503 172 b 239 650 368 264 308 456 b 201 679 231 671 217 679 b 47 569 165 679 47 611 b 85 547 47 554 63 547 b 151 506 124 549 140 536 b 283 83 208 358 254 207 b 296 -43 296 22 300 -11 b 136 -203 285 -125 219 -203 b 36 -139 75 -203 54 -174 b -35 -86 14 -96 -10 -86 b -111 -172 -81 -86 -111 -124 b 46 -292 -111 -242 -60 -292 b 475 17 221 -292 358 -162 b 681 592 553 135 681 383 b 608 681 681 636 665 681 z "},"ỳ":{"ha":724,"x_min":0,"x_max":0,"o":"m 507 742 b 522 767 524 747 525 758 b 429 864 515 782 478 818 b 308 922 378 906 344 935 b 275 844 279 911 261 881 b 507 742 296 786 447 719 z m 608 681 b 511 594 557 681 511 636 b 568 424 511 533 568 525 b 418 42 568 315 503 172 b 239 650 368 264 308 456 b 201 679 231 671 217 679 b 47 569 165 679 47 611 b 85 547 47 554 63 547 b 151 506 124 549 140 536 b 283 83 208 358 254 207 b 296 -43 296 22 300 -11 b 136 -203 285 -125 219 -203 b 36 -139 75 -203 54 -174 b -35 -86 14 -96 -10 -86 b -111 -172 -81 -86 -111 -124 b 46 -292 -111 -242 -60 -292 b 475 17 221 -292 358 -162 b 681 592 553 135 681 383 b 608 681 681 636 665 681 z "},"z":{"ha":685,"x_min":0,"x_max":0,"o":"m 475 -14 b 618 157 594 -14 618 99 b 603 189 618 175 617 189 b 464 108 574 189 553 110 b 194 121 394 108 264 133 l 626 585 b 663 650 642 599 663 626 b 639 676 663 667 654 676 b 517 656 601 676 590 656 b 221 676 419 656 324 676 b 103 526 140 676 104 588 b 119 488 103 500 107 488 b 224 551 144 488 146 551 b 496 540 293 551 410 532 l 58 79 b 24 17 40 61 24 40 b 47 -7 24 0 29 -7 b 154 8 71 -7 90 8 b 475 -14 213 8 376 -14 z "},"ź":{"ha":685,"x_min":0,"x_max":0,"o":"m 317 739 b 549 842 376 717 528 783 b 499 922 564 882 540 922 b 396 861 468 922 438 896 b 301 764 346 815 308 779 b 317 739 299 756 300 744 z m 475 -14 b 618 157 594 -14 618 99 b 603 189 618 175 617 189 b 464 108 574 189 553 110 b 194 121 394 108 264 133 l 626 585 b 663 650 642 599 663 626 b 639 676 663 667 654 676 b 517 656 601 676 590 656 b 221 676 419 656 324 676 b 103 526 140 676 104 588 b 119 488 103 500 107 488 b 224 551 144 488 146 551 b 496 540 293 551 410 532 l 58 79 b 24 17 40 61 24 40 b 47 -7 24 0 29 -7 b 154 8 71 -7 90 8 b 475 -14 213 8 376 -14 z "},"ž":{"ha":685,"x_min":0,"x_max":0,"o":"m 375 753 b 482 832 422 753 426 765 b 563 933 522 882 560 921 b 547 953 564 943 563 951 b 389 864 511 956 436 906 b 257 953 354 906 293 956 b 236 933 242 951 238 943 b 285 838 236 921 256 885 b 375 753 325 767 333 753 z m 475 -14 b 618 157 594 -14 618 99 b 603 189 618 175 617 189 b 464 108 574 189 553 110 b 194 121 394 108 264 133 l 626 585 b 663 650 642 599 663 626 b 639 676 663 667 654 676 b 517 656 601 676 590 656 b 221 676 419 656 324 676 b 103 526 140 676 104 588 b 119 488 103 500 107 488 b 224 551 144 488 146 551 b 496 540 293 551 410 532 l 58 79 b 24 17 40 61 24 40 b 47 -7 24 0 29 -7 b 154 8 71 -7 90 8 b 475 -14 213 8 376 -14 z "},"ż":{"ha":685,"x_min":0,"x_max":0,"o":"m 413 757 b 533 856 467 753 529 807 b 471 928 535 890 508 925 b 350 826 415 935 353 876 b 413 757 347 788 375 760 z m 475 -14 b 618 157 594 -14 618 99 b 603 189 618 175 617 189 b 464 108 574 189 553 110 b 194 121 394 108 264 133 l 626 585 b 663 650 642 599 663 626 b 639 676 663 667 654 676 b 517 656 601 676 590 656 b 221 676 419 656 324 676 b 103 526 140 676 104 588 b 119 488 103 500 107 488 b 224 551 144 488 146 551 b 496 540 293 551 410 532 l 58 79 b 24 17 40 61 24 40 b 47 -7 24 0 29 -7 b 154 8 71 -7 90 8 b 475 -14 213 8 376 -14 z "},"ª":{"ha":556,"x_min":0,"x_max":0,"o":"m 556 636 b 518 613 544 636 533 613 b 503 644 501 613 501 626 l 521 951 b 503 986 522 975 519 986 b 439 968 483 986 467 968 b 339 986 418 968 379 986 b 114 707 211 986 114 854 b 254 553 114 606 179 553 b 422 658 328 553 388 601 b 481 554 415 569 444 554 b 564 625 525 554 560 593 b 556 636 565 632 560 636 z m 290 613 b 196 739 249 613 196 639 b 338 949 197 825 244 949 b 436 838 392 949 442 908 l 435 811 b 290 613 428 700 361 613 z "},"º":{"ha":538,"x_min":0,"x_max":0,"o":"m 299 553 b 544 815 436 553 544 669 b 367 986 544 906 479 986 b 115 728 231 986 115 865 b 299 553 115 626 189 553 z m 311 593 b 200 740 233 593 201 660 b 354 947 201 833 256 947 b 454 806 431 947 454 881 b 311 593 454 706 403 593 z "},"А":{"ha":953,"x_min":0,"x_max":0,"o":"m 129 0 b 185 29 160 0 181 6 b 169 164 190 71 110 51 l 215 251 b 449 293 236 293 236 293 b 658 253 649 293 649 293 l 681 165 b 617 26 707 57 624 72 b 671 0 614 7 636 0 l 833 0 b 904 31 881 0 900 7 b 821 164 910 72 850 51 l 622 947 b 590 972 618 964 607 972 l 463 972 b 421 943 432 972 422 961 b 453 832 414 899 493 908 l 97 164 b -37 26 35 47 -31 72 b 17 0 -40 6 -18 0 z m 457 353 b 286 385 269 353 269 353 l 515 819 l 624 389 b 457 353 633 353 632 353 z "},"Б":{"ha":913,"x_min":0,"x_max":0,"o":"m 372 0 b 838 311 651 0 810 118 b 404 660 867 515 715 660 b 364 658 389 660 375 660 b 338 686 343 657 335 668 l 360 846 b 528 910 365 890 389 910 l 601 910 b 767 771 711 910 742 856 b 811 715 779 729 793 715 b 839 764 832 715 836 736 b 840 925 846 826 844 886 b 744 974 835 961 824 974 l 236 972 b 164 944 189 972 167 965 b 228 839 157 901 226 917 b 222 782 228 825 226 810 l 140 190 b 128 133 136 163 133 147 b 33 28 106 57 40 71 b 100 0 31 7 53 0 z m 378 63 b 256 103 265 63 251 76 l 319 563 b 389 600 324 592 338 601 b 694 286 583 597 719 469 b 378 63 671 118 542 63 z "},"В":{"ha":893,"x_min":0,"x_max":0,"o":"m 353 0 b 824 307 618 0 793 89 b 571 579 844 453 740 554 b 765 758 694 600 754 674 b 461 972 785 897 676 972 l 236 972 b 164 944 189 972 167 965 b 228 839 157 901 226 917 b 222 782 228 825 226 810 l 140 190 b 128 133 136 163 133 147 b 33 28 106 57 40 71 b 100 0 31 7 53 0 z m 407 608 b 331 636 365 608 326 607 l 361 854 b 454 910 368 903 396 910 b 631 743 574 910 644 843 b 407 608 618 653 558 608 z m 358 63 b 263 160 265 63 253 92 l 311 489 b 397 543 315 525 324 543 b 678 285 599 543 700 442 b 358 63 656 126 550 63 z "},"Г":{"ha":800,"x_min":0,"x_max":0,"o":"m 253 1 b 325 29 301 1 322 8 b 264 135 331 72 267 57 b 267 178 264 149 265 164 l 360 846 b 528 910 365 890 389 910 l 589 910 b 754 771 699 910 729 856 b 799 715 767 729 781 715 b 826 764 819 715 824 736 b 828 925 833 826 832 886 b 732 974 824 961 813 974 l 236 972 b 164 944 189 972 167 965 b 228 839 157 901 226 917 b 222 782 228 825 226 810 l 139 178 b 128 135 138 164 133 149 b 33 29 106 57 40 72 b 100 1 32 8 53 1 z "},"Ґ":{"ha":776,"x_min":0,"x_max":0,"o":"m 213 1 b 285 29 261 1 282 8 b 224 135 290 72 226 57 b 226 178 224 149 224 164 l 319 846 b 488 910 325 890 349 910 l 706 910 b 813 958 785 910 800 922 b 858 1121 828 997 846 1057 b 843 1168 863 1149 864 1168 b 785 1113 825 1168 808 1156 b 578 974 735 1029 689 974 l 196 972 b 124 944 149 972 126 965 b 188 839 117 901 186 917 b 182 782 188 825 186 810 l 99 178 b 88 135 96 164 93 149 b -7 29 65 57 0 72 b 60 1 -8 8 13 1 z "},"Д":{"ha":965,"x_min":0,"x_max":0,"o":"m -75 -171 b -12 -117 -56 -171 -37 -156 b 178 -1 38 -42 93 -1 l 656 0 b 813 -115 739 0 783 -40 b 858 -169 826 -154 839 -169 b 894 -122 885 -169 890 -147 b 894 15 900 -67 900 -24 b 792 64 890 47 879 64 b 757 119 754 64 750 69 l 850 782 b 863 839 854 810 857 825 b 956 944 885 917 950 901 b 890 972 958 965 936 972 l 350 972 b 268 939 285 972 271 964 b 329 803 261 894 344 907 b 100 103 303 614 236 328 b 32 63 82 74 60 63 b -58 14 -29 63 -44 46 b -96 -124 -75 -25 -86 -68 b -75 -171 -101 -149 -101 -171 z m 164 63 b 418 839 297 339 339 499 b 589 910 432 900 490 910 b 731 846 718 910 736 890 l 621 64 z "},"Е":{"ha":865,"x_min":0,"x_max":0,"o":"m 631 0 b 750 49 721 0 738 15 b 793 197 767 88 779 131 b 779 244 797 222 799 242 b 717 190 760 249 744 238 b 515 64 667 103 636 64 l 408 63 b 258 131 268 61 251 82 l 308 482 b 456 550 318 549 358 550 b 654 425 614 549 601 411 b 676 494 675 431 682 442 l 667 613 b 636 657 664 644 653 657 b 464 613 594 657 613 613 b 338 681 367 613 328 614 l 360 846 b 528 910 365 890 389 910 l 593 910 b 789 778 704 910 756 865 b 840 732 804 742 814 726 b 863 783 861 738 864 756 b 849 931 864 846 857 893 b 754 974 842 967 833 974 l 236 972 b 164 944 189 972 167 969 b 222 782 156 893 244 938 l 140 190 b 33 28 118 35 42 79 b 99 0 31 3 51 0 z "},"Ё":{"ha":865,"x_min":0,"x_max":0,"o":"m 415 1078 b 503 1156 460 1078 503 1111 b 438 1219 503 1193 475 1219 b 356 1133 392 1219 356 1175 b 415 1078 356 1099 382 1078 z m 617 1078 b 704 1156 660 1078 704 1111 b 638 1219 704 1193 676 1219 b 556 1133 593 1219 556 1175 b 617 1078 556 1099 582 1078 z m 631 0 b 750 49 721 0 738 15 b 793 197 767 88 779 131 b 779 244 797 222 799 242 b 717 190 760 249 744 238 b 515 64 667 103 636 64 l 408 63 b 258 131 268 61 251 82 l 308 482 b 456 550 318 549 358 550 b 654 425 614 549 601 411 b 676 494 675 431 682 442 l 667 613 b 636 657 664 644 653 657 b 464 613 594 657 613 613 b 338 681 367 613 328 614 l 360 846 b 528 910 365 890 389 910 l 593 910 b 789 778 704 910 756 865 b 840 732 804 742 814 726 b 863 783 861 738 864 756 b 849 931 864 846 857 893 b 754 974 842 967 833 974 l 236 972 b 164 944 189 972 167 969 b 222 782 156 893 244 938 l 140 190 b 33 28 118 35 42 79 b 99 0 31 3 51 0 z "},"Ж":{"ha":1493,"x_min":0,"x_max":0,"o":"m 224 0 b 267 24 250 0 265 10 b 261 149 272 63 208 64 l 510 543 l 671 313 l 651 167 b 565 25 636 63 571 64 b 624 0 564 7 576 0 l 760 0 b 824 25 804 0 821 7 b 779 167 829 63 764 61 l 799 310 l 1038 553 l 1178 149 b 1138 24 1208 64 1143 63 b 1175 0 1136 10 1149 0 l 1376 0 b 1424 25 1404 0 1421 10 b 1319 146 1429 61 1353 54 l 1138 653 l 1307 826 b 1458 949 1394 914 1453 908 b 1400 972 1460 965 1447 972 l 1275 972 b 1224 947 1242 972 1225 965 b 1217 826 1218 911 1303 913 l 813 414 l 868 806 b 953 947 883 910 947 908 b 896 972 954 965 942 972 l 760 972 b 696 947 714 972 697 965 b 740 806 690 910 754 911 l 685 417 l 399 826 b 428 947 339 913 421 911 b 382 972 429 965 415 972 l 257 972 b 193 949 210 972 194 965 b 308 826 188 908 247 914 l 439 643 l 119 146 b -19 25 60 54 -12 61 b 21 0 -21 10 -6 0 z "},"З":{"ha":781,"x_min":0,"x_max":0,"o":"m 289 -11 b 713 279 497 -15 685 81 b 490 538 731 404 667 510 b 724 774 610 563 710 656 b 486 983 743 929 606 983 b 310 968 392 983 350 968 b 250 983 278 968 272 983 b 188 910 224 983 210 969 b 144 758 172 869 154 813 b 160 711 138 731 138 711 b 219 757 179 711 194 724 b 456 919 272 828 336 919 b 585 768 540 919 599 869 b 315 567 569 650 492 583 b 307 501 268 563 261 503 b 569 258 526 494 588 393 b 326 54 550 129 447 54 b 111 224 201 54 140 133 b 74 274 99 257 92 271 b 39 232 53 275 40 257 b 43 100 33 163 40 138 b 139 7 47 43 85 21 b 289 -11 178 -4 228 -10 z "},"И":{"ha":1136,"x_min":0,"x_max":0,"o":"m 253 0 b 325 28 301 0 322 7 b 265 175 332 79 249 50 l 900 725 l 824 178 b 719 29 808 65 726 78 b 785 1 718 8 739 1 l 938 1 b 1010 29 988 1 1008 8 b 951 178 1018 83 935 49 l 1038 794 b 1142 943 1056 915 1135 896 b 1076 971 1144 965 1124 971 l 924 971 b 851 943 875 971 853 965 b 911 815 844 900 924 911 l 278 265 l 353 794 b 457 943 369 919 449 894 b 392 971 458 965 438 971 l 238 971 b 167 943 189 971 168 965 b 224 794 158 892 242 921 l 139 178 b 33 28 122 64 42 78 b 99 0 32 7 53 0 z "},"Й":{"ha":1136,"x_min":0,"x_max":0,"o":"m 665 1047 b 892 1193 778 1047 879 1108 b 853 1240 896 1218 879 1240 b 674 1101 776 1240 768 1101 b 533 1240 578 1101 608 1240 b 479 1193 506 1240 483 1218 b 665 1047 468 1110 549 1047 z m 253 0 b 325 28 301 0 322 7 b 265 175 332 79 249 50 l 900 725 l 824 178 b 719 29 808 65 726 78 b 785 1 718 8 739 1 l 938 1 b 1010 29 988 1 1008 8 b 951 178 1018 83 935 49 l 1038 794 b 1142 943 1056 915 1135 896 b 1076 971 1144 965 1124 971 l 924 971 b 851 943 875 971 853 965 b 911 815 844 900 924 911 l 278 265 l 353 794 b 457 943 369 919 449 894 b 392 971 458 965 438 971 l 238 971 b 167 943 189 971 168 965 b 224 794 158 892 242 921 l 139 178 b 33 28 122 64 42 78 b 99 0 32 7 53 0 z "},"К":{"ha":942,"x_min":0,"x_max":0,"o":"m 783 972 b 732 943 756 972 735 965 b 731 833 725 896 819 908 l 308 488 l 351 794 b 456 943 367 908 449 893 b 390 971 458 965 436 971 l 238 971 b 165 943 188 971 168 965 b 224 794 157 889 240 921 l 138 178 b 33 29 121 64 40 79 b 99 1 31 8 51 1 l 251 1 b 325 29 300 1 321 8 b 265 178 331 83 247 51 l 296 399 l 571 626 l 710 151 b 665 32 736 65 669 68 b 731 0 661 7 685 0 l 882 0 b 940 28 917 0 936 7 b 850 150 946 72 881 51 l 676 711 l 825 833 b 990 944 929 921 983 896 b 925 972 993 965 971 972 z "},"Л":{"ha":986,"x_min":0,"x_max":0,"o":"m 71 -14 b 218 51 117 -14 168 -3 b 461 839 343 183 396 518 b 636 910 474 900 525 910 b 772 846 754 910 776 890 l 678 178 b 667 135 675 164 672 149 b 574 29 644 57 579 72 b 639 1 572 8 593 1 l 792 1 b 864 29 842 1 863 8 b 803 135 871 72 807 57 b 806 178 803 149 803 164 l 893 806 b 990 947 908 908 985 908 b 917 972 993 964 981 972 l 404 972 b 324 947 340 972 325 964 b 382 803 318 908 397 907 b 136 101 328 414 229 101 b 40 185 83 101 101 185 b -43 103 6 185 -33 161 b 71 -14 -54 24 10 -14 z "},"М":{"ha":1253,"x_min":0,"x_max":0,"o":"m 183 0 b 250 29 226 0 246 6 b 201 167 257 75 182 56 l 313 793 l 508 76 b 553 61 513 63 526 56 b 593 90 574 67 583 75 l 1019 800 l 949 175 b 851 31 936 63 857 79 b 915 0 847 7 869 0 l 1067 0 b 1133 31 1110 0 1129 7 b 1075 175 1139 81 1063 61 l 1143 814 b 1229 946 1154 918 1222 904 b 1179 972 1231 965 1218 972 l 1075 972 b 1033 946 1057 972 1043 964 l 603 224 l 404 946 b 368 972 397 964 386 972 l 257 972 b 200 946 218 972 203 965 b 249 814 194 908 265 908 l 133 167 b 33 29 113 56 39 75 b 90 0 29 6 50 0 z "},"Н":{"ha":1113,"x_min":0,"x_max":0,"o":"m 253 0 b 325 28 301 0 322 7 b 264 133 331 71 267 56 b 267 176 264 147 265 163 l 299 418 b 583 486 308 486 308 486 b 835 418 844 486 844 486 l 801 176 b 790 133 800 163 796 147 b 697 28 768 57 703 71 b 763 0 694 7 715 0 l 915 0 b 988 28 965 0 986 7 b 926 133 993 71 931 56 b 929 176 926 147 928 163 l 1015 796 b 1026 839 1017 810 1021 825 b 1119 944 1049 917 1114 901 b 1054 972 1122 965 1101 972 l 901 972 b 829 944 851 972 831 965 b 890 839 824 901 886 917 b 888 796 890 825 889 810 l 863 615 b 594 547 853 547 853 547 b 328 615 318 547 318 547 l 353 796 b 364 839 354 810 358 825 b 457 944 385 917 450 901 b 392 972 458 965 438 972 l 238 972 b 167 944 189 972 168 965 b 226 839 160 901 224 917 b 224 796 226 825 225 810 l 139 176 b 126 133 136 163 132 147 b 33 28 106 57 40 71 b 99 0 32 7 53 0 z "},"О":{"ha":1078,"x_min":0,"x_max":0,"o":"m 485 -10 b 1046 576 813 -21 1046 249 b 635 983 1046 790 900 983 b 72 408 319 983 72 721 b 485 -10 72 160 264 -4 z m 535 60 b 213 424 335 60 213 201 b 613 917 213 683 378 917 b 907 558 797 917 907 775 b 535 60 907 308 771 60 z "},"П":{"ha":1068,"x_min":0,"x_max":0,"o":"m 253 1 b 325 29 301 1 322 8 b 264 135 331 72 267 57 b 267 178 264 149 264 164 l 360 846 b 619 908 365 890 386 908 b 851 846 840 908 857 890 l 758 178 b 747 135 756 164 753 149 b 654 29 725 58 660 72 b 719 1 651 8 672 1 l 872 1 b 944 29 922 1 943 8 b 883 135 950 72 888 57 b 886 178 883 149 883 164 l 971 782 b 983 839 975 810 978 825 b 1076 944 1006 917 1071 901 b 1011 972 1079 965 1058 972 l 236 972 b 164 944 189 972 167 965 b 228 839 157 901 226 917 b 222 782 228 825 226 810 l 139 178 b 128 135 136 164 133 149 b 33 29 106 58 40 72 b 100 1 32 8 53 1 z "},"Р":{"ha":890,"x_min":0,"x_max":0,"o":"m 253 1 b 325 29 301 1 322 8 b 267 171 332 79 251 57 b 281 282 271 207 276 244 b 313 310 285 308 285 310 l 414 310 b 879 629 693 310 851 426 b 469 972 906 817 769 972 l 236 972 b 164 944 189 972 167 965 b 222 782 154 890 246 940 l 139 178 b 33 29 119 47 42 79 b 100 1 32 8 53 1 z m 421 371 b 299 411 308 371 294 385 l 364 874 b 460 911 368 903 382 911 b 736 603 651 911 763 781 b 421 371 711 426 585 371 z "},"С":{"ha":954,"x_min":0,"x_max":0,"o":"m 493 -14 b 874 161 689 -14 826 100 b 847 206 906 203 879 236 b 538 72 769 132 678 72 b 221 524 311 72 186 267 b 601 910 250 726 396 910 b 871 731 771 910 822 814 b 925 682 889 699 901 681 b 953 731 947 685 953 703 b 942 910 951 813 946 869 b 899 983 936 968 925 983 b 835 967 876 983 867 967 b 665 986 796 967 757 986 b 78 493 367 986 119 788 b 493 -14 39 210 206 -14 z "},"Т":{"ha":890,"x_min":0,"x_max":0,"o":"m 474 1 b 546 29 522 1 543 8 b 485 135 551 72 488 57 b 488 178 485 149 485 164 l 581 842 b 665 911 588 890 610 911 b 821 783 774 911 788 869 b 865 729 836 743 847 729 b 900 776 892 729 897 751 b 903 925 908 843 908 886 b 796 974 897 958 885 974 l 272 972 b 154 924 183 972 167 957 b 114 775 138 885 125 842 b 136 728 110 750 110 728 b 194 783 154 728 168 743 b 388 910 253 868 279 910 b 451 840 443 910 458 889 l 360 178 b 347 135 357 164 353 149 b 254 29 326 57 261 72 b 319 1 253 8 274 1 z "},"У":{"ha":894,"x_min":0,"x_max":0,"o":"m 200 -14 b 481 240 289 -14 358 33 l 818 808 b 956 944 886 924 949 899 b 901 971 958 965 936 971 l 789 971 b 735 942 760 971 738 965 b 746 808 728 900 811 919 l 494 382 l 322 814 b 372 947 286 906 367 908 b 314 972 374 965 361 972 l 146 972 b 94 947 113 972 96 965 b 172 814 88 910 135 906 l 401 247 b 400 226 404 240 404 233 b 271 97 356 146 317 97 b 181 161 222 97 239 161 b 100 81 146 161 107 128 b 200 -14 90 8 158 -14 z "},"Ф":{"ha":1119,"x_min":0,"x_max":0,"o":"m 588 0 b 661 28 636 0 657 7 b 601 172 668 81 585 33 b 618 188 603 183 607 189 b 718 182 649 185 676 182 b 1076 492 892 182 1050 308 b 810 799 1100 667 993 799 b 700 794 768 799 738 797 b 690 810 690 793 688 799 b 792 944 714 931 785 894 b 726 972 794 965 772 972 l 574 972 b 501 944 524 972 504 965 b 563 810 494 892 574 936 b 546 794 561 799 554 793 b 439 799 508 797 475 799 b 86 492 271 799 111 671 b 358 182 61 313 178 182 b 461 186 394 182 428 185 b 471 171 469 188 474 182 b 369 28 449 39 378 79 b 435 0 367 7 388 0 z m 432 243 b 222 492 285 243 203 353 b 503 736 243 643 333 736 b 551 733 518 736 535 735 l 483 249 b 432 243 467 246 449 243 z m 667 243 b 611 249 649 243 629 244 l 679 733 b 729 736 697 735 714 736 b 940 492 897 736 963 644 b 667 243 921 349 817 243 z "},"Х":{"ha":985,"x_min":0,"x_max":0,"o":"m 131 1 b 185 31 160 1 182 7 b 196 142 190 72 118 53 l 446 433 l 615 156 b 572 28 672 64 579 72 b 625 1 571 7 592 1 l 818 1 b 888 31 863 1 885 7 b 774 156 894 72 833 58 l 560 507 l 839 829 b 993 944 921 924 986 899 b 939 971 994 965 972 971 l 826 971 b 772 942 797 971 775 965 b 761 829 767 900 839 919 l 526 560 l 371 817 b 414 944 314 908 406 900 b 360 971 415 965 394 971 l 168 971 b 97 942 122 971 100 965 b 211 817 92 900 151 914 l 413 486 l 117 143 b -36 28 36 49 -29 74 b 18 1 -37 7 -17 1 z "},"Ч":{"ha":974,"x_min":0,"x_max":0,"o":"m 775 1 b 847 29 825 1 846 8 b 786 135 854 72 790 57 b 789 178 786 149 786 164 l 875 794 b 886 838 878 810 881 824 b 979 943 908 915 974 900 b 914 971 982 965 961 971 l 761 971 b 689 943 713 971 692 965 b 750 838 683 900 747 917 b 747 794 750 824 750 810 l 697 438 b 439 410 600 419 504 410 b 264 713 236 410 239 544 l 276 793 b 288 836 279 807 282 822 b 381 942 310 914 374 899 b 315 969 383 963 363 969 l 163 969 b 89 942 114 969 93 963 b 150 836 83 899 149 914 b 149 793 151 822 151 807 l 133 683 b 399 346 107 497 136 346 b 689 374 472 346 578 356 l 661 178 b 650 135 658 164 656 149 b 557 29 628 57 563 72 b 622 1 556 8 576 1 z "},"Ц":{"ha":1072,"x_min":0,"x_max":0,"o":"m 965 -169 b 1000 -122 992 -169 997 -147 b 1001 15 1007 -67 1007 -24 b 922 64 997 47 986 64 b 878 119 889 64 874 83 l 972 794 b 983 838 975 810 978 824 b 1076 943 1006 915 1071 900 b 1011 971 1078 965 1057 971 l 858 971 b 786 943 808 971 788 965 b 847 838 779 900 843 917 b 844 794 847 824 847 810 l 750 126 b 501 64 744 82 724 64 b 258 126 269 64 253 82 l 353 794 b 364 838 356 810 358 824 b 457 943 385 915 450 900 b 392 971 458 965 438 971 l 238 971 b 167 943 189 971 168 965 b 226 838 160 900 224 917 b 224 794 226 824 226 810 l 140 190 b 126 133 136 163 132 147 b 33 28 106 57 40 71 b 99 0 31 7 53 0 l 763 0 b 919 -115 846 0 890 -40 b 965 -169 933 -154 944 -169 z "},"Ш":{"ha":1524,"x_min":0,"x_max":0,"o":"m 1328 0 b 1400 28 1375 0 1397 7 b 1336 133 1406 71 1338 57 b 1340 190 1336 147 1336 163 l 1425 794 b 1436 838 1428 810 1431 824 b 1529 943 1458 915 1524 900 b 1464 971 1532 965 1511 971 l 1311 971 b 1239 943 1261 971 1240 965 b 1300 838 1233 900 1296 917 b 1297 794 1300 824 1300 810 l 1204 126 b 996 64 1197 82 1176 64 b 796 126 807 64 789 82 l 889 794 b 900 838 892 810 894 824 b 993 943 922 915 988 900 b 928 971 994 965 974 971 l 775 971 b 703 943 725 971 704 965 b 764 838 696 900 760 917 b 761 794 764 824 764 810 l 667 126 b 460 64 661 82 640 64 b 258 126 269 64 253 82 l 353 794 b 364 838 356 810 358 824 b 457 943 385 915 450 900 b 392 971 458 965 438 971 l 238 971 b 167 943 189 971 168 965 b 226 838 160 900 224 917 b 224 794 226 824 226 810 l 140 190 b 126 133 136 163 132 147 b 33 28 106 57 40 71 b 99 0 31 7 53 0 z "},"Щ":{"ha":1525,"x_min":0,"x_max":0,"o":"m 1418 -169 b 1454 -122 1444 -169 1451 -147 b 1454 15 1460 -67 1460 -24 b 1375 64 1450 47 1439 64 b 1331 119 1342 64 1326 83 l 1425 794 b 1436 838 1428 810 1431 824 b 1529 943 1458 915 1524 900 b 1464 971 1532 965 1511 971 l 1311 971 b 1239 943 1261 971 1240 965 b 1300 838 1233 900 1296 917 b 1297 794 1300 824 1300 810 l 1204 126 b 996 64 1197 82 1176 64 b 796 126 807 64 789 82 l 889 794 b 900 838 892 810 894 824 b 993 943 922 915 988 900 b 928 971 994 965 974 971 l 775 971 b 703 943 725 971 704 965 b 764 838 696 900 760 917 b 761 794 764 824 764 810 l 667 126 b 460 64 661 82 640 64 b 258 126 269 64 253 82 l 353 794 b 364 838 356 810 358 824 b 457 943 385 915 450 900 b 392 971 458 965 438 971 l 238 971 b 167 943 189 971 168 965 b 226 838 160 900 224 917 b 224 794 226 824 226 810 l 140 190 b 126 133 136 163 132 147 b 33 28 106 57 40 71 b 99 0 31 7 53 0 l 1215 0 b 1372 -115 1299 0 1343 -40 b 1418 -169 1386 -154 1399 -169 z "},"Ь":{"ha":857,"x_min":0,"x_max":0,"o":"m 372 0 b 836 311 650 0 810 118 b 404 660 865 515 715 660 b 363 658 389 660 375 660 b 338 686 343 657 335 668 l 353 794 b 364 838 356 810 358 824 b 457 943 385 915 450 900 b 392 971 458 965 438 971 l 238 971 b 167 943 189 971 168 965 b 226 838 160 900 224 917 b 224 794 226 824 226 810 l 140 190 b 126 133 136 163 132 147 b 33 28 106 57 40 71 b 99 0 31 7 53 0 z m 376 60 b 254 100 264 60 251 74 l 319 563 b 389 600 324 592 338 601 b 694 286 583 597 719 469 b 376 60 671 118 540 60 z "},"Ы":{"ha":1310,"x_min":0,"x_max":0,"o":"m 372 0 b 836 311 650 0 810 118 b 404 660 865 515 715 660 b 363 658 389 660 375 660 b 338 686 343 657 335 668 l 353 794 b 364 838 356 810 358 824 b 457 943 385 915 450 900 b 392 971 458 965 438 971 l 238 971 b 167 943 189 971 168 965 b 226 838 160 900 224 917 b 224 794 226 824 226 810 l 140 190 b 126 133 136 163 132 147 b 33 28 106 57 40 71 b 99 0 31 7 53 0 z m 1113 1 b 1185 29 1163 1 1183 8 b 1124 135 1190 72 1128 57 b 1126 178 1124 149 1124 164 l 1213 794 b 1224 838 1215 810 1218 824 b 1317 943 1246 915 1311 900 b 1251 971 1319 965 1299 971 l 1099 971 b 1026 943 1049 971 1028 965 b 1088 838 1021 900 1083 917 b 1085 794 1088 824 1088 810 l 999 178 b 988 135 996 164 993 149 b 894 29 965 57 900 72 b 960 1 892 8 913 1 z m 376 60 b 254 100 264 60 251 74 l 319 563 b 389 600 324 592 338 601 b 694 286 583 597 719 469 b 376 60 671 118 540 60 z "},"Ъ":{"ha":994,"x_min":0,"x_max":0,"o":"m 508 0 b 974 311 788 0 947 118 b 542 660 1003 515 853 660 b 500 658 525 660 513 660 b 474 686 479 657 471 668 l 488 782 b 500 839 492 810 494 825 b 594 944 522 917 588 901 b 528 972 597 965 575 972 l 204 972 b 89 924 117 972 103 960 b 40 743 74 885 53 813 b 58 696 36 715 36 696 b 113 750 78 696 89 708 b 304 910 164 840 208 910 b 367 828 335 910 378 910 l 276 193 b 265 136 272 164 269 150 b 172 31 243 58 178 74 b 236 0 169 8 190 0 z m 515 63 b 393 103 403 63 390 76 l 457 563 b 526 600 461 592 474 601 b 832 286 719 597 857 469 b 515 63 808 118 679 63 z "},"Є":{"ha":926,"x_min":0,"x_max":0,"o":"m 465 -14 b 843 144 660 -14 797 85 b 817 192 876 188 853 217 b 533 89 742 133 653 89 b 217 471 331 89 203 243 b 383 418 276 436 332 418 b 597 488 468 418 528 488 b 740 431 654 488 710 431 b 776 457 763 431 774 442 b 574 582 781 494 658 582 b 333 506 501 582 419 506 b 224 539 297 506 263 515 b 592 914 257 738 386 914 b 860 731 760 914 811 814 b 904 682 876 699 885 682 b 932 731 926 682 931 703 b 921 910 931 813 925 869 b 878 983 915 968 904 983 b 815 967 856 983 846 967 b 644 986 775 967 736 986 b 78 489 349 986 119 783 b 465 -14 39 206 192 -14 z "},"Э":{"ha":919,"x_min":0,"x_max":0,"o":"m 313 -11 b 883 503 628 -14 844 217 b 506 986 924 785 765 986 b 281 967 382 986 319 967 b 219 983 249 967 242 983 b 157 910 193 983 179 968 b 110 731 142 869 124 813 b 126 682 104 703 104 682 b 181 732 146 682 157 699 b 489 926 242 814 318 926 b 751 539 697 926 771 742 b 631 506 707 515 667 506 b 413 582 544 506 485 582 b 176 457 329 582 181 494 b 203 431 174 442 182 431 b 363 488 235 431 306 488 b 557 418 433 488 472 418 b 742 472 610 418 671 436 b 374 57 697 246 554 57 b 118 224 233 57 154 136 b 79 275 104 258 99 272 b 44 233 58 276 46 258 b 49 101 39 164 46 139 b 144 8 53 44 90 22 b 313 -11 183 -3 239 -10 z "},"І":{"ha":450,"x_min":0,"x_max":0,"o":"m 253 1 b 325 29 301 1 322 8 b 264 135 331 72 267 57 b 267 178 264 149 264 164 l 353 794 b 364 838 356 810 358 824 b 457 943 385 915 450 900 b 392 971 458 965 438 971 l 238 971 b 167 943 189 971 168 965 b 226 838 160 900 224 917 b 224 794 226 824 226 810 l 139 178 b 126 135 136 164 132 149 b 33 29 106 57 40 72 b 99 1 32 8 53 1 z "},"Ї":{"ha":410,"x_min":0,"x_max":0,"o":"m 181 1078 b 279 1156 224 1078 272 1111 b 222 1219 283 1193 261 1219 b 128 1133 176 1219 135 1175 b 181 1078 124 1099 146 1078 z m 382 1078 b 481 1156 425 1078 474 1111 b 424 1219 485 1193 461 1219 b 329 1133 378 1219 336 1175 b 382 1078 324 1099 347 1078 z m 213 1 b 285 29 261 1 282 8 b 224 135 290 72 226 57 b 226 178 224 149 224 164 l 313 794 b 324 838 315 810 318 824 b 417 943 344 915 411 900 b 351 971 418 965 397 971 l 199 971 b 126 943 149 971 128 965 b 188 838 119 900 183 917 b 183 794 188 824 186 810 l 99 178 b 88 135 96 164 93 149 b -7 29 65 57 0 72 b 60 1 -8 8 13 1 z "},"Ю":{"ha":1475,"x_min":0,"x_max":0,"o":"m 1032 983 b 482 521 756 983 532 782 l 313 521 l 351 794 b 456 943 367 908 449 893 b 390 971 458 965 436 971 l 238 971 b 165 943 188 971 168 965 b 224 794 157 889 240 921 l 138 178 b 33 29 121 64 40 79 b 99 1 31 8 51 1 l 251 1 b 325 29 300 1 321 8 b 265 178 331 83 247 51 l 304 458 l 474 458 b 471 408 472 442 471 425 b 883 -10 471 160 661 -4 b 1443 576 1210 -21 1443 249 b 1032 983 1443 790 1299 983 z m 932 60 b 610 424 732 60 610 201 b 1010 917 610 683 775 917 b 1304 558 1194 917 1304 775 b 932 60 1304 308 1168 60 z "},"Я":{"ha":904,"x_min":0,"x_max":0,"o":"m 196 0 b 268 32 240 0 264 7 b 257 151 272 68 203 67 l 379 338 b 485 329 411 332 447 329 l 588 329 b 611 301 614 329 615 329 l 594 178 b 583 135 592 164 589 149 b 492 29 558 57 499 72 b 558 1 490 8 508 1 l 711 1 b 783 29 757 1 781 8 b 719 135 789 72 721 57 b 722 178 719 149 719 164 l 807 782 b 819 839 811 810 814 825 b 913 944 840 917 907 901 b 847 972 915 965 893 972 l 626 972 b 122 626 332 972 150 826 b 267 371 107 515 156 421 l 118 146 b -6 28 57 53 0 72 b 46 0 -8 7 11 0 z m 496 392 b 265 653 350 392 242 482 b 593 913 289 818 417 913 b 649 908 611 913 631 911 b 692 872 683 904 696 901 l 629 431 b 496 392 626 404 608 392 z "},"а":{"ha":835,"x_min":0,"x_max":0,"o":"m 756 121 b 696 82 738 121 719 82 b 671 133 671 82 669 104 l 700 624 b 671 681 703 661 697 681 b 569 651 642 681 614 651 b 410 681 535 651 474 681 b 49 233 204 681 49 468 b 275 -14 49 71 153 -14 b 543 154 392 -14 488 64 b 636 -10 531 13 578 -10 b 769 101 707 -10 763 50 b 756 121 771 114 764 121 z m 332 82 b 181 285 265 82 181 124 b 407 619 182 424 258 619 b 565 442 494 619 574 557 l 563 401 b 332 82 551 222 446 82 z "},"б":{"ha":804,"x_min":0,"x_max":0,"o":"m 353 793 b 665 858 478 847 568 813 b 772 981 728 886 765 928 b 732 997 776 1011 756 1014 b 676 971 717 988 701 979 b 567 953 647 958 610 956 b 356 910 478 947 403 933 b 68 417 186 831 99 638 b 349 -14 28 118 172 -14 b 754 415 568 -14 750 181 b 489 686 757 563 660 686 b 179 475 356 686 240 601 b 353 793 186 658 274 761 z m 199 286 b 450 611 201 442 301 611 b 621 407 574 611 621 517 b 367 51 621 236 526 51 b 199 286 254 51 196 154 z "},"в":{"ha":699,"x_min":0,"x_max":0,"o":"m 326 -14 b 624 219 486 -14 624 74 b 476 369 624 297 563 356 b 646 540 571 390 646 460 b 451 681 646 635 561 679 b 50 260 239 681 50 482 b 326 -14 50 100 165 -14 z m 349 47 b 179 282 224 47 179 156 b 422 622 179 432 276 622 b 525 531 483 622 525 582 b 336 388 525 450 447 389 b 292 354 310 388 293 369 b 321 329 289 342 299 329 b 483 204 413 328 483 285 b 349 47 483 114 422 47 z "},"г":{"ha":579,"x_min":0,"x_max":0,"o":"m 215 -12 b 476 111 351 -12 446 74 b 451 156 506 143 486 179 b 258 78 417 129 343 78 b 161 158 207 78 161 99 b 313 325 161 236 233 281 b 508 551 406 379 508 433 b 346 681 508 636 436 681 b 100 564 251 681 158 639 b 131 528 69 525 106 510 b 304 599 192 574 247 599 b 382 540 353 599 381 572 b 265 383 385 478 335 426 b 32 138 163 319 32 260 b 215 -12 32 65 79 -12 z "},"ґ":{"ha":579,"x_min":0,"x_max":0,"o":"m 301 758 b 533 861 361 736 513 803 b 483 942 549 901 525 942 b 381 881 453 942 422 915 b 286 783 331 835 293 799 b 301 758 283 775 285 764 z m 215 -12 b 476 111 351 -12 446 74 b 451 156 506 143 486 179 b 258 78 417 129 343 78 b 161 158 207 78 161 99 b 313 325 161 236 233 281 b 508 551 406 379 508 433 b 346 681 508 636 436 681 b 100 564 251 681 158 639 b 131 528 69 525 106 510 b 304 599 192 574 247 599 b 382 540 353 599 381 572 b 265 383 385 478 335 426 b 32 138 163 319 32 260 b 215 -12 32 65 79 -12 z "},"д":{"ha":746,"x_min":0,"x_max":0,"o":"m 376 968 b 319 943 343 975 321 960 b 338 918 318 933 324 925 b 560 603 456 858 532 779 b 394 679 521 651 464 678 b 54 285 188 679 54 488 b 329 -14 54 103 165 -14 b 703 496 582 -14 703 242 b 376 968 701 747 575 914 z m 349 49 b 186 271 236 49 186 156 b 406 608 186 433 254 608 b 565 406 519 608 565 519 b 349 49 565 242 496 49 z "},"е":{"ha":722,"x_min":0,"x_max":0,"o":"m 599 185 b 374 81 542 132 468 81 b 194 221 283 81 215 140 b 658 522 446 257 658 349 b 458 681 658 625 568 681 b 51 271 206 681 51 450 b 325 -14 51 81 182 -14 b 635 160 479 -14 597 90 b 599 185 654 194 625 208 z m 414 615 b 533 501 485 615 533 568 b 228 288 533 390 406 315 b 185 317 193 282 185 299 b 414 615 185 485 293 615 z "},"ё":{"ha":722,"x_min":0,"x_max":0,"o":"m 328 788 b 415 867 372 788 415 822 b 350 931 415 904 389 931 b 268 844 304 931 268 886 b 328 788 268 810 294 788 z m 529 788 b 617 867 574 788 617 822 b 551 931 617 904 589 931 b 469 844 506 931 469 886 b 529 788 469 810 496 788 z m 599 185 b 374 81 542 132 468 81 b 194 221 283 81 215 140 b 658 522 446 257 658 349 b 458 681 658 625 568 681 b 51 271 206 681 51 450 b 325 -14 51 81 182 -14 b 635 160 479 -14 597 90 b 599 185 654 194 625 208 z m 414 615 b 533 501 485 615 533 568 b 228 288 533 390 406 315 b 185 317 193 282 185 299 b 414 615 185 485 293 615 z "},"ж":{"ha":1028,"x_min":0,"x_max":0,"o":"m 71 -10 b 242 163 157 -10 197 65 b 421 329 292 267 358 329 b 446 303 447 329 449 328 l 428 171 b 418 128 425 156 422 142 b 340 28 396 54 346 68 b 390 0 338 6 358 0 l 540 0 b 599 26 574 0 596 6 b 553 128 604 68 556 54 b 554 171 551 142 553 156 l 569 300 b 604 329 572 328 574 329 b 736 163 668 329 717 267 b 858 -10 754 65 774 -10 b 961 42 906 -10 960 10 b 940 61 961 54 954 61 b 858 185 896 63 888 76 b 689 356 835 274 813 333 b 788 443 732 371 764 410 b 874 557 828 497 849 557 b 947 517 907 557 904 517 b 1017 596 974 517 1008 538 b 943 681 1024 649 988 681 b 746 476 847 681 803 563 b 624 388 713 426 676 388 l 611 388 b 586 414 585 388 583 388 l 597 496 b 607 540 599 511 603 525 b 685 640 629 613 678 599 b 633 667 688 661 665 667 l 485 667 b 426 640 450 667 429 661 b 472 540 421 599 469 613 b 471 496 474 525 472 511 l 460 414 b 429 388 457 388 456 388 l 417 388 b 324 468 367 388 343 424 b 182 681 289 556 279 681 b 85 596 136 681 92 649 b 132 517 76 538 106 517 b 215 557 175 517 182 557 b 274 431 242 557 243 488 b 343 354 288 403 308 369 b 126 185 214 332 176 274 b 10 61 68 76 54 63 b -17 42 -4 61 -15 54 b 71 -10 -24 10 24 -10 z "},"з":{"ha":619,"x_min":0,"x_max":0,"o":"m 267 -14 b 543 197 388 -14 522 54 b 396 369 553 265 515 346 b 549 529 474 389 539 449 b 371 681 563 636 464 681 b 244 668 303 681 275 668 b 200 681 221 668 217 681 b 156 628 182 681 172 669 b 126 524 144 599 133 561 b 138 489 121 503 122 489 b 181 522 153 489 163 499 b 338 619 218 572 260 619 b 417 525 403 619 424 571 b 228 386 410 471 363 399 b 219 332 196 383 185 335 b 419 186 379 328 431 261 b 249 61 406 88 314 61 b 74 125 178 61 111 86 b 32 97 53 147 17 131 b 267 -14 63 29 156 -14 z "},"и":{"ha":857,"x_min":0,"x_max":0,"o":"m 761 121 b 700 82 743 121 726 82 b 678 135 676 82 672 104 l 754 644 b 722 674 757 661 746 681 l 656 654 b 624 624 640 650 626 644 l 599 469 b 321 68 563 250 436 68 b 238 276 211 68 226 196 l 290 644 b 264 678 294 664 283 678 b 171 653 246 678 215 671 b 93 594 104 625 93 614 b 140 506 93 561 151 581 l 106 247 b 283 -14 83 78 147 -14 b 556 178 394 -14 485 64 b 642 -10 529 31 576 -10 b 775 101 714 -10 769 50 b 761 121 776 114 769 121 z "},"й":{"ha":857,"x_min":0,"x_max":0,"o":"m 468 742 b 694 888 581 742 682 803 b 656 935 699 913 682 935 b 476 796 579 935 571 796 b 336 935 381 796 411 935 b 282 888 308 935 286 913 b 468 742 271 804 351 742 z m 761 121 b 700 82 743 121 726 82 b 678 135 676 82 672 104 l 754 644 b 722 674 757 661 746 681 l 656 654 b 624 624 640 650 626 644 l 599 469 b 321 68 563 250 436 68 b 238 276 211 68 226 196 l 290 644 b 264 678 294 664 283 678 b 171 653 246 678 215 671 b 93 594 104 625 93 614 b 140 506 93 561 151 581 l 106 247 b 283 -14 83 78 147 -14 b 556 178 394 -14 485 64 b 642 -10 529 31 576 -10 b 775 101 714 -10 769 50 b 761 121 776 114 769 121 z "},"к":{"ha":746,"x_min":0,"x_max":0,"o":"m 578 -10 b 679 42 624 -10 678 10 b 660 61 679 54 672 61 b 569 185 615 63 606 76 b 401 360 539 274 525 338 b 585 557 508 421 544 557 b 658 517 618 557 615 517 b 726 596 685 517 718 538 b 654 681 735 649 699 681 b 296 388 503 681 479 388 l 283 388 b 260 414 258 388 257 390 l 269 496 b 279 540 271 511 275 525 b 357 640 301 613 350 599 b 306 667 360 661 339 667 l 157 667 b 99 640 124 667 101 661 b 144 540 93 599 142 613 b 143 496 146 525 144 511 l 100 171 b 90 128 99 156 94 142 b 13 28 68 54 18 68 b 64 0 10 6 31 0 l 213 0 b 271 26 246 0 268 6 b 225 128 276 68 228 54 b 226 171 224 142 225 156 l 243 307 b 275 329 244 326 253 329 b 447 163 378 329 419 265 b 578 -10 472 65 492 -10 z "},"л":{"ha":829,"x_min":0,"x_max":0,"o":"m 69 -14 b 200 56 119 -14 167 10 b 363 547 290 161 331 389 b 478 606 374 600 400 600 b 568 549 554 611 574 594 l 507 125 b 603 -10 494 46 526 -10 b 736 101 675 -10 731 50 b 722 121 738 114 731 121 b 661 82 706 121 688 82 b 632 133 638 82 628 104 l 690 533 b 751 642 700 604 746 603 b 699 668 753 658 742 668 b 442 665 635 668 528 671 b 236 610 289 656 236 643 b 271 574 236 593 251 582 b 289 504 293 563 296 547 b 119 78 271 375 200 78 b 51 132 85 78 103 132 b -12 65 24 132 -6 104 b 69 -14 -21 3 36 -14 z "},"м":{"ha":1040,"x_min":0,"x_max":0,"o":"m 69 -14 b 197 56 119 -14 164 10 b 350 496 289 161 328 389 b 426 69 374 351 397 210 b 492 47 433 39 460 42 b 542 86 514 53 529 64 l 768 497 l 740 126 b 836 -10 733 46 758 -10 b 969 101 908 -10 964 50 b 956 121 971 114 965 121 b 894 82 939 121 921 82 b 867 135 871 82 863 104 l 908 631 b 883 671 911 665 900 672 b 806 656 850 669 831 665 b 768 618 792 650 781 640 l 529 192 b 449 649 499 344 475 496 b 424 671 446 663 436 671 b 293 642 390 671 333 657 b 236 593 258 628 239 613 b 268 561 235 574 251 568 b 289 513 281 554 293 543 b 119 78 268 376 200 78 b 51 132 85 78 103 132 b -12 65 24 132 -6 104 b 69 -14 -21 3 36 -14 z "},"н":{"ha":851,"x_min":0,"x_max":0,"o":"m 767 121 b 706 82 750 121 732 82 b 676 133 682 82 672 104 l 751 650 b 721 678 754 669 742 682 l 651 663 b 622 632 635 660 625 650 l 586 371 l 253 371 l 292 644 b 265 675 296 664 285 675 b 172 653 249 675 225 672 b 94 596 104 628 94 614 b 142 499 94 561 151 574 l 74 14 b 104 -15 71 -7 85 -19 l 176 0 b 206 31 193 3 203 14 l 244 311 l 578 311 l 551 126 b 647 -10 540 46 571 -10 b 782 101 719 -10 775 50 b 767 121 782 114 775 121 z "},"о":{"ha":790,"x_min":0,"x_max":0,"o":"m 344 -14 b 738 406 564 -14 738 174 b 453 681 738 553 635 681 b 51 268 235 681 51 488 b 344 -14 51 104 169 -14 z m 365 50 b 188 288 239 50 189 157 b 435 618 189 436 275 618 b 594 392 556 618 594 510 b 365 50 594 231 513 50 z "},"п":{"ha":864,"x_min":0,"x_max":0,"o":"m 779 121 b 718 82 763 121 744 82 b 696 133 694 82 694 104 l 713 443 b 547 676 721 596 663 676 b 253 458 429 676 325 593 l 281 644 b 254 675 283 664 274 675 b 171 653 236 675 215 672 b 93 594 106 624 93 614 b 140 499 93 561 151 575 l 71 18 b 100 -10 68 -4 81 -15 l 171 8 b 197 39 186 13 194 21 l 224 190 b 490 585 261 410 378 585 b 586 435 567 585 590 524 l 569 126 b 660 -10 564 46 585 -10 b 793 101 732 -10 788 50 b 779 121 794 114 788 121 z "},"р":{"ha":790,"x_min":0,"x_max":0,"o":"m 531 675 b 271 547 426 675 331 618 l 285 646 b 260 676 288 665 279 676 b 175 654 242 676 228 674 b 97 600 108 629 97 615 b 149 511 97 569 156 568 l 60 -111 b -24 -253 46 -215 -19 -214 b 33 -278 -26 -272 -14 -278 l 164 -278 b 229 -253 210 -278 226 -272 b 188 -111 233 -217 174 -217 l 206 17 b 343 -10 250 -1 296 -10 b 743 439 544 -10 740 161 b 531 675 747 561 676 675 z m 360 54 b 222 258 276 54 207 111 b 458 583 243 456 349 583 b 601 421 551 583 600 517 b 360 54 604 233 507 54 z "},"с":{"ha":744,"x_min":0,"x_max":0,"o":"m 351 -14 b 661 151 506 -14 624 82 b 625 176 678 185 654 201 b 399 86 568 124 496 86 b 185 318 265 86 185 183 b 404 615 185 464 269 615 b 536 439 524 615 543 510 b 594 365 531 390 557 367 b 681 451 636 365 672 399 b 439 681 697 551 618 681 b 53 274 225 681 53 496 b 351 -14 53 113 168 -14 z "},"т":{"ha":1315,"x_min":0,"x_max":0,"o":"m 1231 121 b 1169 82 1214 121 1196 82 b 1147 133 1146 82 1146 104 l 1164 443 b 997 676 1172 596 1113 676 b 721 488 892 676 790 601 b 544 676 721 608 657 676 b 256 472 435 676 324 589 l 279 644 b 253 675 283 664 272 675 b 171 653 235 675 214 672 b 93 594 104 624 93 614 b 140 499 93 561 151 575 l 68 15 b 97 -14 65 -7 76 -19 l 168 6 b 196 35 185 10 193 17 l 222 190 b 497 589 260 410 374 589 b 583 385 581 589 604 525 l 529 17 b 558 -12 526 -6 539 -18 l 629 7 b 657 36 646 11 654 18 l 683 190 b 942 589 721 410 831 589 b 1038 435 1017 589 1043 524 l 1019 126 b 1111 -10 1015 46 1035 -10 b 1244 101 1183 -10 1239 50 b 1231 121 1246 114 1239 121 z "},"у":{"ha":724,"x_min":0,"x_max":0,"o":"m 608 681 b 511 594 557 681 511 636 b 568 424 511 533 568 525 b 418 42 568 315 503 172 b 239 650 368 264 308 456 b 201 679 231 671 217 679 b 47 569 165 679 47 611 b 85 547 47 554 63 547 b 151 506 124 549 140 536 b 283 83 208 358 254 207 b 296 -43 296 22 300 -11 b 136 -203 285 -125 219 -203 b 36 -139 75 -203 54 -174 b -35 -86 14 -96 -10 -86 b -111 -172 -81 -86 -111 -124 b 46 -292 -111 -242 -60 -292 b 475 17 221 -292 358 -162 b 681 592 553 135 681 383 b 608 681 681 636 665 681 z "},"ф":{"ha":1090,"x_min":0,"x_max":0,"o":"m 525 -278 b 589 -253 569 -278 586 -272 b 544 -111 594 -215 528 -217 l 563 31 b 707 -14 606 1 653 -14 b 1032 331 875 -14 1003 124 b 824 681 1063 547 983 681 b 644 606 757 681 690 654 l 696 958 b 672 989 699 983 690 990 b 539 943 651 988 604 972 b 494 907 504 928 496 921 b 515 874 492 892 500 883 b 543 767 547 851 549 814 l 521 608 b 379 681 490 656 436 681 b 56 324 203 681 81 507 b 282 -14 24 106 133 -14 b 439 31 336 -14 390 1 l 421 -111 b 335 -253 406 -215 340 -214 b 393 -278 332 -272 346 -278 z m 718 51 b 582 164 624 51 576 124 l 622 447 b 771 603 635 536 690 603 b 901 301 889 603 925 475 b 718 51 878 138 818 51 z m 328 53 b 186 347 238 53 157 138 b 385 601 203 474 275 601 b 497 447 472 601 510 538 l 458 165 b 328 53 453 122 408 53 z "},"х":{"ha":713,"x_min":0,"x_max":0,"o":"m 642 676 b 379 411 550 676 460 538 l 286 653 b 253 679 279 672 267 679 b 110 565 219 679 110 606 b 149 547 110 547 126 543 b 211 504 176 553 197 540 l 288 306 b 103 103 215 196 147 103 b 42 133 79 103 69 133 b -14 64 13 133 -14 100 b 60 -14 -14 26 6 -14 b 314 238 149 -14 235 111 l 350 144 b 492 -14 379 69 408 -14 b 633 75 558 -14 633 38 b 618 92 633 85 629 92 b 557 78 600 92 589 78 b 453 221 507 78 476 158 l 406 343 b 597 560 481 453 551 560 b 658 529 621 560 631 529 b 714 599 689 529 713 563 b 642 676 715 636 696 676 z "},"ч":{"ha":758,"x_min":0,"x_max":0,"o":"m 554 -10 b 689 101 626 -10 682 50 b 675 121 690 114 683 121 b 613 82 657 121 639 82 b 585 133 590 82 581 104 l 658 650 b 628 678 661 669 649 682 l 557 663 b 529 633 542 660 531 650 l 518 547 b 318 292 492 353 400 292 b 235 500 224 293 217 392 l 258 644 b 231 676 261 664 250 676 b 144 654 214 676 189 671 b 64 599 74 629 64 614 b 90 569 64 586 71 578 b 113 500 115 558 118 540 b 99 386 106 453 99 426 b 274 215 99 272 164 215 b 485 308 356 215 432 243 l 458 126 b 554 -10 447 46 478 -10 z "},"ц":{"ha":839,"x_min":0,"x_max":0,"o":"m 772 121 b 700 82 744 121 726 82 b 678 135 678 82 674 104 l 750 644 b 718 674 753 661 742 681 l 651 654 b 619 624 636 650 622 644 l 599 469 b 321 68 569 250 449 68 b 238 276 213 68 226 196 l 290 644 b 264 676 294 664 283 676 b 174 654 246 676 233 674 b 93 599 103 631 93 614 b 119 569 93 586 100 578 b 140 500 144 558 147 542 l 106 247 b 285 -14 82 78 150 -14 b 550 164 400 -14 483 57 b 642 -10 529 33 579 -10 b 729 25 676 -10 707 4 b 646 -85 724 -17 689 -47 b 550 -221 606 -121 550 -154 b 586 -283 550 -250 569 -272 b 626 -271 606 -294 629 -296 b 640 -231 625 -258 626 -243 b 761 -112 682 -189 721 -162 b 811 64 794 -72 811 -12 b 772 121 811 89 794 121 z "},"ш":{"ha":1201,"x_min":0,"x_max":0,"o":"m 1117 121 b 1056 82 1100 121 1082 82 b 1033 135 1032 82 1029 104 l 1106 644 b 1074 674 1108 661 1097 681 l 1007 654 b 975 624 992 650 978 644 l 950 443 b 714 68 925 250 825 68 b 644 250 621 68 633 176 l 696 644 b 665 674 700 661 688 681 l 597 654 b 565 624 582 650 568 644 l 542 443 b 304 69 517 260 424 69 b 235 250 213 69 224 178 l 290 644 b 264 676 294 664 283 676 b 174 654 246 676 233 674 b 93 599 103 631 93 614 b 119 569 93 586 100 578 b 140 500 144 558 147 542 l 106 247 b 264 -14 82 78 147 -14 b 514 163 364 -14 456 56 b 672 -14 519 43 583 -14 b 907 140 763 -14 847 44 b 997 -10 894 24 938 -10 b 1132 101 1069 -10 1125 50 b 1117 121 1133 114 1126 121 z "},"щ":{"ha":1193,"x_min":0,"x_max":0,"o":"m 1128 121 b 1056 82 1100 121 1082 82 b 1033 135 1032 82 1029 104 l 1106 644 b 1074 674 1108 661 1097 681 l 1007 654 b 975 624 992 650 978 644 l 950 443 b 714 68 925 250 828 68 b 644 250 621 68 633 176 l 696 644 b 665 674 700 661 688 681 l 597 654 b 565 624 582 650 568 644 l 542 443 b 304 69 517 256 424 69 b 235 250 213 69 224 178 l 290 644 b 264 676 294 664 283 676 b 174 654 246 676 233 674 b 93 599 103 631 93 614 b 119 569 93 586 100 578 b 140 500 144 558 147 542 l 106 247 b 264 -14 82 78 147 -14 b 514 163 367 -14 457 56 b 672 -14 519 43 583 -14 b 907 138 763 -14 846 44 b 997 -10 896 24 939 -10 b 1085 25 1032 -10 1063 4 b 1000 -85 1079 -17 1044 -47 b 906 -221 961 -121 906 -154 b 942 -283 906 -250 924 -272 b 982 -271 960 -294 985 -296 b 994 -231 981 -258 982 -243 b 1117 -112 1038 -189 1076 -162 b 1167 64 1149 -72 1167 -12 b 1128 121 1167 89 1150 121 z "},"ь":{"ha":699,"x_min":0,"x_max":0,"o":"m 457 501 b 254 406 378 501 306 463 l 289 644 b 261 676 292 664 281 676 b 176 654 244 676 233 674 b 96 599 104 629 96 614 b 143 500 96 567 153 567 l 108 246 b 300 -14 83 75 168 -14 b 635 331 514 -14 635 175 b 457 501 635 428 571 501 z m 335 56 b 236 200 278 56 228 101 b 404 421 246 319 315 421 b 506 308 475 421 503 369 b 335 56 510 193 439 56 z "},"ы":{"ha":989,"x_min":0,"x_max":0,"o":"m 906 121 b 844 82 888 121 871 82 b 815 133 821 82 810 104 l 889 650 b 858 678 892 669 879 682 l 789 663 b 761 632 774 660 764 650 l 690 126 b 785 -10 679 46 710 -10 b 919 101 858 -10 914 50 b 906 121 921 114 914 121 z m 454 501 b 251 406 375 501 303 463 l 286 644 b 258 676 289 664 278 676 b 174 654 242 676 231 674 b 93 599 103 629 93 614 b 140 500 93 567 151 567 l 106 246 b 299 -14 81 75 167 -14 b 632 331 513 -14 632 175 b 454 501 632 428 568 501 z m 332 56 b 233 200 276 56 226 101 b 403 421 243 319 313 421 b 503 308 472 421 500 369 b 332 56 507 193 438 56 z "},"ъ":{"ha":744,"x_min":0,"x_max":0,"o":"m 493 501 b 294 400 415 501 343 458 l 363 644 b 343 676 369 665 358 676 b 132 667 274 678 201 674 b 18 618 46 658 32 654 b -12 524 3 579 -6 551 b 6 476 -17 497 -17 476 b 63 526 25 476 35 489 b 175 606 106 583 135 606 b 203 525 213 606 221 590 b 138 260 176 422 146 332 b 354 -14 114 71 213 -14 b 682 326 563 -14 682 165 b 493 501 682 428 608 501 z m 376 51 b 269 203 306 51 257 103 b 451 421 285 325 357 421 b 553 308 526 421 551 369 b 376 51 554 193 486 51 z "},"є":{"ha":731,"x_min":0,"x_max":0,"o":"m 338 -14 b 647 151 490 -14 608 82 b 610 176 665 186 636 200 b 401 86 553 124 482 86 b 179 310 254 86 182 178 b 247 329 206 324 225 329 b 401 281 306 329 340 281 b 553 374 458 281 547 333 b 536 394 554 386 549 394 b 432 358 515 394 479 358 b 286 404 379 358 340 404 b 182 364 258 404 219 389 l 183 372 b 411 614 204 524 301 614 b 624 513 525 614 557 513 b 683 563 654 513 679 533 b 471 681 693 633 575 681 b 53 307 239 681 81 504 b 338 -14 29 139 122 -14 z "},"э":{"ha":711,"x_min":0,"x_max":0,"o":"m 260 -14 b 654 342 500 -14 628 161 b 371 681 681 526 586 681 b 211 663 274 681 249 663 b 161 681 188 663 178 681 b 117 628 143 681 133 669 b 88 524 106 599 94 561 b 99 489 82 503 82 489 b 142 522 113 489 124 499 b 328 619 179 572 240 619 b 528 376 468 619 528 500 b 461 357 503 363 483 357 b 308 407 403 357 369 407 b 156 313 251 407 163 353 b 172 292 154 300 160 292 b 278 328 193 292 229 328 b 422 283 331 328 368 283 b 524 321 450 283 488 296 b 261 51 499 147 401 51 b 76 125 188 51 114 86 b 33 99 54 149 19 132 b 260 -14 64 31 169 -14 z "},"і":{"ha":390,"x_min":0,"x_max":0,"o":"m 228 785 b 349 883 282 781 344 835 b 286 956 350 918 324 953 b 165 854 231 963 168 904 b 228 785 163 815 190 788 z m 178 -10 b 311 101 250 -10 306 50 b 297 121 313 114 306 121 b 236 82 281 121 263 82 b 213 133 213 82 208 104 l 286 644 b 260 676 289 664 279 676 b 172 653 242 676 225 672 b 94 599 104 628 94 614 b 142 499 94 564 153 572 l 86 126 b 178 -10 74 46 101 -10 z "},"ї":{"ha":390,"x_min":0,"x_max":0,"o":"m 99 789 b 186 868 143 789 186 824 b 121 932 186 906 160 932 b 39 846 75 932 39 888 b 99 789 39 811 65 789 z m 300 789 b 388 868 344 789 388 824 b 322 932 388 906 360 932 b 240 846 276 932 240 888 b 300 789 240 811 267 789 z m 178 -10 b 311 101 250 -10 306 50 b 297 121 313 114 306 121 b 236 82 281 121 263 82 b 213 133 213 82 208 104 l 286 644 b 260 676 289 664 279 676 b 172 653 242 676 225 672 b 94 599 104 628 94 614 b 142 499 94 564 153 572 l 86 126 b 178 -10 74 46 101 -10 z "},"ю":{"ha":1096,"x_min":0,"x_max":0,"o":"m 758 681 b 371 371 575 681 417 544 l 253 371 l 292 644 b 264 675 294 664 283 675 b 172 653 247 675 224 672 b 93 596 104 628 93 614 b 140 499 93 561 151 574 l 74 14 b 103 -15 69 -7 83 -19 l 175 0 b 204 31 192 3 201 14 l 244 310 l 360 310 b 357 268 358 296 357 282 b 650 -14 357 104 475 -14 b 1043 406 869 -14 1043 174 b 758 681 1043 553 940 681 z m 669 50 b 493 288 544 50 493 157 b 739 618 493 436 581 618 b 900 392 860 618 900 510 b 669 50 900 231 818 50 z "},"я":{"ha":760,"x_min":0,"x_max":0,"o":"m 556 -14 b 690 101 629 -14 685 50 b 676 121 692 114 685 121 b 614 82 658 121 640 82 b 588 133 592 82 582 104 l 636 500 b 721 642 649 603 715 603 b 660 667 722 658 711 667 l 493 667 b 100 436 244 667 118 567 b 217 264 89 360 132 296 b 111 146 161 238 139 193 b 7 57 69 72 44 63 b -19 36 -7 56 -15 49 b 67 -10 -26 4 28 -10 b 233 126 164 -10 211 74 b 364 243 271 217 286 242 b 457 249 394 243 425 244 b 474 231 468 250 476 243 l 461 126 b 556 -14 450 44 479 -14 z m 386 304 b 228 449 250 304 218 378 b 456 607 243 553 325 607 b 522 576 515 607 525 597 l 488 332 b 386 304 485 314 475 304 z "},"⁄":{"ha":513,"x_min":0,"x_max":0,"o":"m 36 -139 b 75 -112 54 -139 67 -131 l 575 992 b 554 1028 586 1015 578 1028 l 539 1028 b 501 1001 521 1028 508 1019 l 0 -103 b 22 -139 -10 -126 -3 -139 z "},"¹":{"ha":347,"x_min":0,"x_max":0,"o":"m 275 964 b 261 983 278 979 272 983 b 176 958 249 982 207 969 b 121 926 126 940 121 936 b 147 906 119 918 124 913 b 179 847 182 896 183 879 l 125 471 b 68 382 117 407 68 408 b 106 367 68 371 76 367 l 208 367 b 246 382 236 367 246 371 b 206 471 246 406 196 406 z "},"²":{"ha":578,"x_min":0,"x_max":0,"o":"m 486 818 b 339 986 503 917 440 986 b 128 857 240 986 161 919 b 150 842 115 835 135 825 b 297 919 201 899 250 919 b 396 806 367 919 406 875 b 49 415 379 689 207 544 b 33 386 39 407 33 396 b 58 364 33 375 40 364 b 150 418 88 365 114 418 b 368 369 208 418 274 369 b 476 482 433 369 476 424 b 464 503 476 494 474 503 b 365 450 444 503 442 450 b 183 476 279 450 250 476 b 486 818 372 617 471 715 z "},"³":{"ha":539,"x_min":0,"x_max":0,"o":"m 544 944 b 531 976 558 963 550 976 b 482 943 513 976 500 943 b 261 985 410 943 339 985 b 172 919 208 985 189 963 b 171 840 164 897 149 840 b 213 878 185 840 192 857 b 283 903 231 896 258 903 b 439 882 343 903 379 885 b 249 721 379 821 317 769 b 253 683 228 707 225 685 b 424 542 358 674 436 635 b 271 419 411 460 340 419 b 100 508 190 419 136 453 b 68 492 89 524 63 513 b 279 358 88 425 164 358 b 514 543 428 358 501 454 b 328 736 532 667 431 726 b 544 944 410 797 482 871 z "}," ":{"ha":278,"x_min":0,"x_max":0,"o":""}," ":{"ha":278,"x_min":0,"x_max":0,"o":""},".":{"ha":304,"x_min":0,"x_max":0,"o":"m 111 -14 b 204 78 160 -14 204 21 b 132 154 204 129 171 154 b 36 60 85 154 36 118 b 111 -14 36 10 71 -14 z "},",":{"ha":315,"x_min":0,"x_max":0,"o":"m 46 -189 b 211 54 96 -189 211 -82 b 124 149 211 111 175 149 b 36 57 83 149 36 117 b 90 -64 36 -4 90 -22 b 28 -174 90 -115 28 -150 b 46 -189 28 -182 35 -189 z "},":":{"ha":304,"x_min":0,"x_max":0,"o":"m 172 417 b 265 508 221 417 265 451 b 193 585 265 560 232 585 b 97 490 146 585 97 549 b 172 417 97 440 132 417 z m 111 -14 b 204 78 160 -14 204 21 b 132 154 204 129 171 154 b 36 60 85 154 36 118 b 111 -14 36 10 71 -14 z "},";":{"ha":319,"x_min":0,"x_max":0,"o":"m 171 417 b 265 508 221 417 265 451 b 193 585 265 560 232 585 b 97 490 146 585 97 549 b 171 417 97 440 132 417 z m 49 -189 b 213 54 99 -189 213 -82 b 125 149 213 111 176 149 b 39 57 86 149 39 117 b 93 -64 39 -4 93 -22 b 31 -174 93 -115 31 -150 b 49 -189 31 -182 38 -189 z "},"…":{"ha":854,"x_min":0,"x_max":0,"o":"m 110 -17 b 204 75 160 -17 204 18 b 132 151 204 126 171 151 b 36 57 85 151 36 115 b 110 -17 36 7 71 -17 z m 379 -17 b 474 75 429 -17 474 18 b 401 151 474 126 440 151 b 306 57 354 151 306 115 b 379 -17 306 7 340 -17 z m 658 -17 b 753 75 708 -17 753 18 b 681 151 753 126 719 151 b 585 57 633 151 585 115 b 658 -17 585 7 619 -17 z "},"!":{"ha":306,"x_min":0,"x_max":0,"o":"m 153 339 b 174 364 167 339 169 347 b 315 893 225 628 306 815 b 243 986 325 950 292 986 b 146 893 196 986 156 950 b 139 364 136 815 163 628 b 153 339 138 347 142 339 z m 111 -17 b 204 75 160 -17 204 18 b 132 151 204 126 171 151 b 36 57 85 151 36 115 b 111 -17 36 7 71 -17 z "},"¡":{"ha":322,"x_min":0,"x_max":0,"o":"m 188 514 b 282 607 238 514 282 550 b 208 682 282 657 247 682 b 114 588 163 682 114 646 b 188 514 114 538 149 514 z m 68 -319 b 167 -226 115 -319 157 -283 b 172 303 176 -149 149 39 b 158 328 174 321 171 328 b 138 303 146 328 142 321 b -3 -226 86 39 7 -149 b 68 -319 -12 -283 19 -319 z "},"?":{"ha":596,"x_min":0,"x_max":0,"o":"m 315 374 b 360 482 322 413 339 453 b 622 794 440 594 601 667 b 386 986 639 904 549 986 b 93 794 222 986 106 888 b 149 722 86 750 110 722 b 221 788 192 722 206 750 b 376 924 264 886 317 924 b 472 797 444 924 483 875 b 258 379 449 649 285 564 b 315 374 251 332 307 333 z m 242 -17 b 336 75 292 -17 336 18 b 264 151 336 126 303 151 b 168 57 217 151 168 115 b 242 -17 168 7 203 -17 z "},"¿":{"ha":561,"x_min":0,"x_max":0,"o":"m 329 514 b 424 606 378 514 424 549 b 350 682 424 657 389 682 b 254 586 304 682 254 644 b 329 514 254 538 290 514 z m 194 -319 b 489 -128 358 -319 475 -221 b 433 -56 496 -83 472 -56 b 361 -121 390 -56 376 -83 b 204 -257 317 -219 265 -257 b 110 -131 138 -257 97 -208 b 324 288 132 19 297 103 b 265 293 329 335 274 333 b 221 185 260 254 242 214 b -42 -128 140 74 -21 0 b 194 -319 -58 -237 32 -319 z "},"·":{"ha":324,"x_min":0,"x_max":0,"o":"m 153 243 b 246 335 201 243 246 278 b 174 411 246 386 213 411 b 78 317 126 411 78 375 b 153 243 78 267 113 243 z "},"•":{"ha":417,"x_min":0,"x_max":0,"o":"m 193 210 b 317 329 257 210 317 256 b 221 428 317 396 271 428 b 97 304 161 428 97 381 b 193 210 97 240 143 210 z "},"*":{"ha":656,"x_min":0,"x_max":0,"o":"m 151 438 b 247 450 175 414 218 418 b 326 599 282 485 294 544 b 400 600 350 633 388 635 b 439 450 417 551 414 485 b 532 438 461 418 500 414 b 551 533 564 461 571 503 b 435 611 528 569 475 582 b 465 683 403 636 421 681 b 615 685 514 686 572 671 b 671 771 654 700 679 736 b 589 808 664 806 626 821 b 458 715 546 794 504 746 b 404 758 421 689 386 715 b 472 899 422 803 467 857 b 417 968 478 938 453 968 b 342 899 381 968 347 938 b 369 758 336 856 363 808 b 301 715 376 715 335 689 b 200 808 269 743 238 794 b 106 771 164 821 125 806 b 138 685 89 736 101 700 b 289 683 175 671 236 686 b 299 611 331 681 336 636 b 160 533 256 586 190 567 b 151 438 131 503 126 461 z "},"#":{"ha":968,"x_min":0,"x_max":0,"o":"m 164 0 b 199 24 181 0 193 8 l 303 296 l 524 296 l 421 31 b 442 0 414 13 422 0 l 456 0 b 490 24 472 0 485 8 l 594 296 l 819 296 b 854 324 838 296 850 306 l 858 339 b 839 367 864 357 857 367 l 622 367 l 703 574 l 925 574 b 961 601 943 574 956 583 l 965 617 b 944 644 969 635 963 644 l 729 644 l 846 942 b 825 972 853 960 844 972 l 811 972 b 776 949 794 972 782 964 l 658 644 l 438 644 l 554 942 b 533 972 561 960 553 972 l 519 972 b 485 949 503 972 490 964 l 367 644 l 154 644 b 119 617 136 644 124 635 l 115 601 b 135 574 110 583 117 574 l 339 574 l 260 367 l 49 367 b 13 339 31 367 18 357 l 8 324 b 29 296 4 306 11 296 l 232 296 l 129 31 b 150 0 122 13 131 0 z m 631 574 l 551 367 l 331 367 l 411 574 z "},"/":{"ha":544,"x_min":0,"x_max":0,"o":"m 36 -139 b 75 -112 54 -139 67 -131 l 575 992 b 554 1028 586 1015 578 1028 l 539 1028 b 501 1001 521 1028 508 1019 l 0 -103 b 22 -139 -10 -126 -3 -139 z "},"\\":{"ha":518,"x_min":0,"x_max":0,"o":"m 378 -139 b 408 -103 401 -139 413 -126 l 219 1001 b 188 1028 217 1019 206 1028 l 172 1028 b 142 992 150 1028 139 1015 l 332 -112 b 363 -139 335 -131 344 -139 z "},"-":{"ha":492,"x_min":0,"x_max":0,"o":"m 392 372 b 422 394 407 372 417 381 l 429 410 b 411 436 435 428 428 436 l 118 436 b 88 414 103 436 93 428 l 82 399 b 99 372 75 381 82 372 z "},"­":{"ha":492,"x_min":0,"x_max":0,"o":"m 392 372 b 422 394 407 372 417 381 l 429 410 b 411 436 435 428 428 436 l 118 436 b 88 414 103 436 93 428 l 82 399 b 99 372 75 381 82 372 z "},"–":{"ha":701,"x_min":0,"x_max":0,"o":"m 600 372 b 631 394 615 372 625 381 l 638 410 b 619 436 643 428 636 436 l 118 436 b 88 414 103 436 93 428 l 82 399 b 99 372 75 381 82 372 z "},"—":{"ha":979,"x_min":0,"x_max":0,"o":"m 878 372 b 908 394 893 372 903 381 l 915 410 b 897 436 921 428 914 436 l 118 436 b 88 414 103 436 93 428 l 82 399 b 99 372 75 381 82 372 z "},"_":{"ha":586,"x_min":0,"x_max":0,"o":"m 478 -101 b 511 -71 497 -101 508 -92 b 486 -42 514 -51 506 -42 l -6 -42 b -39 -71 -25 -42 -36 -51 b -14 -101 -42 -92 -33 -101 z "},"(":{"ha":524,"x_min":0,"x_max":0,"o":"m 369 -167 b 421 -160 385 -174 408 -176 b 408 -112 433 -144 424 -126 b 225 460 254 26 190 213 b 563 1022 257 694 368 889 b 588 1069 582 1036 594 1056 b 538 1069 579 1085 556 1079 b 78 464 325 960 119 757 b 369 -167 33 142 192 -68 z "},")":{"ha":526,"x_min":0,"x_max":0,"o":"m 13 -167 b 483 464 221 -68 438 142 b 194 1069 525 757 375 960 b 144 1069 178 1079 157 1085 b 154 1022 132 1056 139 1036 b 335 460 313 889 368 694 b -10 -112 300 213 185 26 b -36 -160 -29 -126 -44 -144 b 13 -167 -26 -176 -3 -174 z "},"{":{"ha":426,"x_min":0,"x_max":0,"o":"m 271 -176 b 315 -144 297 -178 311 -168 b 285 -112 317 -126 303 -118 b 238 42 226 -96 229 -24 l 272 285 b 167 465 286 381 242 436 b 324 647 250 494 310 550 l 354 863 b 444 1019 363 926 390 1001 b 485 1054 467 1026 482 1035 b 449 1081 488 1074 474 1082 b 214 838 310 1072 233 976 l 179 592 b 97 500 174 556 147 513 b 64 468 76 496 65 486 b 86 432 61 447 65 439 b 144 340 128 419 149 376 l 106 67 b 271 -176 86 -72 135 -169 z "},"}":{"ha":425,"x_min":0,"x_max":0,"o":"m 11 -176 b 246 67 151 -169 226 -72 l 285 340 b 368 432 289 376 324 419 b 401 468 392 439 399 447 b 378 500 404 486 396 496 b 319 592 331 513 314 556 l 354 838 b 189 1081 374 976 326 1072 b 144 1054 164 1082 147 1074 b 175 1019 142 1035 154 1026 b 222 863 225 1001 231 926 l 192 647 b 296 465 178 550 221 494 b 140 285 213 436 154 381 l 106 42 b 18 -112 97 -24 81 -96 b -21 -144 -3 -118 -19 -126 b 11 -176 -25 -168 -15 -178 z "},"[":{"ha":410,"x_min":0,"x_max":0,"o":"m 264 -178 b 299 -149 285 -178 296 -168 b 272 -119 301 -128 293 -119 l 188 -119 b 167 -96 172 -119 165 -110 l 321 1000 b 347 1024 322 1014 333 1024 l 432 1024 b 468 1053 454 1024 465 1032 b 440 1082 471 1072 463 1082 l 229 1082 b 193 1051 208 1082 196 1071 l 25 -147 b 51 -178 21 -167 31 -178 z "},"]":{"ha":408,"x_min":0,"x_max":0,"o":"m 213 -178 b 249 -147 233 -178 246 -167 l 417 1051 b 390 1082 421 1071 411 1082 l 179 1082 b 143 1053 157 1082 146 1072 b 169 1024 140 1032 149 1024 l 256 1024 b 275 1000 269 1024 276 1014 l 121 -96 b 94 -119 119 -110 108 -119 l 10 -119 b -26 -149 -12 -119 -24 -128 b 1 -178 -29 -168 -21 -178 z "}}}
